# MagicaVoxel @ Ephtracy

# group
o 

# material
mtllib monitorBroken.mtl
usemtl palette

# normals
vn -1 0 0
vn 1 0 0
vn 0 0 1
vn 0 0 -1
vn 0 -1 0
vn 0 1 0

# texcoords
vt 0.978516 0.5
vt 0.982422 0.5
vt 0.986328 0.5
vt 0.994141 0.5

# verts
v -0.6 0.1 0.6
v -0.6 0.1 5.96046e-08
v -0.6 0.3 0.6
v -0.6 0.3 0.1
v -0.6 0.5 5.96046e-08
v -0.6 0.5 -0.1
v -0.6 0.6 0.1
v -0.6 0.6 -0.1
v -0.5 0.3 0.5
v -0.5 0.3 0.4
v -0.5 0.3 0.3
v -0.5 0.3 0.2
v -0.5 0.4 0.5
v -0.5 0.4 0.4
v -0.5 0.4 0.3
v -0.5 0.4 0.2
v -0.5 0.5 0.2
v -0.5 0.5 0.1
v -0.5 0.6 0.1
v -0.5 0.6 -0.1
v -0.5 0.7 5.96046e-08
v -0.5 0.7 -0.1
v -0.5 1.4 0.2
v -0.5 1.4 0.1
v -0.5 1.4 5.96046e-08
v -0.4 0.6 -0.1
v -0.4 0.6 -0.5
v -0.4 0.7 5.96046e-08
v -0.4 0.7 -0.1
v -0.4 1.3 5.96046e-08
v -0.4 1.3 -0.5
v -0.3 0.3 0.5
v -0.3 0.3 0.4
v -0.3 0.3 0.3
v -0.3 0.3 0.2
v -0.3 0.4 0.5
v -0.3 0.4 0.4
v -0.3 0.4 0.3
v -0.3 0.4 0.2
v -0.1 0.3 0.5
v -0.1 0.3 0.4
v -0.1 0.3 0.3
v -0.1 0.3 0.2
v -0.1 0.4 0.5
v -0.1 0.4 0.4
v -0.1 0.4 0.3
v -0.1 0.4 0.2
v 0.1 0.3 0.5
v 0.1 0.3 0.4
v 0.1 0.3 0.3
v 0.1 0.3 0.2
v 0.1 0.4 0.5
v 0.1 0.4 0.4
v 0.1 0.4 0.3
v 0.1 0.4 0.2
v 0.3 0.3 0.5
v 0.3 0.3 0.4
v 0.3 0.3 0.3
v 0.3 0.3 0.2
v 0.3 0.4 0.5
v 0.3 0.4 0.4
v 0.3 0.4 0.3
v 0.3 0.4 0.2
v 0.3 1 0.1
v 0.3 1 5.96046e-08
v 0.3 1 -0.2
v 0.3 1.2 0.1
v 0.3 1.2 5.96046e-08
v 0.3 1.2 -0.2
v 0.5 0.3 0.5
v 0.5 0.3 0.4
v 0.5 0.3 0.3
v 0.5 0.3 0.2
v 0.5 0.4 0.5
v 0.5 0.4 0.4
v 0.5 0.4 0.3
v 0.5 0.4 0.2
v 0.5 0.6 0.2
v 0.5 0.6 0.1
v 0.5 1.1 0.1
v 0.5 1.3 0.2
v 0.5 1.3 0.1
v -0.4 0.3 0.5
v -0.4 0.3 0.4
v -0.4 0.3 0.3
v -0.4 0.3 0.2
v -0.4 0.4 0.5
v -0.4 0.4 0.4
v -0.4 0.4 0.3
v -0.4 0.4 0.2
v -0.4 0.6 0.2
v -0.4 0.6 0.1
v -0.4 0.7 0.1
v -0.4 1.3 0.2
v -0.4 1.3 0.1
v -0.2 0.3 0.5
v -0.2 0.3 0.4
v -0.2 0.3 0.3
v -0.2 0.3 0.2
v -0.2 0.4 0.5
v -0.2 0.4 0.4
v -0.2 0.4 0.3
v -0.2 0.4 0.2
v -5.96046e-08 0.3 0.5
v -5.96046e-08 0.3 0.4
v -5.96046e-08 0.3 0.3
v -5.96046e-08 0.3 0.2
v -5.96046e-08 0.4 0.5
v -5.96046e-08 0.4 0.4
v -5.96046e-08 0.4 0.3
v -5.96046e-08 0.4 0.2
v 0.1 1 0.1
v 0.1 1 5.96046e-08
v 0.1 1 -0.2
v 0.1 1.2 0.1
v 0.1 1.2 5.96046e-08
v 0.1 1.2 -0.2
v 0.2 0.3 0.5
v 0.2 0.3 0.4
v 0.2 0.3 0.3
v 0.2 0.3 0.2
v 0.2 0.4 0.5
v 0.2 0.4 0.4
v 0.2 0.4 0.3
v 0.2 0.4 0.2
v 0.4 0.3 0.5
v 0.4 0.3 0.4
v 0.4 0.3 0.3
v 0.4 0.3 0.2
v 0.4 0.4 0.5
v 0.4 0.4 0.4
v 0.4 0.4 0.3
v 0.4 0.4 0.2
v 0.5 0.6 -0.1
v 0.5 0.6 -0.5
v 0.5 0.7 5.96046e-08
v 0.5 0.7 -0.1
v 0.5 1.3 5.96046e-08
v 0.5 1.3 -0.5
v 0.6 0.3 0.5
v 0.6 0.3 0.4
v 0.6 0.3 0.3
v 0.6 0.3 0.2
v 0.6 0.4 0.5
v 0.6 0.4 0.4
v 0.6 0.4 0.3
v 0.6 0.4 0.2
v 0.6 0.5 0.2
v 0.6 0.5 0.1
v 0.6 0.6 0.1
v 0.6 0.6 -0.1
v 0.6 0.7 5.96046e-08
v 0.6 0.7 -0.1
v 0.6 1.4 0.2
v 0.6 1.4 0.1
v 0.6 1.4 5.96046e-08
v 0.7 0.1 0.6
v 0.7 0.1 5.96046e-08
v 0.7 0.3 0.6
v 0.7 0.3 0.1
v 0.7 0.5 5.96046e-08
v 0.7 0.5 -0.1
v 0.7 0.6 0.1
v 0.7 0.6 -0.1
v -0.6 0.1 0.6
v -0.6 0.3 0.6
v 0.7 0.1 0.6
v 0.7 0.3 0.6
v -0.5 0.3 0.5
v -0.5 0.4 0.5
v -0.4 0.3 0.5
v -0.4 0.4 0.5
v -0.3 0.3 0.5
v -0.3 0.4 0.5
v -0.2 0.3 0.5
v -0.2 0.4 0.5
v -0.1 0.3 0.5
v -0.1 0.4 0.5
v -5.96046e-08 0.3 0.5
v -5.96046e-08 0.4 0.5
v 0.1 0.3 0.5
v 0.1 0.4 0.5
v 0.2 0.3 0.5
v 0.2 0.4 0.5
v 0.3 0.3 0.5
v 0.3 0.4 0.5
v 0.4 0.3 0.5
v 0.4 0.4 0.5
v 0.5 0.3 0.5
v 0.5 0.4 0.5
v 0.6 0.3 0.5
v 0.6 0.4 0.5
v -0.5 0.3 0.3
v -0.5 0.4 0.3
v -0.4 0.3 0.3
v -0.4 0.4 0.3
v -0.3 0.3 0.3
v -0.3 0.4 0.3
v -0.2 0.3 0.3
v -0.2 0.4 0.3
v -0.1 0.3 0.3
v -0.1 0.4 0.3
v -5.96046e-08 0.3 0.3
v -5.96046e-08 0.4 0.3
v 0.1 0.3 0.3
v 0.1 0.4 0.3
v 0.2 0.3 0.3
v 0.2 0.4 0.3
v 0.3 0.3 0.3
v 0.3 0.4 0.3
v 0.4 0.3 0.3
v 0.4 0.4 0.3
v 0.5 0.3 0.3
v 0.5 0.4 0.3
v 0.6 0.3 0.3
v 0.6 0.4 0.3
v -0.5 0.5 0.2
v -0.5 1.4 0.2
v -0.4 0.6 0.2
v -0.4 1.3 0.2
v 0.5 0.6 0.2
v 0.5 1.3 0.2
v 0.6 0.5 0.2
v 0.6 1.4 0.2
v -0.6 0.3 0.1
v -0.6 0.6 0.1
v -0.5 0.5 0.1
v -0.5 0.6 0.1
v -0.4 0.6 0.1
v -0.4 0.7 0.1
v -0.4 1.3 0.1
v -0.3 0.6 0.1
v -0.3 0.7 0.1
v -0.3 0.8 0.1
v -0.2 0.8 0.1
v -0.2 1 0.1
v -0.1 0.7 0.1
v -0.1 0.8 0.1
v -5.96046e-08 0.8 0.1
v -5.96046e-08 0.9 0.1
v -5.96046e-08 1 0.1
v -5.96046e-08 1.3 0.1
v 0.1 1 0.1
v 0.1 1.2 0.1
v 0.3 1 0.1
v 0.3 1.2 0.1
v 0.4 0.9 0.1
v 0.4 1.1 0.1
v 0.5 0.6 0.1
v 0.5 1.1 0.1
v 0.5 1.3 0.1
v 0.6 0.5 0.1
v 0.6 0.6 0.1
v 0.7 0.3 0.1
v 0.7 0.6 0.1
v 0.1 1 -0.2
v 0.1 1.2 -0.2
v 0.3 1 -0.2
v 0.3 1.2 -0.2
v -0.5 0.3 0.4
v -0.5 0.4 0.4
v -0.4 0.3 0.4
v -0.4 0.4 0.4
v -0.3 0.3 0.4
v -0.3 0.4 0.4
v -0.2 0.3 0.4
v -0.2 0.4 0.4
v -0.1 0.3 0.4
v -0.1 0.4 0.4
v -5.96046e-08 0.3 0.4
v -5.96046e-08 0.4 0.4
v 0.1 0.3 0.4
v 0.1 0.4 0.4
v 0.2 0.3 0.4
v 0.2 0.4 0.4
v 0.3 0.3 0.4
v 0.3 0.4 0.4
v 0.4 0.3 0.4
v 0.4 0.4 0.4
v 0.5 0.3 0.4
v 0.5 0.4 0.4
v 0.6 0.3 0.4
v 0.6 0.4 0.4
v -0.5 0.3 0.2
v -0.5 0.4 0.2
v -0.4 0.3 0.2
v -0.4 0.4 0.2
v -0.3 0.3 0.2
v -0.3 0.4 0.2
v -0.2 0.3 0.2
v -0.2 0.4 0.2
v -0.1 0.3 0.2
v -0.1 0.4 0.2
v -5.96046e-08 0.3 0.2
v -5.96046e-08 0.4 0.2
v 0.1 0.3 0.2
v 0.1 0.4 0.2
v 0.2 0.3 0.2
v 0.2 0.4 0.2
v 0.3 0.3 0.2
v 0.3 0.4 0.2
v 0.4 0.3 0.2
v 0.4 0.4 0.2
v 0.5 0.3 0.2
v 0.5 0.4 0.2
v 0.6 0.3 0.2
v 0.6 0.4 0.2
v -0.6 0.1 5.96046e-08
v -0.6 0.5 5.96046e-08
v -0.5 0.7 5.96046e-08
v -0.5 1.4 5.96046e-08
v -0.4 0.7 5.96046e-08
v -0.4 1.3 5.96046e-08
v 0.5 0.7 5.96046e-08
v 0.5 1.3 5.96046e-08
v 0.6 0.7 5.96046e-08
v 0.6 1.4 5.96046e-08
v 0.7 0.1 5.96046e-08
v 0.7 0.5 5.96046e-08
v -0.6 0.5 -0.1
v -0.6 0.6 -0.1
v -0.5 0.6 -0.1
v -0.5 0.7 -0.1
v -0.4 0.6 -0.1
v -0.4 0.7 -0.1
v 0.5 0.6 -0.1
v 0.5 0.7 -0.1
v 0.6 0.6 -0.1
v 0.6 0.7 -0.1
v 0.7 0.5 -0.1
v 0.7 0.6 -0.1
v -0.4 0.6 -0.5
v -0.4 1.3 -0.5
v 0.5 0.6 -0.5
v 0.5 1.3 -0.5
v -0.6 0.1 0.6
v 0.7 0.1 0.6
v -0.6 0.1 5.96046e-08
v 0.7 0.1 5.96046e-08
v -0.5 0.5 0.2
v 0.6 0.5 0.2
v -0.5 0.5 0.1
v 0.6 0.5 0.1
v -0.6 0.5 5.96046e-08
v 0.7 0.5 5.96046e-08
v -0.6 0.5 -0.1
v 0.7 0.5 -0.1
v -0.4 0.6 -0.1
v 0.5 0.6 -0.1
v -0.4 0.6 -0.5
v 0.5 0.6 -0.5
v 0.1 1.2 0.1
v 0.3 1.2 0.1
v 0.1 1.2 5.96046e-08
v 0.3 1.2 5.96046e-08
v 0.1 1.2 -0.2
v 0.3 1.2 -0.2
v -0.4 1.3 0.2
v 0.5 1.3 0.2
v -0.4 1.3 0.1
v -5.96046e-08 1.3 0.1
v 0.5 1.3 0.1
v -0.6 0.3 0.6
v 0.7 0.3 0.6
v -0.5 0.3 0.5
v -0.4 0.3 0.5
v -0.3 0.3 0.5
v -0.2 0.3 0.5
v -0.1 0.3 0.5
v -5.96046e-08 0.3 0.5
v 0.1 0.3 0.5
v 0.2 0.3 0.5
v 0.3 0.3 0.5
v 0.4 0.3 0.5
v 0.5 0.3 0.5
v 0.6 0.3 0.5
v -0.5 0.3 0.4
v -0.4 0.3 0.4
v -0.3 0.3 0.4
v -0.2 0.3 0.4
v -0.1 0.3 0.4
v -5.96046e-08 0.3 0.4
v 0.1 0.3 0.4
v 0.2 0.3 0.4
v 0.3 0.3 0.4
v 0.4 0.3 0.4
v 0.5 0.3 0.4
v 0.6 0.3 0.4
v -0.5 0.3 0.3
v -0.4 0.3 0.3
v -0.3 0.3 0.3
v -0.2 0.3 0.3
v -0.1 0.3 0.3
v -5.96046e-08 0.3 0.3
v 0.1 0.3 0.3
v 0.2 0.3 0.3
v 0.3 0.3 0.3
v 0.4 0.3 0.3
v 0.5 0.3 0.3
v 0.6 0.3 0.3
v -0.5 0.3 0.2
v -0.4 0.3 0.2
v -0.3 0.3 0.2
v -0.2 0.3 0.2
v -0.1 0.3 0.2
v -5.96046e-08 0.3 0.2
v 0.1 0.3 0.2
v 0.2 0.3 0.2
v 0.3 0.3 0.2
v 0.4 0.3 0.2
v 0.5 0.3 0.2
v 0.6 0.3 0.2
v -0.6 0.3 0.1
v 0.7 0.3 0.1
v -0.5 0.4 0.5
v -0.4 0.4 0.5
v -0.3 0.4 0.5
v -0.2 0.4 0.5
v -0.1 0.4 0.5
v -5.96046e-08 0.4 0.5
v 0.1 0.4 0.5
v 0.2 0.4 0.5
v 0.3 0.4 0.5
v 0.4 0.4 0.5
v 0.5 0.4 0.5
v 0.6 0.4 0.5
v -0.5 0.4 0.4
v -0.4 0.4 0.4
v -0.3 0.4 0.4
v -0.2 0.4 0.4
v -0.1 0.4 0.4
v -5.96046e-08 0.4 0.4
v 0.1 0.4 0.4
v 0.2 0.4 0.4
v 0.3 0.4 0.4
v 0.4 0.4 0.4
v 0.5 0.4 0.4
v 0.6 0.4 0.4
v -0.5 0.4 0.3
v -0.4 0.4 0.3
v -0.3 0.4 0.3
v -0.2 0.4 0.3
v -0.1 0.4 0.3
v -5.96046e-08 0.4 0.3
v 0.1 0.4 0.3
v 0.2 0.4 0.3
v 0.3 0.4 0.3
v 0.4 0.4 0.3
v 0.5 0.4 0.3
v 0.6 0.4 0.3
v -0.5 0.4 0.2
v -0.4 0.4 0.2
v -0.3 0.4 0.2
v -0.2 0.4 0.2
v -0.1 0.4 0.2
v -5.96046e-08 0.4 0.2
v 0.1 0.4 0.2
v 0.2 0.4 0.2
v 0.3 0.4 0.2
v 0.4 0.4 0.2
v 0.5 0.4 0.2
v 0.6 0.4 0.2
v -0.4 0.6 0.2
v 0.5 0.6 0.2
v -0.6 0.6 0.1
v -0.5 0.6 0.1
v -0.4 0.6 0.1
v -0.3 0.6 0.1
v 0.5 0.6 0.1
v 0.6 0.6 0.1
v 0.7 0.6 0.1
v -0.6 0.6 -0.1
v -0.5 0.6 -0.1
v 0.6 0.6 -0.1
v 0.7 0.6 -0.1
v -0.5 0.7 5.96046e-08
v -0.4 0.7 5.96046e-08
v 0.5 0.7 5.96046e-08
v 0.6 0.7 5.96046e-08
v -0.5 0.7 -0.1
v -0.4 0.7 -0.1
v 0.5 0.7 -0.1
v 0.6 0.7 -0.1
v 0.1 1 0.1
v 0.3 1 0.1
v 0.1 1 5.96046e-08
v 0.3 1 5.96046e-08
v 0.1 1 -0.2
v 0.3 1 -0.2
v -0.4 1.3 5.96046e-08
v 0.5 1.3 5.96046e-08
v -0.4 1.3 -0.5
v 0.5 1.3 -0.5
v -0.5 1.4 0.2
v 0.6 1.4 0.2
v -0.5 1.4 0.1
v 0.6 1.4 0.1
v -0.5 1.4 5.96046e-08
v 0.6 1.4 5.96046e-08

# faces
f 3/1/1 2/1/1 1/1/1
f 4/1/1 2/1/1 3/1/1
f 5/1/1 2/1/1 4/1/1
f 7/1/1 5/1/1 4/1/1
f 7/1/1 6/1/1 5/1/1
f 8/1/1 6/1/1 7/1/1
f 13/2/1 10/2/1 9/2/1
f 14/2/1 10/2/1 13/2/1
f 15/2/1 12/2/1 11/2/1
f 16/2/1 12/2/1 15/2/1
f 19/2/1 18/2/1 17/2/1
f 21/1/1 20/1/1 19/1/1
f 22/1/1 20/1/1 21/1/1
f 23/2/1 19/2/1 17/2/1
f 24/1/1 21/1/1 19/1/1
f 24/2/1 19/2/1 23/2/1
f 25/1/1 21/1/1 24/1/1
f 29/1/1 27/1/1 26/1/1
f 30/1/1 29/1/1 28/1/1
f 31/1/1 27/1/1 29/1/1
f 31/1/1 29/1/1 30/1/1
f 36/2/1 33/2/1 32/2/1
f 37/2/1 33/2/1 36/2/1
f 38/2/1 35/2/1 34/2/1
f 39/2/1 35/2/1 38/2/1
f 44/2/1 41/2/1 40/2/1
f 45/2/1 41/2/1 44/2/1
f 46/2/1 43/2/1 42/2/1
f 47/2/1 43/2/1 46/2/1
f 52/2/1 49/2/1 48/2/1
f 53/2/1 49/2/1 52/2/1
f 54/2/1 51/2/1 50/2/1
f 55/2/1 51/2/1 54/2/1
f 60/2/1 57/2/1 56/2/1
f 61/2/1 57/2/1 60/2/1
f 62/2/1 59/2/1 58/2/1
f 63/2/1 59/2/1 62/2/1
f 67/3/1 65/3/1 64/3/1
f 68/1/1 66/1/1 65/1/1
f 68/3/1 65/3/1 67/3/1
f 69/1/1 66/1/1 68/1/1
f 74/2/1 71/2/1 70/2/1
f 75/2/1 71/2/1 74/2/1
f 76/2/1 73/2/1 72/2/1
f 77/2/1 73/2/1 76/2/1
f 80/2/1 79/2/1 78/2/1
f 81/2/1 80/2/1 78/2/1
f 82/2/1 80/2/1 81/2/1
f 83/2/2 84/2/2 87/2/2
f 87/2/2 84/2/2 88/2/2
f 85/2/2 86/2/2 89/2/2
f 89/2/2 86/2/2 90/2/2
f 91/2/2 92/2/2 93/2/2
f 91/2/2 93/2/2 94/2/2
f 94/2/2 93/2/2 95/2/2
f 96/2/2 97/2/2 100/2/2
f 100/2/2 97/2/2 101/2/2
f 98/2/2 99/2/2 102/2/2
f 102/2/2 99/2/2 103/2/2
f 104/2/2 105/2/2 108/2/2
f 108/2/2 105/2/2 109/2/2
f 106/2/2 107/2/2 110/2/2
f 110/2/2 107/2/2 111/2/2
f 112/3/2 113/3/2 115/3/2
f 113/1/2 114/1/2 116/1/2
f 115/3/2 113/3/2 116/3/2
f 116/1/2 114/1/2 117/1/2
f 118/2/2 119/2/2 122/2/2
f 122/2/2 119/2/2 123/2/2
f 120/2/2 121/2/2 124/2/2
f 124/2/2 121/2/2 125/2/2
f 126/2/2 127/2/2 130/2/2
f 130/2/2 127/2/2 131/2/2
f 128/2/2 129/2/2 132/2/2
f 132/2/2 129/2/2 133/2/2
f 134/1/2 135/1/2 137/1/2
f 136/1/2 137/1/2 138/1/2
f 137/1/2 135/1/2 139/1/2
f 138/1/2 137/1/2 139/1/2
f 140/2/2 141/2/2 144/2/2
f 144/2/2 141/2/2 145/2/2
f 142/2/2 143/2/2 146/2/2
f 146/2/2 143/2/2 147/2/2
f 148/2/2 149/2/2 150/2/2
f 150/1/2 151/1/2 152/1/2
f 152/1/2 151/1/2 153/1/2
f 148/2/2 150/2/2 154/2/2
f 150/1/2 152/1/2 155/1/2
f 154/2/2 150/2/2 155/2/2
f 155/1/2 152/1/2 156/1/2
f 157/1/2 158/1/2 159/1/2
f 159/1/2 158/1/2 160/1/2
f 160/1/2 158/1/2 161/1/2
f 160/1/2 161/1/2 163/1/2
f 161/1/2 162/1/2 163/1/2
f 163/1/2 162/1/2 164/1/2
f 167/1/3 166/1/3 165/1/3
f 168/1/3 166/1/3 167/1/3
f 171/2/3 170/2/3 169/2/3
f 172/2/3 170/2/3 171/2/3
f 175/2/3 174/2/3 173/2/3
f 176/2/3 174/2/3 175/2/3
f 179/2/3 178/2/3 177/2/3
f 180/2/3 178/2/3 179/2/3
f 183/2/3 182/2/3 181/2/3
f 184/2/3 182/2/3 183/2/3
f 187/2/3 186/2/3 185/2/3
f 188/2/3 186/2/3 187/2/3
f 191/2/3 190/2/3 189/2/3
f 192/2/3 190/2/3 191/2/3
f 195/2/3 194/2/3 193/2/3
f 196/2/3 194/2/3 195/2/3
f 199/2/3 198/2/3 197/2/3
f 200/2/3 198/2/3 199/2/3
f 203/2/3 202/2/3 201/2/3
f 204/2/3 202/2/3 203/2/3
f 207/2/3 206/2/3 205/2/3
f 208/2/3 206/2/3 207/2/3
f 211/2/3 210/2/3 209/2/3
f 212/2/3 210/2/3 211/2/3
f 215/2/3 214/2/3 213/2/3
f 216/2/3 214/2/3 215/2/3
f 219/2/3 218/2/3 217/2/3
f 220/2/3 218/2/3 219/2/3
f 221/2/3 219/2/3 217/2/3
f 222/2/3 218/2/3 220/2/3
f 223/2/3 221/2/3 217/2/3
f 223/2/3 222/2/3 221/2/3
f 224/2/3 218/2/3 222/2/3
f 224/2/3 222/2/3 223/2/3
f 227/1/3 226/1/3 225/1/3
f 228/1/3 226/1/3 227/1/3
f 232/3/3 230/3/3 229/3/3
f 233/4/3 231/4/3 230/4/3
f 233/3/3 230/3/3 232/3/3
f 234/4/3 231/4/3 233/4/3
f 235/3/3 234/3/3 233/3/3
f 235/4/3 231/4/3 234/4/3
f 236/4/3 231/4/3 235/4/3
f 237/4/3 233/4/3 232/4/3
f 237/3/3 235/3/3 233/3/3
f 237/3/3 236/3/3 235/3/3
f 238/3/3 236/3/3 237/3/3
f 239/4/3 238/4/3 237/4/3
f 239/3/3 236/3/3 238/3/3
f 240/3/3 236/3/3 239/3/3
f 241/4/3 231/4/3 236/4/3
f 241/3/3 236/3/3 240/3/3
f 242/4/3 231/4/3 241/4/3
f 243/3/3 241/3/3 240/3/3
f 243/3/3 242/3/3 241/3/3
f 244/3/3 242/3/3 243/3/3
f 245/3/3 243/3/3 240/3/3
f 246/3/3 242/3/3 244/3/3
f 247/4/3 240/4/3 239/4/3
f 247/3/3 246/3/3 245/3/3
f 247/3/3 245/3/3 240/3/3
f 248/3/3 246/3/3 247/3/3
f 249/4/3 237/4/3 232/4/3
f 249/4/3 239/4/3 237/4/3
f 249/4/3 248/4/3 247/4/3
f 249/4/3 247/4/3 239/4/3
f 250/3/3 246/3/3 248/3/3
f 250/4/3 248/4/3 249/4/3
f 251/3/3 242/3/3 246/3/3
f 251/3/3 246/3/3 250/3/3
f 252/1/3 227/1/3 225/1/3
f 254/1/3 252/1/3 225/1/3
f 254/1/3 253/1/3 252/1/3
f 255/1/3 253/1/3 254/1/3
f 258/1/3 257/1/3 256/1/3
f 259/1/3 257/1/3 258/1/3
f 260/2/4 261/2/4 262/2/4
f 262/2/4 261/2/4 263/2/4
f 264/2/4 265/2/4 266/2/4
f 266/2/4 265/2/4 267/2/4
f 268/2/4 269/2/4 270/2/4
f 270/2/4 269/2/4 271/2/4
f 272/2/4 273/2/4 274/2/4
f 274/2/4 273/2/4 275/2/4
f 276/2/4 277/2/4 278/2/4
f 278/2/4 277/2/4 279/2/4
f 280/2/4 281/2/4 282/2/4
f 282/2/4 281/2/4 283/2/4
f 284/2/4 285/2/4 286/2/4
f 286/2/4 285/2/4 287/2/4
f 288/2/4 289/2/4 290/2/4
f 290/2/4 289/2/4 291/2/4
f 292/2/4 293/2/4 294/2/4
f 294/2/4 293/2/4 295/2/4
f 296/2/4 297/2/4 298/2/4
f 298/2/4 297/2/4 299/2/4
f 300/2/4 301/2/4 302/2/4
f 302/2/4 301/2/4 303/2/4
f 304/2/4 305/2/4 306/2/4
f 306/2/4 305/2/4 307/2/4
f 310/1/4 311/1/4 312/1/4
f 312/1/4 311/1/4 313/1/4
f 313/1/4 311/1/4 315/1/4
f 314/1/4 315/1/4 316/1/4
f 315/1/4 311/1/4 317/1/4
f 316/1/4 315/1/4 317/1/4
f 308/1/4 309/1/4 318/1/4
f 318/1/4 309/1/4 319/1/4
f 320/1/4 321/1/4 322/1/4
f 320/1/4 322/1/4 324/1/4
f 322/1/4 323/1/4 324/1/4
f 324/1/4 323/1/4 325/1/4
f 320/1/4 324/1/4 326/1/4
f 320/1/4 326/1/4 328/1/4
f 326/1/4 327/1/4 328/1/4
f 328/1/4 327/1/4 329/1/4
f 320/1/4 328/1/4 330/1/4
f 330/1/4 328/1/4 331/1/4
f 332/1/4 333/1/4 334/1/4
f 334/1/4 333/1/4 335/1/4
f 338/1/5 337/1/5 336/1/5
f 339/1/5 337/1/5 338/1/5
f 342/2/5 341/2/5 340/2/5
f 343/2/5 341/2/5 342/2/5
f 346/1/5 345/1/5 344/1/5
f 347/1/5 345/1/5 346/1/5
f 350/1/5 349/1/5 348/1/5
f 351/1/5 349/1/5 350/1/5
f 354/3/5 353/3/5 352/3/5
f 355/3/5 353/3/5 354/3/5
f 356/1/5 355/1/5 354/1/5
f 357/1/5 355/1/5 356/1/5
f 360/2/5 359/2/5 358/2/5
f 361/2/5 359/2/5 360/2/5
f 362/2/5 359/2/5 361/2/5
f 363/1/6 364/1/6 365/1/6
f 365/1/6 364/1/6 366/1/6
f 366/1/6 364/1/6 367/1/6
f 367/1/6 364/1/6 368/1/6
f 368/1/6 364/1/6 369/1/6
f 369/1/6 364/1/6 370/1/6
f 370/1/6 364/1/6 371/1/6
f 371/1/6 364/1/6 372/1/6
f 372/1/6 364/1/6 373/1/6
f 373/1/6 364/1/6 374/1/6
f 374/1/6 364/1/6 375/1/6
f 375/1/6 364/1/6 376/1/6
f 363/1/6 365/1/6 377/1/6
f 366/1/6 367/1/6 378/1/6
f 378/1/6 367/1/6 379/1/6
f 368/1/6 369/1/6 380/1/6
f 380/1/6 369/1/6 381/1/6
f 370/1/6 371/1/6 382/1/6
f 382/1/6 371/1/6 383/1/6
f 372/1/6 373/1/6 384/1/6
f 384/1/6 373/1/6 385/1/6
f 374/1/6 375/1/6 386/1/6
f 386/1/6 375/1/6 387/1/6
f 376/1/6 364/1/6 388/1/6
f 386/1/6 387/1/6 389/1/6
f 387/1/6 388/1/6 389/1/6
f 384/1/6 385/1/6 389/1/6
f 363/1/6 377/1/6 389/1/6
f 385/1/6 386/1/6 389/1/6
f 382/1/6 383/1/6 389/1/6
f 383/1/6 384/1/6 389/1/6
f 378/1/6 379/1/6 389/1/6
f 381/1/6 382/1/6 389/1/6
f 380/1/6 381/1/6 389/1/6
f 379/1/6 380/1/6 389/1/6
f 377/1/6 378/1/6 389/1/6
f 389/1/6 388/1/6 390/1/6
f 390/1/6 388/1/6 391/1/6
f 391/1/6 388/1/6 392/1/6
f 392/1/6 388/1/6 393/1/6
f 393/1/6 388/1/6 394/1/6
f 394/1/6 388/1/6 395/1/6
f 395/1/6 388/1/6 396/1/6
f 396/1/6 388/1/6 397/1/6
f 397/1/6 388/1/6 398/1/6
f 398/1/6 388/1/6 399/1/6
f 388/1/6 364/1/6 400/1/6
f 399/1/6 388/1/6 400/1/6
f 363/1/6 389/1/6 401/1/6
f 390/1/6 391/1/6 402/1/6
f 402/1/6 391/1/6 403/1/6
f 392/1/6 393/1/6 404/1/6
f 404/1/6 393/1/6 405/1/6
f 394/1/6 395/1/6 406/1/6
f 406/1/6 395/1/6 407/1/6
f 396/1/6 397/1/6 408/1/6
f 408/1/6 397/1/6 409/1/6
f 398/1/6 399/1/6 410/1/6
f 410/1/6 399/1/6 411/1/6
f 400/1/6 364/1/6 412/1/6
f 408/1/6 409/1/6 413/1/6
f 411/1/6 412/1/6 413/1/6
f 410/1/6 411/1/6 413/1/6
f 406/1/6 407/1/6 413/1/6
f 409/1/6 410/1/6 413/1/6
f 363/1/6 401/1/6 413/1/6
f 407/1/6 408/1/6 413/1/6
f 404/1/6 405/1/6 413/1/6
f 405/1/6 406/1/6 413/1/6
f 402/1/6 403/1/6 413/1/6
f 403/1/6 404/1/6 413/1/6
f 401/1/6 402/1/6 413/1/6
f 412/1/6 364/1/6 414/1/6
f 413/1/6 412/1/6 414/1/6
f 415/2/6 416/2/6 427/2/6
f 427/2/6 416/2/6 428/2/6
f 417/2/6 418/2/6 429/2/6
f 429/2/6 418/2/6 430/2/6
f 419/2/6 420/2/6 431/2/6
f 431/2/6 420/2/6 432/2/6
f 421/2/6 422/2/6 433/2/6
f 433/2/6 422/2/6 434/2/6
f 423/2/6 424/2/6 435/2/6
f 435/2/6 424/2/6 436/2/6
f 425/2/6 426/2/6 437/2/6
f 437/2/6 426/2/6 438/2/6
f 439/2/6 440/2/6 451/2/6
f 451/2/6 440/2/6 452/2/6
f 441/2/6 442/2/6 453/2/6
f 453/2/6 442/2/6 454/2/6
f 443/2/6 444/2/6 455/2/6
f 455/2/6 444/2/6 456/2/6
f 445/2/6 446/2/6 457/2/6
f 457/2/6 446/2/6 458/2/6
f 447/2/6 448/2/6 459/2/6
f 459/2/6 448/2/6 460/2/6
f 449/2/6 450/2/6 461/2/6
f 461/2/6 450/2/6 462/2/6
f 463/2/6 464/2/6 467/2/6
f 467/2/6 464/2/6 468/2/6
f 468/2/6 464/2/6 469/2/6
f 465/1/6 466/1/6 472/1/6
f 472/1/6 466/1/6 473/1/6
f 470/1/6 471/1/6 474/1/6
f 474/1/6 471/1/6 475/1/6
f 476/1/6 477/1/6 480/1/6
f 480/1/6 477/1/6 481/1/6
f 478/1/6 479/1/6 482/1/6
f 482/1/6 479/1/6 483/1/6
f 484/3/6 485/3/6 486/3/6
f 486/3/6 485/3/6 487/3/6
f 486/1/6 487/1/6 488/1/6
f 488/1/6 487/1/6 489/1/6
f 490/1/6 491/1/6 492/1/6
f 492/1/6 491/1/6 493/1/6
f 494/2/6 495/2/6 496/2/6
f 496/2/6 495/2/6 497/2/6
f 496/1/6 497/1/6 498/1/6
f 498/1/6 497/1/6 499/1/6
