# MagicaVoxel @ Ephtracy

# group
o 

# material
mtllib _skull.mtl
usemtl palette

# normals
vn -1 0 0
vn 1 0 0
vn 0 0 1
vn 0 0 -1
vn 0 -1 0
vn 0 1 0

# texcoords
vt 0.966797 0.5
vt 0.974609 0.5
vt 0.982422 0.5
vt 0.986328 0.5
vt 0.994141 0.5

# verts
v -0.8 0.4 1
v -0.8 0.4 -0.5
v -0.8 0.7 1
v -0.8 0.7 0.9
v -0.8 0.9 0.9
v -0.8 0.9 -0.5
v -0.7 0.3 1
v -0.7 0.3 -0.3
v -0.7 0.4 1
v -0.7 0.4 -0.3
v -0.7 0.9 0.9
v -0.7 0.9 -0.4
v -0.7 1.5 1
v -0.7 1.5 0.9
v -0.7 1.5 0.8
v -0.7 2 0.9
v -0.7 2 0.8
v -0.7 2.1 1
v -0.7 2.1 -0.4
v -0.6 1.3 1
v -0.6 1.3 0.9
v -0.6 1.5 1
v -0.6 1.5 0.9
v -0.5 0.8 0.9
v -0.5 0.8 0.8
v -0.5 0.9 1
v -0.5 0.9 0.9
v -0.5 0.9 0.8
v -0.5 1.3 1
v -0.5 1.3 0.9
v -0.4 0.3 0.9
v -0.4 0.3 0.8
v -0.4 0.4 0.9
v -0.4 0.4 0.8
v -0.4 0.5 0.9
v -0.4 0.6 0.9
v -0.4 0.6 0.8
v -0.3 0.2 1
v -0.3 0.2 0.9
v -0.3 0.2 0.8
v -0.3 0.2 -0.6
v -0.3 0.3 1
v -0.3 0.3 0.9
v -0.3 0.3 0.8
v -0.3 0.3 -0.2
v -0.3 0.3 -0.3
v -0.3 0.3 -0.6
v -0.3 1.5 1
v -0.3 1.5 0.9
v -0.3 1.6 1
v -0.3 1.6 0.9
v -0.3 1.9 1
v -0.3 1.9 0.9
v -0.3 2 1
v -0.3 2 0.9
v -0.2 0.1 1
v -0.2 0.1 0.9
v -0.2 0.1 0.8
v -0.2 0.1 -0.6
v -0.2 0.2 1
v -0.2 0.2 0.9
v -0.2 0.2 0.8
v -0.2 0.2 -0.6
v -0.2 0.8 0.9
v -0.2 0.8 0.8
v -0.2 0.9 0.9
v -0.2 0.9 0.8
v -0.2 1.6 1
v -0.2 1.6 0.9
v -0.2 1.9 1
v -0.2 1.9 0.9
v 0 0.4 0.9
v 0 0.4 0.8
v 0 0.5 0.9
v 0 0.5 0.8
v 0 0.6 0.9
v 0 0.6 0.8
v 0.1 0.4 1
v 0.1 0.4 0.9
v 0.1 0.5 1
v 0.1 0.5 0.9
v 0.1 0.8 0.9
v 0.1 0.8 0.8
v 0.1 0.9 0.9
v 0.1 0.9 0.8
v 0.2 0.4 0.9
v 0.2 0.4 0.8
v 0.2 0.5 0.9
v 0.2 0.6 0.9
v 0.2 0.6 0.8
v 0.4 0.8 1
v 0.4 0.8 0.9
v 0.4 0.9 1
v 0.4 0.9 0.9
v 0.5 1.5 1
v 0.5 1.5 0.9
v 0.5 1.6 1
v 0.5 1.6 0.9
v 0.5 1.9 1
v 0.5 1.9 0.9
v 0.5 2 1
v 0.5 2 0.9
v 0.6 1.6 1
v 0.6 1.6 0.9
v 0.6 1.9 1
v 0.6 1.9 0.9
v 0.7 0.3 0.8
v 0.7 0.3 -0.2
v 0.7 0.3 -0.3
v 0.7 0.3 -0.5
v 0.7 0.4 0
v 0.7 0.4 -0.2
v 0.7 0.4 -0.3
v 0.7 0.5 1
v 0.7 0.5 0.8
v 0.7 0.6 0
v 0.7 0.6 -0.2
v 0.7 0.7 1
v 0.7 0.7 0.9
v 0.7 0.9 0.9
v 0.7 0.9 -0.2
v 0.7 0.9 -0.3
v 0.7 0.9 -0.4
v 0.7 0.9 -0.5
v -0.7 0.4 0.9
v -0.7 0.4 -0.2
v -0.7 0.4 -0.3
v -0.7 0.4 -0.5
v -0.7 0.5 1
v -0.7 0.5 0.9
v -0.7 0.7 1
v -0.7 0.7 0.9
v -0.7 0.9 0.9
v -0.7 0.9 -0.2
v -0.7 0.9 -0.3
v -0.7 0.9 -0.4
v -0.7 0.9 -0.5
v -0.6 0.3 0.9
v -0.6 0.3 -0.2
v -0.6 0.4 0.9
v -0.6 0.4 -0.2
v -0.6 1.6 1
v -0.6 1.6 0.9
v -0.6 1.9 1
v -0.6 1.9 0.9
v -0.5 1.5 1
v -0.5 1.5 0.9
v -0.5 1.6 1
v -0.5 1.6 0.9
v -0.5 1.9 1
v -0.5 1.9 0.9
v -0.5 2 1
v -0.5 2 0.9
v -0.4 0.8 0.9
v -0.4 0.8 0.8
v -0.4 0.9 0.9
v -0.4 0.9 0.8
v -0.1 0.4 0.9
v -0.1 0.4 0.8
v -0.1 0.5 0.9
v -0.1 0.6 0.9
v -0.1 0.6 0.8
v -0.1 0.8 0.9
v -0.1 0.8 0.8
v -0.1 0.9 0.9
v -0.1 0.9 0.8
v 0 0.4 1
v 0 0.4 0.9
v 0 0.5 1
v 0 0.5 0.9
v 0.1 0.4 0.9
v 0.1 0.4 0.8
v 0.1 0.5 0.9
v 0.1 0.5 0.8
v 0.1 0.6 0.9
v 0.1 0.6 0.8
v 0.2 0.1 1
v 0.2 0.1 0.9
v 0.2 0.1 0.8
v 0.2 0.1 -0.5
v 0.2 0.2 1
v 0.2 0.2 0.9
v 0.2 0.2 0.8
v 0.2 0.2 -0.5
v 0.2 1.6 1
v 0.2 1.6 0.9
v 0.2 1.9 1
v 0.2 1.9 0.9
v 0.3 0.1 -0.5
v 0.3 0.1 -0.6
v 0.3 0.2 1
v 0.3 0.2 0.9
v 0.3 0.2 0.8
v 0.3 0.2 -0.5
v 0.3 0.3 1
v 0.3 0.3 0.9
v 0.3 0.3 0.8
v 0.3 0.3 -0.2
v 0.3 0.3 -0.3
v 0.3 0.3 -0.6
v 0.3 0.8 0.9
v 0.3 0.8 0.8
v 0.3 0.9 0.9
v 0.3 0.9 0.8
v 0.3 1.5 1
v 0.3 1.5 0.9
v 0.3 1.6 1
v 0.3 1.6 0.9
v 0.3 1.9 1
v 0.3 1.9 0.9
v 0.3 2 1
v 0.3 2 0.9
v 0.5 0.8 1
v 0.5 0.8 0.9
v 0.5 0.9 1
v 0.5 0.9 0.9
v 0.5 1.5 1
v 0.5 1.5 0.9
v 0.6 0.5 0.9
v 0.6 0.5 0.8
v 0.6 0.6 0.9
v 0.6 0.6 0.8
v 0.7 0.9 0.9
v 0.7 0.9 -0.4
v 0.7 1.5 1
v 0.7 1.5 0.9
v 0.7 2.1 1
v 0.7 2.1 -0.4
v 0.8 0.3 1
v 0.8 0.3 -0.5
v 0.8 0.4 0
v 0.8 0.4 -0.3
v 0.8 0.6 0
v 0.8 0.6 -0.3
v 0.8 0.7 1
v 0.8 0.7 0.9
v 0.8 0.9 0.9
v 0.8 0.9 -0.5
v -0.8 0.4 1
v -0.8 0.7 1
v -0.7 0.3 1
v -0.7 0.4 1
v -0.7 0.5 1
v -0.7 0.7 1
v -0.7 1.5 1
v -0.7 2.1 1
v -0.6 1.3 1
v -0.6 1.5 1
v -0.6 1.6 1
v -0.6 1.9 1
v -0.5 0.9 1
v -0.5 1.3 1
v -0.5 1.5 1
v -0.5 1.6 1
v -0.5 1.9 1
v -0.5 2 1
v -0.3 0.2 1
v -0.3 0.3 1
v -0.3 1.5 1
v -0.3 1.6 1
v -0.3 1.9 1
v -0.3 2 1
v -0.2 0.1 1
v -0.2 0.2 1
v -0.2 1.6 1
v -0.2 1.9 1
v 0 0.4 1
v 0 0.5 1
v 0.1 0.4 1
v 0.1 0.5 1
v 0.2 0.1 1
v 0.2 0.2 1
v 0.2 1.6 1
v 0.2 1.9 1
v 0.3 0.2 1
v 0.3 0.3 1
v 0.3 1.5 1
v 0.3 1.6 1
v 0.3 1.9 1
v 0.3 2 1
v 0.4 0.8 1
v 0.4 0.9 1
v 0.5 0.8 1
v 0.5 0.9 1
v 0.5 1.5 1
v 0.5 1.6 1
v 0.5 1.9 1
v 0.5 2 1
v 0.6 1.6 1
v 0.6 1.9 1
v 0.7 0.5 1
v 0.7 0.7 1
v 0.7 1.5 1
v 0.7 2.1 1
v 0.8 0.3 1
v 0.8 0.7 1
v -0.8 0.7 0.9
v -0.8 0.9 0.9
v -0.7 0.7 0.9
v -0.7 0.9 0.9
v -0.7 1.5 0.9
v -0.6 1.3 0.9
v -0.6 1.5 0.9
v -0.6 1.6 0.9
v -0.6 1.9 0.9
v -0.5 0.8 0.9
v -0.5 0.9 0.9
v -0.5 1.3 0.9
v -0.5 1.5 0.9
v -0.5 1.6 0.9
v -0.5 1.9 0.9
v -0.5 2 0.9
v -0.4 0.5 0.9
v -0.4 0.6 0.9
v -0.4 0.8 0.9
v -0.4 0.9 0.9
v -0.3 1.5 0.9
v -0.3 1.6 0.9
v -0.3 1.9 0.9
v -0.3 2 0.9
v -0.2 0.8 0.9
v -0.2 0.9 0.9
v -0.2 1.6 0.9
v -0.2 1.9 0.9
v -0.1 0.5 0.9
v -0.1 0.6 0.9
v -0.1 0.8 0.9
v -0.1 0.9 0.9
v 0 0.4 0.9
v 0 0.5 0.9
v 0 0.6 0.9
v 0.1 0.4 0.9
v 0.1 0.5 0.9
v 0.1 0.6 0.9
v 0.1 0.8 0.9
v 0.1 0.9 0.9
v 0.2 0.5 0.9
v 0.2 0.6 0.9
v 0.2 1.6 0.9
v 0.2 1.9 0.9
v 0.3 0.8 0.9
v 0.3 0.9 0.9
v 0.3 1.5 0.9
v 0.3 1.6 0.9
v 0.3 1.9 0.9
v 0.3 2 0.9
v 0.5 0.9 0.9
v 0.5 1.5 0.9
v 0.5 1.6 0.9
v 0.5 1.9 0.9
v 0.5 2 0.9
v 0.6 0.5 0.9
v 0.6 0.6 0.9
v 0.6 1.6 0.9
v 0.6 1.9 0.9
v 0.7 0.7 0.9
v 0.7 0.9 0.9
v 0.7 1.5 0.9
v 0.8 0.7 0.9
v 0.8 0.9 0.9
v -0.7 0.4 -0.2
v -0.7 0.9 -0.2
v -0.6 0.3 -0.2
v -0.6 0.4 -0.2
v -0.3 0.3 -0.2
v 0.3 0.3 -0.2
v 0.7 0.3 -0.2
v 0.7 0.4 -0.2
v 0.7 0.6 -0.2
v 0.7 0.9 -0.2
v 0.2 0.1 -0.5
v 0.2 0.2 -0.5
v 0.3 0.1 -0.5
v 0.3 0.2 -0.5
v -0.7 0.4 0.9
v -0.7 0.5 0.9
v -0.6 0.3 0.9
v -0.6 0.4 0.9
v -0.4 0.3 0.9
v -0.4 0.4 0.9
v -0.4 0.5 0.9
v -0.1 0.4 0.9
v -0.1 0.5 0.9
v 0 0.4 0.9
v 0 0.5 0.9
v 0.1 0.4 0.9
v 0.1 0.5 0.9
v 0.2 0.4 0.9
v 0.2 0.5 0.9
v 0.4 0.8 0.9
v 0.4 0.9 0.9
v 0.5 0.8 0.9
v 0.5 0.9 0.9
v -0.5 0.8 0.8
v -0.5 0.9 0.8
v -0.4 0.3 0.8
v -0.4 0.4 0.8
v -0.4 0.6 0.8
v -0.4 0.8 0.8
v -0.4 0.9 0.8
v -0.3 0.3 0.8
v -0.2 0.8 0.8
v -0.2 0.9 0.8
v -0.1 0.4 0.8
v -0.1 0.6 0.8
v -0.1 0.8 0.8
v -0.1 0.9 0.8
v 0 0.4 0.8
v 0 0.5 0.8
v 0 0.6 0.8
v 0.1 0.4 0.8
v 0.1 0.5 0.8
v 0.1 0.6 0.8
v 0.1 0.8 0.8
v 0.1 0.9 0.8
v 0.2 0.4 0.8
v 0.2 0.6 0.8
v 0.3 0.3 0.8
v 0.3 0.8 0.8
v 0.3 0.9 0.8
v 0.6 0.3 0.8
v 0.6 0.4 0.8
v 0.6 0.5 0.8
v 0.6 0.6 0.8
v 0.7 0.3 0.8
v 0.7 0.5 0.8
v -0.7 0.3 -0.3
v -0.7 0.4 -0.3
v -0.7 0.9 -0.3
v -0.3 0.3 -0.3
v 0.3 0.3 -0.3
v 0.7 0.3 -0.3
v 0.7 0.4 -0.3
v 0.7 0.9 -0.3
v -0.7 0.9 -0.4
v -0.7 2.1 -0.4
v 0.7 0.9 -0.4
v 0.7 2.1 -0.4
v -0.8 0.4 -0.5
v -0.8 0.9 -0.5
v -0.7 0.4 -0.5
v -0.7 0.9 -0.5
v 0.7 0.3 -0.5
v 0.7 0.9 -0.5
v 0.8 0.3 -0.5
v 0.8 0.9 -0.5
v -0.3 0.2 -0.6
v -0.3 0.3 -0.6
v -0.2 0.1 -0.6
v -0.2 0.2 -0.6
v 0.3 0.1 -0.6
v 0.3 0.3 -0.6
v -0.2 0.1 1
v 0.2 0.1 1
v -0.2 0.1 0.9
v 0.2 0.1 0.9
v -0.2 0.1 0.8
v 0.2 0.1 0.8
v 0.2 0.1 -0.5
v 0.3 0.1 -0.5
v -0.2 0.1 -0.6
v 0.3 0.1 -0.6
v -0.3 0.2 1
v -0.2 0.2 1
v 0.2 0.2 1
v 0.3 0.2 1
v -0.3 0.2 0.9
v -0.2 0.2 0.9
v 0.2 0.2 0.9
v 0.3 0.2 0.9
v -0.3 0.2 0.8
v -0.2 0.2 0.8
v 0.2 0.2 0.8
v 0.3 0.2 0.8
v 0.2 0.2 -0.5
v 0.3 0.2 -0.5
v -0.3 0.2 -0.6
v -0.2 0.2 -0.6
v -0.7 0.3 1
v -0.3 0.3 1
v 0.3 0.3 1
v 0.8 0.3 1
v -0.6 0.3 0.9
v -0.4 0.3 0.9
v -0.3 0.3 0.9
v 0.3 0.3 0.9
v 0.6 0.3 0.9
v -0.4 0.3 0.8
v -0.3 0.3 0.8
v 0.3 0.3 0.8
v 0.6 0.3 0.8
v 0.7 0.3 0.8
v -0.6 0.3 -0.2
v -0.3 0.3 -0.2
v 0.3 0.3 -0.2
v 0.7 0.3 -0.2
v -0.7 0.3 -0.3
v -0.3 0.3 -0.3
v 0.3 0.3 -0.3
v 0.7 0.3 -0.3
v 0.7 0.3 -0.5
v 0.8 0.3 -0.5
v -0.8 0.4 1
v -0.7 0.4 1
v -0.7 0.4 -0.3
v -0.8 0.4 -0.5
v -0.7 0.4 -0.5
v 0.4 0.8 1
v 0.5 0.8 1
v -0.5 0.8 0.9
v -0.4 0.8 0.9
v -0.2 0.8 0.9
v -0.1 0.8 0.9
v 0.1 0.8 0.9
v 0.3 0.8 0.9
v 0.4 0.8 0.9
v 0.5 0.8 0.9
v -0.5 0.8 0.8
v -0.4 0.8 0.8
v -0.2 0.8 0.8
v -0.1 0.8 0.8
v 0.1 0.8 0.8
v 0.3 0.8 0.8
v -0.5 0.9 1
v 0.4 0.9 1
v -0.7 0.9 0.9
v -0.5 0.9 0.9
v -0.4 0.9 0.9
v -0.2 0.9 0.9
v -0.1 0.9 0.9
v 0.1 0.9 0.9
v 0.3 0.9 0.9
v 0.4 0.9 0.9
v 0.5 0.9 0.9
v 0.7 0.9 0.9
v -0.5 0.9 0.8
v -0.4 0.9 0.8
v -0.2 0.9 0.8
v -0.1 0.9 0.8
v 0.1 0.9 0.8
v 0.3 0.9 0.8
v 0.5 0.9 0.8
v -0.7 0.9 -0.2
v 0.7 0.9 -0.2
v -0.7 0.9 -0.3
v 0.7 0.9 -0.3
v -0.7 0.9 -0.4
v 0.7 0.9 -0.4
v -0.6 1.3 1
v -0.5 1.3 1
v -0.6 1.3 0.9
v -0.5 1.3 0.9
v -0.7 1.5 1
v -0.6 1.5 1
v 0.5 1.5 1
v 0.7 1.5 1
v -0.7 1.5 0.9
v -0.6 1.5 0.9
v 0.5 1.5 0.9
v 0.7 1.5 0.9
v -0.6 1.9 1
v -0.5 1.9 1
v -0.3 1.9 1
v -0.2 1.9 1
v 0.2 1.9 1
v 0.3 1.9 1
v 0.5 1.9 1
v 0.6 1.9 1
v -0.6 1.9 0.9
v -0.5 1.9 0.9
v -0.3 1.9 0.9
v -0.2 1.9 0.9
v 0.2 1.9 0.9
v 0.3 1.9 0.9
v 0.5 1.9 0.9
v 0.6 1.9 0.9
v -0.5 2 1
v -0.3 2 1
v 0.3 2 1
v 0.5 2 1
v -0.5 2 0.9
v -0.3 2 0.9
v 0.3 2 0.9
v 0.5 2 0.9
v -0.3 0.3 0.8
v 0.3 0.3 0.8
v -0.3 0.3 -0.2
v 0.3 0.3 -0.2
v -0.3 0.3 -0.3
v 0.3 0.3 -0.3
v -0.3 0.3 -0.6
v 0.3 0.3 -0.6
v 0 0.4 1
v 0.1 0.4 1
v -0.7 0.4 0.9
v -0.6 0.4 0.9
v -0.1 0.4 0.9
v 0 0.4 0.9
v 0.1 0.4 0.9
v 0.2 0.4 0.9
v -0.1 0.4 0.8
v 0 0.4 0.8
v 0.1 0.4 0.8
v 0.2 0.4 0.8
v -0.7 0.4 -0.2
v -0.6 0.4 -0.2
v -0.7 0.5 1
v 0 0.5 1
v 0.1 0.5 1
v 0.7 0.5 1
v -0.7 0.5 0.9
v -0.4 0.5 0.9
v -0.1 0.5 0.9
v 0 0.5 0.9
v 0.1 0.5 0.9
v 0.2 0.5 0.9
v 0.6 0.5 0.9
v 0.6 0.5 0.8
v 0.7 0.5 0.8
v -0.4 0.6 0.9
v -0.1 0.6 0.9
v 0 0.6 0.9
v 0.1 0.6 0.9
v 0.2 0.6 0.9
v 0.6 0.6 0.9
v -0.4 0.6 0.8
v -0.1 0.6 0.8
v 0 0.6 0.8
v 0.1 0.6 0.8
v 0.2 0.6 0.8
v 0.6 0.6 0.8
v -0.8 0.7 1
v -0.7 0.7 1
v 0.7 0.7 1
v 0.8 0.7 1
v -0.8 0.7 0.9
v -0.7 0.7 0.9
v 0.7 0.7 0.9
v 0.8 0.7 0.9
v -0.8 0.9 0.9
v -0.7 0.9 0.9
v 0.7 0.9 0.9
v 0.8 0.9 0.9
v -0.7 0.9 -0.4
v 0.7 0.9 -0.4
v -0.8 0.9 -0.5
v -0.7 0.9 -0.5
v 0.7 0.9 -0.5
v 0.8 0.9 -0.5
v -0.5 1.5 1
v -0.3 1.5 1
v 0.3 1.5 1
v 0.5 1.5 1
v -0.5 1.5 0.9
v -0.3 1.5 0.9
v 0.3 1.5 0.9
v 0.5 1.5 0.9
v -0.6 1.6 1
v -0.5 1.6 1
v -0.3 1.6 1
v -0.2 1.6 1
v 0.2 1.6 1
v 0.3 1.6 1
v 0.5 1.6 1
v 0.6 1.6 1
v -0.6 1.6 0.9
v -0.5 1.6 0.9
v -0.3 1.6 0.9
v -0.2 1.6 0.9
v 0.2 1.6 0.9
v 0.3 1.6 0.9
v 0.5 1.6 0.9
v 0.6 1.6 0.9
v -0.7 2.1 1
v 0.7 2.1 1
v -0.7 2.1 -0.4
v 0.7 2.1 -0.4

# faces
f 3/3/1 2/3/1 1/3/1
f 4/3/1 2/3/1 3/3/1
f 5/3/1 2/3/1 4/3/1
f 6/3/1 2/3/1 5/3/1
f 9/3/1 8/3/1 7/3/1
f 10/3/1 8/3/1 9/3/1
f 14/3/1 12/3/1 11/3/1
f 15/3/1 12/3/1 14/3/1
f 16/3/1 14/3/1 13/3/1
f 16/1/1 15/1/1 14/1/1
f 17/3/1 12/3/1 15/3/1
f 17/1/1 15/1/1 16/1/1
f 18/3/1 16/3/1 13/3/1
f 18/3/1 17/3/1 16/3/1
f 19/3/1 12/3/1 17/3/1
f 19/3/1 17/3/1 18/3/1
f 22/3/1 21/3/1 20/3/1
f 23/3/1 21/3/1 22/3/1
f 27/2/1 25/2/1 24/2/1
f 28/2/1 25/2/1 27/2/1
f 29/3/1 27/3/1 26/3/1
f 30/3/1 27/3/1 29/3/1
f 33/1/1 32/1/1 31/1/1
f 34/1/1 32/1/1 33/1/1
f 35/2/1 34/2/1 33/2/1
f 36/2/1 34/2/1 35/2/1
f 37/2/1 34/2/1 36/2/1
f 42/3/1 39/3/1 38/3/1
f 43/1/1 40/1/1 39/1/1
f 43/3/1 39/3/1 42/3/1
f 44/3/1 41/3/1 40/3/1
f 44/1/1 40/1/1 43/1/1
f 45/3/1 41/3/1 44/3/1
f 46/3/1 41/3/1 45/3/1
f 47/3/1 41/3/1 46/3/1
f 50/3/1 49/3/1 48/3/1
f 51/3/1 49/3/1 50/3/1
f 54/3/1 53/3/1 52/3/1
f 55/3/1 53/3/1 54/3/1
f 60/3/1 57/3/1 56/3/1
f 61/2/1 58/2/1 57/2/1
f 61/3/1 57/3/1 60/3/1
f 62/3/1 59/3/1 58/3/1
f 62/2/1 58/2/1 61/2/1
f 63/3/1 59/3/1 62/3/1
f 66/2/1 65/2/1 64/2/1
f 67/2/1 65/2/1 66/2/1
f 70/3/1 69/3/1 68/3/1
f 71/3/1 69/3/1 70/3/1
f 74/3/1 73/3/1 72/3/1
f 75/3/1 73/3/1 74/3/1
f 76/2/1 75/2/1 74/2/1
f 77/2/1 75/2/1 76/2/1
f 80/3/1 79/3/1 78/3/1
f 81/3/1 79/3/1 80/3/1
f 84/2/1 83/2/1 82/2/1
f 85/2/1 83/2/1 84/2/1
f 88/2/1 87/2/1 86/2/1
f 89/2/1 87/2/1 88/2/1
f 90/2/1 87/2/1 89/2/1
f 93/2/1 92/2/1 91/2/1
f 94/2/1 92/2/1 93/2/1
f 97/3/1 96/3/1 95/3/1
f 98/3/1 96/3/1 97/3/1
f 101/3/1 100/3/1 99/3/1
f 102/3/1 100/3/1 101/3/1
f 105/3/1 104/3/1 103/3/1
f 106/3/1 104/3/1 105/3/1
f 111/3/1 108/3/1 107/3/1
f 112/3/1 108/3/1 111/3/1
f 113/3/1 110/3/1 109/3/1
f 115/3/1 111/3/1 107/3/1
f 116/4/1 112/4/1 111/4/1
f 116/3/1 115/3/1 114/3/1
f 116/3/1 111/3/1 115/3/1
f 117/4/1 112/4/1 116/4/1
f 118/3/1 116/3/1 114/3/1
f 118/3/1 117/3/1 116/3/1
f 119/3/1 117/3/1 118/3/1
f 120/3/1 117/3/1 119/3/1
f 121/3/1 117/3/1 120/3/1
f 122/3/1 110/3/1 113/3/1
f 123/3/1 110/3/1 122/3/1
f 124/3/1 110/3/1 123/3/1
f 125/3/2 126/3/2 130/3/2
f 129/3/2 130/3/2 131/3/2
f 130/3/2 126/3/2 132/3/2
f 131/3/2 130/3/2 132/3/2
f 132/3/2 126/3/2 133/3/2
f 133/3/2 126/3/2 134/3/2
f 127/3/2 128/3/2 135/3/2
f 135/3/2 128/3/2 136/3/2
f 136/3/2 128/3/2 137/3/2
f 138/3/2 139/3/2 140/3/2
f 140/3/2 139/3/2 141/3/2
f 142/3/2 143/3/2 144/3/2
f 144/3/2 143/3/2 145/3/2
f 146/3/2 147/3/2 148/3/2
f 148/3/2 147/3/2 149/3/2
f 150/3/2 151/3/2 152/3/2
f 152/3/2 151/3/2 153/3/2
f 154/2/2 155/2/2 156/2/2
f 156/2/2 155/2/2 157/2/2
f 158/2/2 159/2/2 160/2/2
f 160/2/2 159/2/2 161/2/2
f 161/2/2 159/2/2 162/2/2
f 163/2/2 164/2/2 165/2/2
f 165/2/2 164/2/2 166/2/2
f 167/3/2 168/3/2 169/3/2
f 169/3/2 168/3/2 170/3/2
f 171/3/2 172/3/2 173/3/2
f 173/3/2 172/3/2 174/3/2
f 173/2/2 174/2/2 175/2/2
f 175/2/2 174/2/2 176/2/2
f 177/3/2 178/3/2 181/3/2
f 178/2/2 179/2/2 182/2/2
f 181/3/2 178/3/2 182/3/2
f 179/3/2 180/3/2 183/3/2
f 182/2/2 179/2/2 183/2/2
f 183/3/2 180/3/2 184/3/2
f 185/3/2 186/3/2 187/3/2
f 187/3/2 186/3/2 188/3/2
f 189/3/2 190/3/2 194/3/2
f 191/3/2 192/3/2 195/3/2
f 192/1/2 193/1/2 196/1/2
f 195/3/2 192/3/2 196/3/2
f 193/3/2 194/3/2 197/3/2
f 196/1/2 193/1/2 197/1/2
f 197/3/2 194/3/2 198/3/2
f 198/3/2 194/3/2 199/3/2
f 194/3/2 190/3/2 200/3/2
f 199/3/2 194/3/2 200/3/2
f 201/2/2 202/2/2 203/2/2
f 203/2/2 202/2/2 204/2/2
f 205/3/2 206/3/2 207/3/2
f 207/3/2 206/3/2 208/3/2
f 209/3/2 210/3/2 211/3/2
f 211/3/2 210/3/2 212/3/2
f 213/2/2 214/2/2 215/2/2
f 215/2/2 214/2/2 216/2/2
f 215/3/2 216/3/2 217/3/2
f 217/3/2 216/3/2 218/3/2
f 219/2/2 220/2/2 221/2/2
f 221/2/2 220/2/2 222/2/2
f 223/3/2 224/3/2 226/3/2
f 225/3/2 226/3/2 227/3/2
f 226/3/2 224/3/2 228/3/2
f 227/3/2 226/3/2 228/3/2
f 229/3/2 230/3/2 231/3/2
f 231/3/2 230/3/2 232/3/2
f 229/3/2 231/3/2 233/3/2
f 231/4/2 232/4/2 233/4/2
f 232/3/2 230/3/2 234/3/2
f 233/4/2 232/4/2 234/4/2
f 229/3/2 233/3/2 235/3/2
f 233/3/2 234/3/2 235/3/2
f 235/3/2 234/3/2 236/3/2
f 236/3/2 234/3/2 237/3/2
f 234/3/2 230/3/2 238/3/2
f 237/3/2 234/3/2 238/3/2
f 242/3/3 240/3/3 239/3/3
f 243/3/3 240/3/3 242/3/3
f 244/3/3 240/3/3 243/3/3
f 248/3/3 246/3/3 245/3/3
f 249/3/3 246/3/3 248/3/3
f 250/3/3 246/3/3 249/3/3
f 252/3/3 248/3/3 247/3/3
f 252/3/3 249/3/3 248/3/3
f 253/3/3 249/3/3 252/3/3
f 254/3/3 249/3/3 253/3/3
f 255/3/3 246/3/3 250/3/3
f 256/3/3 246/3/3 255/3/3
f 258/3/3 242/3/3 241/3/3
f 258/3/3 243/3/3 242/3/3
f 259/3/3 253/3/3 252/3/3
f 259/3/3 252/3/3 251/3/3
f 262/3/3 246/3/3 256/3/3
f 264/3/3 258/3/3 257/3/3
f 265/3/3 260/3/3 259/3/3
f 266/3/3 262/3/3 261/3/3
f 267/3/3 264/3/3 263/3/3
f 267/3/3 243/3/3 258/3/3
f 267/3/3 258/3/3 264/3/3
f 268/3/3 243/3/3 267/3/3
f 269/3/3 267/3/3 263/3/3
f 271/3/3 269/3/3 263/3/3
f 271/3/3 270/3/3 269/3/3
f 272/3/3 270/3/3 271/3/3
f 273/3/3 265/3/3 259/3/3
f 273/3/3 266/3/3 265/3/3
f 274/3/3 262/3/3 266/3/3
f 274/3/3 266/3/3 273/3/3
f 275/3/3 270/3/3 272/3/3
f 276/3/3 270/3/3 275/3/3
f 277/3/3 273/3/3 259/3/3
f 277/3/3 259/3/3 251/3/3
f 278/3/3 273/3/3 277/3/3
f 279/3/3 262/3/3 274/3/3
f 280/3/3 246/3/3 262/3/3
f 280/3/3 262/3/3 279/3/3
f 282/3/3 277/3/3 251/3/3
f 283/2/3 282/2/3 281/2/3
f 284/3/3 277/3/3 282/3/3
f 284/2/3 282/2/3 283/2/3
f 285/3/3 277/3/3 284/3/3
f 288/3/3 246/3/3 280/3/3
f 289/3/3 286/3/3 285/3/3
f 290/3/3 288/3/3 287/3/3
f 291/3/3 270/3/3 276/3/3
f 293/3/3 289/3/3 285/3/3
f 293/3/3 290/3/3 289/3/3
f 294/3/3 246/3/3 288/3/3
f 294/3/3 290/3/3 293/3/3
f 294/3/3 288/3/3 290/3/3
f 295/3/3 292/3/3 291/3/3
f 295/3/3 291/3/3 276/3/3
f 296/3/3 292/3/3 295/3/3
f 299/3/3 298/3/3 297/3/3
f 300/3/3 298/3/3 299/3/3
f 302/3/3 301/3/3 300/3/3
f 303/3/3 301/3/3 302/3/3
f 307/3/3 302/3/3 300/3/3
f 308/3/3 302/3/3 307/3/3
f 310/5/3 305/5/3 304/5/3
f 311/5/3 305/5/3 310/5/3
f 315/2/3 307/2/3 306/2/3
f 316/2/3 307/2/3 315/2/3
f 317/5/3 312/5/3 311/5/3
f 317/5/3 310/5/3 309/5/3
f 317/5/3 311/5/3 310/5/3
f 318/5/3 312/5/3 317/5/3
f 319/5/3 312/5/3 318/5/3
f 320/5/3 312/5/3 319/5/3
f 323/5/3 319/5/3 318/5/3
f 324/5/3 319/5/3 323/5/3
f 325/2/3 314/2/3 313/2/3
f 326/2/3 314/2/3 325/2/3
f 327/2/3 322/2/3 321/2/3
f 328/2/3 322/2/3 327/2/3
f 332/3/3 330/3/3 329/3/3
f 333/2/3 331/2/3 330/2/3
f 333/3/3 330/3/3 332/3/3
f 334/2/3 331/2/3 333/2/3
f 341/2/3 336/2/3 335/2/3
f 342/2/3 336/2/3 341/2/3
f 344/5/3 340/5/3 339/5/3
f 345/5/3 340/5/3 344/5/3
f 348/5/3 345/5/3 344/5/3
f 348/5/3 344/5/3 343/5/3
f 348/5/3 346/5/3 345/5/3
f 349/5/3 346/5/3 348/5/3
f 350/5/3 346/5/3 349/5/3
f 351/5/3 346/5/3 350/5/3
f 352/2/3 338/2/3 337/2/3
f 353/2/3 338/2/3 352/2/3
f 354/5/3 350/5/3 349/5/3
f 355/5/3 350/5/3 354/5/3
f 357/3/3 348/3/3 347/3/3
f 358/3/3 348/3/3 357/3/3
f 359/3/3 357/3/3 356/3/3
f 360/3/3 357/3/3 359/3/3
f 364/4/3 362/4/3 361/4/3
f 365/3/3 364/3/3 363/3/3
f 366/3/3 364/3/3 365/3/3
f 367/3/3 364/3/3 366/3/3
f 368/4/3 362/4/3 364/4/3
f 368/3/3 364/3/3 367/3/3
f 369/4/3 362/4/3 368/4/3
f 370/4/3 362/4/3 369/4/3
f 373/3/3 372/3/3 371/3/3
f 374/3/3 372/3/3 373/3/3
f 375/3/4 376/3/4 378/3/4
f 377/3/4 378/3/4 379/3/4
f 378/3/4 376/3/4 380/3/4
f 379/3/4 378/3/4 380/3/4
f 380/3/4 376/3/4 381/3/4
f 382/3/4 383/3/4 384/3/4
f 384/3/4 383/3/4 385/3/4
f 386/3/4 387/3/4 388/3/4
f 388/3/4 387/3/4 389/3/4
f 390/2/4 391/2/4 392/2/4
f 392/2/4 391/2/4 393/2/4
f 394/2/4 395/2/4 399/2/4
f 399/2/4 395/2/4 400/2/4
f 396/1/4 397/1/4 401/1/4
f 397/2/4 398/2/4 404/2/4
f 401/1/4 397/1/4 404/1/4
f 404/2/4 398/2/4 405/2/4
f 402/2/4 403/2/4 406/2/4
f 406/2/4 403/2/4 407/2/4
f 401/1/4 404/1/4 408/1/4
f 401/1/4 408/1/4 411/1/4
f 408/3/4 409/3/4 411/3/4
f 409/2/4 410/2/4 412/2/4
f 411/3/4 409/3/4 412/3/4
f 412/2/4 410/2/4 413/2/4
f 401/1/4 411/1/4 416/1/4
f 401/1/4 416/1/4 418/1/4
f 414/2/4 415/2/4 419/2/4
f 419/2/4 415/2/4 420/2/4
f 418/1/4 416/1/4 421/1/4
f 416/2/4 417/2/4 422/2/4
f 421/1/4 416/1/4 422/1/4
f 422/2/4 417/2/4 423/2/4
f 423/2/4 417/2/4 424/2/4
f 421/3/4 422/3/4 425/3/4
f 422/3/4 423/3/4 425/3/4
f 425/3/4 423/3/4 426/3/4
f 427/3/4 428/3/4 430/3/4
f 430/3/4 428/3/4 431/3/4
f 431/3/4 428/3/4 432/3/4
f 428/4/4 429/4/4 433/4/4
f 432/3/4 428/3/4 433/3/4
f 433/4/4 429/4/4 434/4/4
f 435/3/4 436/3/4 437/3/4
f 437/3/4 436/3/4 438/3/4
f 439/3/4 440/3/4 441/3/4
f 441/3/4 440/3/4 442/3/4
f 443/3/4 444/3/4 445/3/4
f 445/3/4 444/3/4 446/3/4
f 447/3/4 448/3/4 450/3/4
f 449/3/4 450/3/4 451/3/4
f 450/3/4 448/3/4 452/3/4
f 451/3/4 450/3/4 452/3/4
f 455/3/5 454/3/5 453/3/5
f 456/3/5 454/3/5 455/3/5
f 457/2/5 456/2/5 455/2/5
f 458/2/5 456/2/5 457/2/5
f 459/3/5 458/3/5 457/3/5
f 461/3/5 459/3/5 457/3/5
f 461/3/5 460/3/5 459/3/5
f 462/3/5 460/3/5 461/3/5
f 467/3/5 464/3/5 463/3/5
f 468/3/5 464/3/5 467/3/5
f 469/3/5 466/3/5 465/3/5
f 470/3/5 466/3/5 469/3/5
f 471/1/5 468/1/5 467/1/5
f 472/1/5 468/1/5 471/1/5
f 473/1/5 470/1/5 469/1/5
f 474/1/5 470/1/5 473/1/5
f 475/3/5 474/3/5 473/3/5
f 476/3/5 474/3/5 475/3/5
f 477/3/5 472/3/5 471/3/5
f 478/3/5 472/3/5 477/3/5
f 483/3/5 480/3/5 479/3/5
f 484/3/5 480/3/5 483/3/5
f 485/3/5 480/3/5 484/3/5
f 486/3/5 482/3/5 481/3/5
f 487/3/5 482/3/5 486/3/5
f 488/1/5 485/1/5 484/1/5
f 489/1/5 485/1/5 488/1/5
f 490/1/5 487/1/5 486/1/5
f 491/3/5 482/3/5 487/3/5
f 491/1/5 487/1/5 490/1/5
f 492/3/5 482/3/5 491/3/5
f 493/3/5 483/3/5 479/3/5
f 496/3/5 482/3/5 492/3/5
f 497/3/5 494/3/5 493/3/5
f 497/3/5 493/3/5 479/3/5
f 498/3/5 494/3/5 497/3/5
f 499/3/5 496/3/5 495/3/5
f 500/3/5 482/3/5 496/3/5
f 500/3/5 496/3/5 499/3/5
f 501/3/5 482/3/5 500/3/5
f 502/3/5 482/3/5 501/3/5
f 505/3/5 504/3/5 503/3/5
f 506/3/5 505/3/5 503/3/5
f 507/3/5 505/3/5 506/3/5
f 516/2/5 509/2/5 508/2/5
f 517/2/5 509/2/5 516/2/5
f 518/2/5 511/2/5 510/2/5
f 519/2/5 511/2/5 518/2/5
f 520/2/5 513/2/5 512/2/5
f 521/2/5 513/2/5 520/2/5
f 522/2/5 515/2/5 514/2/5
f 523/2/5 515/2/5 522/2/5
f 527/3/5 525/3/5 524/3/5
f 528/3/5 525/3/5 527/3/5
f 529/3/5 525/3/5 528/3/5
f 530/3/5 525/3/5 529/3/5
f 531/3/5 525/3/5 530/3/5
f 532/3/5 525/3/5 531/3/5
f 533/3/5 525/3/5 532/3/5
f 536/3/5 527/3/5 526/3/5
f 537/2/5 529/2/5 528/2/5
f 538/2/5 529/2/5 537/2/5
f 539/2/5 531/2/5 530/2/5
f 540/2/5 531/2/5 539/2/5
f 541/2/5 534/2/5 533/2/5
f 541/2/5 533/2/5 532/2/5
f 542/3/5 535/3/5 534/3/5
f 542/2/5 534/2/5 541/2/5
f 543/3/5 541/3/5 540/3/5
f 543/3/5 540/3/5 539/3/5
f 543/3/5 542/3/5 541/3/5
f 543/3/5 536/3/5 526/3/5
f 543/3/5 539/3/5 538/3/5
f 543/3/5 537/3/5 536/3/5
f 543/3/5 538/3/5 537/3/5
f 544/3/5 535/3/5 542/3/5
f 544/3/5 542/3/5 543/3/5
f 547/3/5 546/3/5 545/3/5
f 548/3/5 546/3/5 547/3/5
f 551/3/5 550/3/5 549/3/5
f 552/3/5 550/3/5 551/3/5
f 557/3/5 554/3/5 553/3/5
f 558/3/5 554/3/5 557/3/5
f 559/3/5 556/3/5 555/3/5
f 560/3/5 556/3/5 559/3/5
f 569/3/5 562/3/5 561/3/5
f 570/3/5 562/3/5 569/3/5
f 571/3/5 564/3/5 563/3/5
f 572/3/5 564/3/5 571/3/5
f 573/3/5 566/3/5 565/3/5
f 574/3/5 566/3/5 573/3/5
f 575/3/5 568/3/5 567/3/5
f 576/3/5 568/3/5 575/3/5
f 581/3/5 578/3/5 577/3/5
f 582/3/5 578/3/5 581/3/5
f 583/3/5 580/3/5 579/3/5
f 584/3/5 580/3/5 583/3/5
f 585/3/6 586/3/6 587/3/6
f 587/3/6 586/3/6 588/3/6
f 589/3/6 590/3/6 591/3/6
f 591/3/6 590/3/6 592/3/6
f 593/3/6 594/3/6 598/3/6
f 598/3/6 594/3/6 599/3/6
f 597/1/6 598/1/6 601/1/6
f 601/1/6 598/1/6 602/1/6
f 599/1/6 600/1/6 603/1/6
f 603/1/6 600/1/6 604/1/6
f 595/3/6 596/3/6 605/3/6
f 605/3/6 596/3/6 606/3/6
f 607/3/6 608/3/6 611/3/6
f 611/3/6 608/3/6 612/3/6
f 612/3/6 608/3/6 613/3/6
f 613/3/6 608/3/6 614/3/6
f 609/3/6 610/3/6 615/3/6
f 615/3/6 610/3/6 616/3/6
f 616/3/6 610/3/6 617/3/6
f 617/3/6 610/3/6 618/3/6
f 618/3/6 610/3/6 619/3/6
f 620/2/6 621/2/6 626/2/6
f 626/2/6 621/2/6 627/2/6
f 622/2/6 623/2/6 628/2/6
f 628/2/6 623/2/6 629/2/6
f 624/2/6 625/2/6 630/2/6
f 630/2/6 625/2/6 631/2/6
f 632/3/6 633/3/6 636/3/6
f 636/3/6 633/3/6 637/3/6
f 634/3/6 635/3/6 638/3/6
f 638/3/6 635/3/6 639/3/6
f 640/3/6 641/3/6 644/3/6
f 642/3/6 643/3/6 645/3/6
f 640/3/6 644/3/6 646/3/6
f 646/3/6 644/3/6 647/3/6
f 645/3/6 643/3/6 648/3/6
f 648/3/6 643/3/6 649/3/6
f 650/3/6 651/3/6 654/3/6
f 654/3/6 651/3/6 655/3/6
f 652/3/6 653/3/6 656/3/6
f 656/3/6 653/3/6 657/3/6
f 658/3/6 659/3/6 666/3/6
f 666/3/6 659/3/6 667/3/6
f 660/3/6 661/3/6 668/3/6
f 668/3/6 661/3/6 669/3/6
f 662/3/6 663/3/6 670/3/6
f 670/3/6 663/3/6 671/3/6
f 664/3/6 665/3/6 672/3/6
f 672/3/6 665/3/6 673/3/6
f 674/3/6 675/3/6 676/3/6
f 676/3/6 675/3/6 677/3/6
