# MagicaVoxel @ Ephtracy

# group
o 

# material
mtllib _zweihander.mtl
usemtl palette

# normals
vn -1 0 0
vn 1 0 0
vn 0 0 1
vn 0 0 -1
vn 0 -1 0
vn 0 1 0

# texcoords
vt 0.974609 0.5
vt 0.982422 0.5
vt 0.990234 0.5

# verts
v -1.7 -1 0.2
v -1.7 -1 0.1
v -1.7 -0.9 0.2
v -1.7 -0.9 0.1
v -1.6 -1.1 0.2
v -1.6 -1.1 0.1
v -1.6 -1 0.2
v -1.6 -1 0.1
v -1.5 -1.2 0.2
v -1.5 -1.2 0.1
v -1.5 -1.1 0.2
v -1.5 -1.1 0.1
v -1.4 -1.3 0.2
v -1.4 -1.3 0.1
v -1.4 -1.2 0.2
v -1.4 -1.2 0.1
v -0.6 -0.0999999 0.2
v -0.6 -0.0999999 0.1
v -0.6 0 0.2
v -0.6 0 0.1
v -0.5 -0.2 0.2
v -0.5 -0.2 0.1
v -0.5 -0.0999999 0.2
v -0.5 -0.0999999 0.1
v -0.3 -3.2 0.2
v -0.3 -3.2 0.1
v -0.3 -1.3 0.2
v -0.3 -1.3 0.1
v -0.3 -1.2 0.2
v -0.3 -1.2 0.1
v -0.3 -0.8 0.2
v -0.3 -0.8 0.1
v -0.3 -0.2 0.2
v -0.3 -0.2 0.1
v -0.3 -0.0999999 0.2
v -0.3 -0.0999999 0.1
v -0.3 3.9 0.2
v -0.3 3.9 0.1
v -0.2 3.9 0.2
v -0.2 3.9 0.1
v -0.2 4.1 0.2
v -0.2 4.1 0.1
v 0.3 -0.0999999 0.2
v 0.3 -0.0999999 0.1
v 0.3 0 0.2
v 0.3 0 0.1
v 1.1 -1.2 0.2
v 1.1 -1.2 0.1
v 1.1 -1.1 0.2
v 1.1 -1.1 0.1
v 1.3 -1.1 0.2
v 1.3 -1.1 0.1
v 1.3 -0.9 0.2
v 1.3 -0.9 0.1
v -1.5 -1.1 0.2
v -1.5 -1.1 0.1
v -1.5 -0.9 0.2
v -1.5 -0.9 0.1
v -1.4 -1.2 0.2
v -1.4 -1.2 0.1
v -1.4 -1.1 0.2
v -1.4 -1.1 0.1
v -0.5 -0.0999999 0.2
v -0.5 -0.0999999 0.1
v -0.5 0 0.2
v -0.5 0 0.1
v 0 3.9 0.2
v 0 3.9 0.1
v 0 4.1 0.2
v 0 4.1 0.1
v 0.0999999 -3.2 0.2
v 0.0999999 -3.2 0.1
v 0.0999999 -1.3 0.2
v 0.0999999 -1.3 0.1
v 0.0999999 -1.2 0.2
v 0.0999999 -1.2 0.1
v 0.0999999 -0.8 0.2
v 0.0999999 -0.8 0.1
v 0.0999999 -0.2 0.2
v 0.0999999 -0.2 0.1
v 0.0999999 -0.0999999 0.2
v 0.0999999 -0.0999999 0.1
v 0.0999999 3.9 0.2
v 0.0999999 3.9 0.1
v 0.3 -0.2 0.2
v 0.3 -0.2 0.1
v 0.3 -0.0999999 0.2
v 0.3 -0.0999999 0.1
v 0.4 -0.0999999 0.2
v 0.4 -0.0999999 0.1
v 0.4 0 0.2
v 0.4 0 0.1
v 1.2 -1.3 0.2
v 1.2 -1.3 0.1
v 1.2 -1.2 0.2
v 1.2 -1.2 0.1
v 1.3 -1.2 0.2
v 1.3 -1.2 0.1
v 1.3 -1.1 0.2
v 1.3 -1.1 0.1
v 1.4 -1.1 0.2
v 1.4 -1.1 0.1
v 1.4 -1 0.2
v 1.4 -1 0.1
v 1.5 -1 0.2
v 1.5 -1 0.1
v 1.5 -0.9 0.2
v 1.5 -0.9 0.1
v -1.7 -1 0.2
v -1.7 -0.9 0.2
v -1.6 -1.1 0.2
v -1.6 -1 0.2
v -1.5 -1.2 0.2
v -1.5 -1.1 0.2
v -1.5 -0.9 0.2
v -1.4 -1.3 0.2
v -1.4 -1.2 0.2
v -1.4 -1.1 0.2
v -0.6 -0.0999999 0.2
v -0.6 0 0.2
v -0.5 -0.2 0.2
v -0.5 -0.0999999 0.2
v -0.5 0 0.2
v -0.3 -3.2 0.2
v -0.3 -1.3 0.2
v -0.3 -1.2 0.2
v -0.3 -0.8 0.2
v -0.3 -0.2 0.2
v -0.3 -0.0999999 0.2
v -0.3 3.9 0.2
v -0.2 3.9 0.2
v -0.2 4.1 0.2
v 0 3.9 0.2
v 0 4.1 0.2
v 0.0999999 -3.2 0.2
v 0.0999999 -1.3 0.2
v 0.0999999 -1.2 0.2
v 0.0999999 -0.8 0.2
v 0.0999999 -0.2 0.2
v 0.0999999 -0.0999999 0.2
v 0.0999999 3.9 0.2
v 0.3 -0.2 0.2
v 0.3 -0.0999999 0.2
v 0.3 0 0.2
v 0.4 -0.0999999 0.2
v 0.4 0 0.2
v 1.1 -1.2 0.2
v 1.1 -1.1 0.2
v 1.2 -1.3 0.2
v 1.2 -1.2 0.2
v 1.3 -1.2 0.2
v 1.3 -1.1 0.2
v 1.3 -0.9 0.2
v 1.4 -1.1 0.2
v 1.4 -1 0.2
v 1.5 -1 0.2
v 1.5 -0.9 0.2
v -1.7 -1 0.1
v -1.7 -0.9 0.1
v -1.6 -1.1 0.1
v -1.6 -1 0.1
v -1.5 -1.2 0.1
v -1.5 -1.1 0.1
v -1.5 -0.9 0.1
v -1.4 -1.3 0.1
v -1.4 -1.2 0.1
v -1.4 -1.1 0.1
v -0.6 -0.0999999 0.1
v -0.6 0 0.1
v -0.5 -0.2 0.1
v -0.5 -0.0999999 0.1
v -0.5 0 0.1
v -0.3 -3.2 0.1
v -0.3 -1.3 0.1
v -0.3 -1.2 0.1
v -0.3 -0.8 0.1
v -0.3 -0.2 0.1
v -0.3 -0.0999999 0.1
v -0.3 3.9 0.1
v -0.2 3.9 0.1
v -0.2 4.1 0.1
v 0 3.9 0.1
v 0 4.1 0.1
v 0.0999999 -3.2 0.1
v 0.0999999 -1.3 0.1
v 0.0999999 -1.2 0.1
v 0.0999999 -0.8 0.1
v 0.0999999 -0.2 0.1
v 0.0999999 -0.0999999 0.1
v 0.0999999 3.9 0.1
v 0.3 -0.2 0.1
v 0.3 -0.0999999 0.1
v 0.3 0 0.1
v 0.4 -0.0999999 0.1
v 0.4 0 0.1
v 1.1 -1.2 0.1
v 1.1 -1.1 0.1
v 1.2 -1.3 0.1
v 1.2 -1.2 0.1
v 1.3 -1.2 0.1
v 1.3 -1.1 0.1
v 1.3 -0.9 0.1
v 1.4 -1.1 0.1
v 1.4 -1 0.1
v 1.5 -1 0.1
v 1.5 -0.9 0.1
v -0.3 -3.2 0.2
v 0.0999999 -3.2 0.2
v -0.3 -3.2 0.1
v 0.0999999 -3.2 0.1
v -1.4 -1.3 0.2
v -0.3 -1.3 0.2
v 0.0999999 -1.3 0.2
v 1.2 -1.3 0.2
v -1.4 -1.3 0.1
v -0.3 -1.3 0.1
v 0.0999999 -1.3 0.1
v 1.2 -1.3 0.1
v -1.5 -1.2 0.2
v -1.4 -1.2 0.2
v 1.2 -1.2 0.2
v 1.3 -1.2 0.2
v -1.5 -1.2 0.1
v -1.4 -1.2 0.1
v 1.2 -1.2 0.1
v 1.3 -1.2 0.1
v -1.6 -1.1 0.2
v -1.5 -1.1 0.2
v 1.3 -1.1 0.2
v 1.4 -1.1 0.2
v -1.6 -1.1 0.1
v -1.5 -1.1 0.1
v 1.3 -1.1 0.1
v 1.4 -1.1 0.1
v -1.7 -1 0.2
v -1.6 -1 0.2
v 1.4 -1 0.2
v 1.5 -1 0.2
v -1.7 -1 0.1
v -1.6 -1 0.1
v 1.4 -1 0.1
v 1.5 -1 0.1
v -0.5 -0.2 0.2
v -0.3 -0.2 0.2
v 0.0999999 -0.2 0.2
v 0.3 -0.2 0.2
v -0.5 -0.2 0.1
v -0.3 -0.2 0.1
v 0.0999999 -0.2 0.1
v 0.3 -0.2 0.1
v -0.6 -0.0999999 0.2
v -0.5 -0.0999999 0.2
v 0.3 -0.0999999 0.2
v 0.4 -0.0999999 0.2
v -0.6 -0.0999999 0.1
v -0.5 -0.0999999 0.1
v 0.3 -0.0999999 0.1
v 0.4 -0.0999999 0.1
v -1.4 -1.2 0.2
v -0.3 -1.2 0.2
v 0.0999999 -1.2 0.2
v 1.1 -1.2 0.2
v -1.4 -1.2 0.1
v -0.3 -1.2 0.1
v 0.0999999 -1.2 0.1
v 1.1 -1.2 0.1
v -1.5 -1.1 0.2
v -1.4 -1.1 0.2
v 1.1 -1.1 0.2
v 1.3 -1.1 0.2
v -1.5 -1.1 0.1
v -1.4 -1.1 0.1
v 1.1 -1.1 0.1
v 1.3 -1.1 0.1
v -1.7 -0.9 0.2
v -1.5 -0.9 0.2
v 1.3 -0.9 0.2
v 1.5 -0.9 0.2
v -1.7 -0.9 0.1
v -1.5 -0.9 0.1
v 1.3 -0.9 0.1
v 1.5 -0.9 0.1
v -0.5 -0.0999999 0.2
v -0.3 -0.0999999 0.2
v 0.0999999 -0.0999999 0.2
v 0.3 -0.0999999 0.2
v -0.5 -0.0999999 0.1
v -0.3 -0.0999999 0.1
v 0.0999999 -0.0999999 0.1
v 0.3 -0.0999999 0.1
v -0.6 0 0.2
v -0.5 0 0.2
v 0.3 0 0.2
v 0.4 0 0.2
v -0.6 0 0.1
v -0.5 0 0.1
v 0.3 0 0.1
v 0.4 0 0.1
v -0.3 3.9 0.2
v -0.2 3.9 0.2
v 0 3.9 0.2
v 0.0999999 3.9 0.2
v -0.3 3.9 0.1
v -0.2 3.9 0.1
v 0 3.9 0.1
v 0.0999999 3.9 0.1
v -0.2 4.1 0.2
v 0 4.1 0.2
v -0.2 4.1 0.1
v 0 4.1 0.1

# faces
f 3/2/1 2/2/1 1/2/1
f 4/2/1 2/2/1 3/2/1
f 7/2/1 6/2/1 5/2/1
f 8/2/1 6/2/1 7/2/1
f 11/2/1 10/2/1 9/2/1
f 12/2/1 10/2/1 11/2/1
f 15/2/1 14/2/1 13/2/1
f 16/2/1 14/2/1 15/2/1
f 19/2/1 18/2/1 17/2/1
f 20/2/1 18/2/1 19/2/1
f 23/2/1 22/2/1 21/2/1
f 24/2/1 22/2/1 23/2/1
f 27/3/1 26/3/1 25/3/1
f 28/3/1 26/3/1 27/3/1
f 31/3/1 30/3/1 29/3/1
f 32/3/1 30/3/1 31/3/1
f 33/1/1 32/1/1 31/1/1
f 34/1/1 32/1/1 33/1/1
f 37/1/1 36/1/1 35/1/1
f 38/1/1 36/1/1 37/1/1
f 41/1/1 40/1/1 39/1/1
f 42/1/1 40/1/1 41/1/1
f 45/2/1 44/2/1 43/2/1
f 46/2/1 44/2/1 45/2/1
f 49/2/1 48/2/1 47/2/1
f 50/2/1 48/2/1 49/2/1
f 53/2/1 52/2/1 51/2/1
f 54/2/1 52/2/1 53/2/1
f 55/2/2 56/2/2 57/2/2
f 57/2/2 56/2/2 58/2/2
f 59/2/2 60/2/2 61/2/2
f 61/2/2 60/2/2 62/2/2
f 63/2/2 64/2/2 65/2/2
f 65/2/2 64/2/2 66/2/2
f 67/1/2 68/1/2 69/1/2
f 69/1/2 68/1/2 70/1/2
f 71/3/2 72/3/2 73/3/2
f 73/3/2 72/3/2 74/3/2
f 75/3/2 76/3/2 77/3/2
f 77/3/2 76/3/2 78/3/2
f 77/1/2 78/1/2 79/1/2
f 79/1/2 78/1/2 80/1/2
f 81/1/2 82/1/2 83/1/2
f 83/1/2 82/1/2 84/1/2
f 85/2/2 86/2/2 87/2/2
f 87/2/2 86/2/2 88/2/2
f 89/2/2 90/2/2 91/2/2
f 91/2/2 90/2/2 92/2/2
f 93/2/2 94/2/2 95/2/2
f 95/2/2 94/2/2 96/2/2
f 97/2/2 98/2/2 99/2/2
f 99/2/2 98/2/2 100/2/2
f 101/2/2 102/2/2 103/2/2
f 103/2/2 102/2/2 104/2/2
f 105/2/2 106/2/2 107/2/2
f 107/2/2 106/2/2 108/2/2
f 112/2/3 110/2/3 109/2/3
f 114/2/3 112/2/3 111/2/3
f 115/2/3 110/2/3 112/2/3
f 115/2/3 112/2/3 114/2/3
f 117/2/3 114/2/3 113/2/3
f 118/2/3 114/2/3 117/2/3
f 122/2/3 120/2/3 119/2/3
f 123/2/3 120/2/3 122/2/3
f 125/2/3 117/2/3 116/2/3
f 126/2/3 117/2/3 125/2/3
f 128/2/3 122/2/3 121/2/3
f 129/2/3 122/2/3 128/2/3
f 131/1/3 129/1/3 128/1/3
f 131/1/3 130/1/3 129/1/3
f 131/1/3 128/1/3 127/1/3
f 133/1/3 131/1/3 127/1/3
f 133/1/3 132/1/3 131/1/3
f 134/1/3 132/1/3 133/1/3
f 135/3/3 127/3/3 126/3/3
f 135/3/3 125/3/3 124/3/3
f 135/3/3 126/3/3 125/3/3
f 136/3/3 127/3/3 135/3/3
f 137/3/3 127/3/3 136/3/3
f 138/1/3 133/1/3 127/1/3
f 138/3/3 127/3/3 137/3/3
f 139/1/3 133/1/3 138/1/3
f 140/1/3 133/1/3 139/1/3
f 141/1/3 133/1/3 140/1/3
f 142/2/3 140/2/3 139/2/3
f 143/2/3 140/2/3 142/2/3
f 145/2/3 144/2/3 143/2/3
f 146/2/3 144/2/3 145/2/3
f 147/2/3 137/2/3 136/2/3
f 149/2/3 147/2/3 136/2/3
f 149/2/3 148/2/3 147/2/3
f 150/2/3 148/2/3 149/2/3
f 151/2/3 148/2/3 150/2/3
f 152/2/3 148/2/3 151/2/3
f 154/2/3 153/2/3 152/2/3
f 155/2/3 153/2/3 154/2/3
f 156/2/3 153/2/3 155/2/3
f 157/2/3 153/2/3 156/2/3
f 158/2/4 159/2/4 161/2/4
f 160/2/4 161/2/4 163/2/4
f 161/2/4 159/2/4 164/2/4
f 163/2/4 161/2/4 164/2/4
f 162/2/4 163/2/4 166/2/4
f 166/2/4 163/2/4 167/2/4
f 168/2/4 169/2/4 171/2/4
f 171/2/4 169/2/4 172/2/4
f 165/2/4 166/2/4 174/2/4
f 174/2/4 166/2/4 175/2/4
f 170/2/4 171/2/4 177/2/4
f 177/2/4 171/2/4 178/2/4
f 177/1/4 178/1/4 180/1/4
f 178/1/4 179/1/4 180/1/4
f 176/1/4 177/1/4 180/1/4
f 176/1/4 180/1/4 182/1/4
f 180/1/4 181/1/4 182/1/4
f 182/1/4 181/1/4 183/1/4
f 175/3/4 176/3/4 184/3/4
f 173/3/4 174/3/4 184/3/4
f 174/3/4 175/3/4 184/3/4
f 184/3/4 176/3/4 185/3/4
f 185/3/4 176/3/4 186/3/4
f 176/1/4 182/1/4 187/1/4
f 186/3/4 176/3/4 187/3/4
f 187/1/4 182/1/4 188/1/4
f 188/1/4 182/1/4 189/1/4
f 189/1/4 182/1/4 190/1/4
f 188/2/4 189/2/4 191/2/4
f 191/2/4 189/2/4 192/2/4
f 192/2/4 193/2/4 194/2/4
f 194/2/4 193/2/4 195/2/4
f 185/2/4 186/2/4 196/2/4
f 185/2/4 196/2/4 198/2/4
f 196/2/4 197/2/4 198/2/4
f 198/2/4 197/2/4 199/2/4
f 199/2/4 197/2/4 200/2/4
f 200/2/4 197/2/4 201/2/4
f 201/2/4 202/2/4 203/2/4
f 203/2/4 202/2/4 204/2/4
f 204/2/4 202/2/4 205/2/4
f 205/2/4 202/2/4 206/2/4
f 209/3/5 208/3/5 207/3/5
f 210/3/5 208/3/5 209/3/5
f 215/2/5 212/2/5 211/2/5
f 216/2/5 212/2/5 215/2/5
f 217/2/5 214/2/5 213/2/5
f 218/2/5 214/2/5 217/2/5
f 223/2/5 220/2/5 219/2/5
f 224/2/5 220/2/5 223/2/5
f 225/2/5 222/2/5 221/2/5
f 226/2/5 222/2/5 225/2/5
f 231/2/5 228/2/5 227/2/5
f 232/2/5 228/2/5 231/2/5
f 233/2/5 230/2/5 229/2/5
f 234/2/5 230/2/5 233/2/5
f 239/2/5 236/2/5 235/2/5
f 240/2/5 236/2/5 239/2/5
f 241/2/5 238/2/5 237/2/5
f 242/2/5 238/2/5 241/2/5
f 247/2/5 244/2/5 243/2/5
f 248/2/5 244/2/5 247/2/5
f 249/2/5 246/2/5 245/2/5
f 250/2/5 246/2/5 249/2/5
f 255/2/5 252/2/5 251/2/5
f 256/2/5 252/2/5 255/2/5
f 257/2/5 254/2/5 253/2/5
f 258/2/5 254/2/5 257/2/5
f 259/2/6 260/2/6 263/2/6
f 263/2/6 260/2/6 264/2/6
f 261/2/6 262/2/6 265/2/6
f 265/2/6 262/2/6 266/2/6
f 267/2/6 268/2/6 271/2/6
f 271/2/6 268/2/6 272/2/6
f 269/2/6 270/2/6 273/2/6
f 273/2/6 270/2/6 274/2/6
f 275/2/6 276/2/6 279/2/6
f 279/2/6 276/2/6 280/2/6
f 277/2/6 278/2/6 281/2/6
f 281/2/6 278/2/6 282/2/6
f 283/2/6 284/2/6 287/2/6
f 287/2/6 284/2/6 288/2/6
f 285/2/6 286/2/6 289/2/6
f 289/2/6 286/2/6 290/2/6
f 291/2/6 292/2/6 295/2/6
f 295/2/6 292/2/6 296/2/6
f 293/2/6 294/2/6 297/2/6
f 297/2/6 294/2/6 298/2/6
f 299/1/6 300/1/6 303/1/6
f 303/1/6 300/1/6 304/1/6
f 301/1/6 302/1/6 305/1/6
f 305/1/6 302/1/6 306/1/6
f 307/1/6 308/1/6 309/1/6
f 309/1/6 308/1/6 310/1/6
