# MagicaVoxel @ Ephtracy

# group
o 

# material
mtllib card.mtl
usemtl palette

# normals
vn -1 0 0
vn 1 0 0
vn 0 0 1
vn 0 0 -1
vn 0 -1 0
vn 0 1 0

# texcoords
vt 0.841797 0.5
vt 0.986328 0.5

# verts
v -0.5 1.6 0
v -0.5 1.6 -0.1
v -0.5 1.8 0
v -0.5 1.8 -0.1
v -0.5 2.4 0
v -0.5 2.4 -0.1
v -0.4 1.5 0
v -0.4 1.5 -0.1
v -0.4 1.6 0
v -0.4 1.6 -0.1
v -0.4 2.4 0
v -0.4 2.4 -0.1
v -0.4 2.5 0
v -0.4 2.5 -0.1
v 1.4 1.5 0
v 1.4 1.5 -0.1
v 1.4 1.6 0
v 1.4 1.6 -0.1
v 1.4 2.4 0
v 1.4 2.4 -0.1
v 1.4 2.5 0
v 1.4 2.5 -0.1
v 1.5 1.6 0
v 1.5 1.6 -0.1
v 1.5 1.8 0
v 1.5 1.8 -0.1
v 1.5 2.4 0
v 1.5 2.4 -0.1
v -0.5 1.6 0
v -0.5 1.8 0
v -0.5 2.4 0
v -0.4 1.5 0
v -0.4 1.6 0
v -0.4 2.4 0
v -0.4 2.5 0
v 1.4 1.5 0
v 1.4 1.6 0
v 1.4 2.4 0
v 1.4 2.5 0
v 1.5 1.6 0
v 1.5 1.8 0
v 1.5 2.4 0
v -0.5 1.6 -0.1
v -0.5 1.8 -0.1
v -0.5 2.4 -0.1
v -0.4 1.5 -0.1
v -0.4 1.6 -0.1
v -0.4 2.4 -0.1
v -0.4 2.5 -0.1
v 1.4 1.5 -0.1
v 1.4 1.6 -0.1
v 1.4 2.4 -0.1
v 1.4 2.5 -0.1
v 1.5 1.6 -0.1
v 1.5 1.8 -0.1
v 1.5 2.4 -0.1
v -0.4 1.5 0
v 1.4 1.5 0
v -0.4 1.5 -0.1
v 1.4 1.5 -0.1
v -0.5 1.6 0
v -0.4 1.6 0
v 1.4 1.6 0
v 1.5 1.6 0
v -0.5 1.6 -0.1
v -0.4 1.6 -0.1
v 1.4 1.6 -0.1
v 1.5 1.6 -0.1
v -0.5 2.4 0
v -0.4 2.4 0
v 1.4 2.4 0
v 1.5 2.4 0
v -0.5 2.4 -0.1
v -0.4 2.4 -0.1
v 1.4 2.4 -0.1
v 1.5 2.4 -0.1
v -0.4 2.5 0
v 1.4 2.5 0
v -0.4 2.5 -0.1
v 1.4 2.5 -0.1

# faces
f 3/1/1 2/1/1 1/1/1
f 4/1/1 2/1/1 3/1/1
f 5/2/1 4/2/1 3/2/1
f 6/2/1 4/2/1 5/2/1
f 9/2/1 8/2/1 7/2/1
f 10/2/1 8/2/1 9/2/1
f 13/2/1 12/2/1 11/2/1
f 14/2/1 12/2/1 13/2/1
f 15/2/2 16/2/2 17/2/2
f 17/2/2 16/2/2 18/2/2
f 19/2/2 20/2/2 21/2/2
f 21/2/2 20/2/2 22/2/2
f 23/1/2 24/1/2 25/1/2
f 25/1/2 24/1/2 26/1/2
f 25/2/2 26/2/2 27/2/2
f 27/2/2 26/2/2 28/2/2
f 33/1/3 30/1/3 29/1/3
f 34/2/3 31/2/3 30/2/3
f 36/2/3 33/2/3 32/2/3
f 37/1/3 30/1/3 33/1/3
f 37/2/3 33/2/3 36/2/3
f 38/2/3 35/2/3 34/2/3
f 38/2/3 34/2/3 30/2/3
f 39/2/3 35/2/3 38/2/3
f 40/1/3 30/1/3 37/1/3
f 41/2/3 38/2/3 30/2/3
f 41/1/3 30/1/3 40/1/3
f 42/2/3 38/2/3 41/2/3
f 43/1/4 44/1/4 47/1/4
f 44/2/4 45/2/4 48/2/4
f 46/2/4 47/2/4 50/2/4
f 47/1/4 44/1/4 51/1/4
f 50/2/4 47/2/4 51/2/4
f 48/2/4 49/2/4 52/2/4
f 44/2/4 48/2/4 52/2/4
f 52/2/4 49/2/4 53/2/4
f 51/1/4 44/1/4 54/1/4
f 44/2/4 52/2/4 55/2/4
f 54/1/4 44/1/4 55/1/4
f 55/2/4 52/2/4 56/2/4
f 59/2/5 58/2/5 57/2/5
f 60/2/5 58/2/5 59/2/5
f 65/1/5 62/1/5 61/1/5
f 66/1/5 62/1/5 65/1/5
f 67/1/5 64/1/5 63/1/5
f 68/1/5 64/1/5 67/1/5
f 69/2/6 70/2/6 73/2/6
f 73/2/6 70/2/6 74/2/6
f 71/2/6 72/2/6 75/2/6
f 75/2/6 72/2/6 76/2/6
f 77/2/6 78/2/6 79/2/6
f 79/2/6 78/2/6 80/2/6
