# MagicaVoxel @ Ephtracy

# group
o 

# material
mtllib dangerSign.mtl
usemtl palette

# normals
vn -1 0 0
vn 1 0 0
vn 0 0 1
vn 0 0 -1
vn 0 -1 0
vn 0 1 0

# texcoords
vt 0.208984 0.5
vt 0.857422 0.5
vt 0.982422 0.5
vt 0.990234 0.5

# verts
v -1.8 0.6 0.2
v -1.8 0.6 0.1
v -1.8 0.6 -0.2
v -1.8 2.6 0.2
v -1.8 2.6 0.1
v -1.8 2.6 -0.2
v -0.2 -1 0.2
v -0.2 -1 -0.2
v -0.2 0.6 0.2
v -0.2 0.6 0.1
v -0.2 0.6 -0.2
v -1.19209e-07 -1 0.2
v -1.19209e-07 -1 -0.2
v -1.19209e-07 0.6 0.2
v -1.19209e-07 0.6 0.1
v -1.19209e-07 0.6 -0.2
v 1.6 0.6 0.2
v 1.6 0.6 0.1
v 1.6 0.6 -0.2
v 1.6 2.6 0.2
v 1.6 2.6 0.1
v 1.6 2.6 -0.2
v -1.8 0.6 0.2
v -1.8 2.6 0.2
v -1.4 1 0.2
v -1.4 1.2 0.2
v -1.2 0.8 0.2
v -1.2 1 0.2
v -1.2 1.2 0.2
v -1.2 1.4 0.2
v -1 1.2 0.2
v -1 1.4 0.2
v -1 1.6 0.2
v -0.8 1.4 0.2
v -0.8 1.6 0.2
v -0.8 1.8 0.2
v -0.6 1.6 0.2
v -0.6 1.8 0.2
v -0.6 2 0.2
v -0.4 1.8 0.2
v -0.4 2 0.2
v -0.4 2.2 0.2
v -0.2 -1 0.2
v -0.2 0.6 0.2
v -0.2 1.1 0.2
v -0.2 1.3 0.2
v -0.2 1.5 0.2
v -0.2 1.9 0.2
v -0.2 2 0.2
v -0.2 2.2 0.2
v -0.2 2.4 0.2
v -1.19209e-07 -1 0.2
v -1.19209e-07 0.6 0.2
v -1.19209e-07 1.1 0.2
v -1.19209e-07 1.3 0.2
v -1.19209e-07 1.5 0.2
v -1.19209e-07 1.9 0.2
v -1.19209e-07 2 0.2
v -1.19209e-07 2.2 0.2
v -1.19209e-07 2.4 0.2
v 0.2 1.8 0.2
v 0.2 2 0.2
v 0.2 2.2 0.2
v 0.4 1.6 0.2
v 0.4 1.8 0.2
v 0.4 2 0.2
v 0.6 1.4 0.2
v 0.6 1.6 0.2
v 0.6 1.8 0.2
v 0.8 1.2 0.2
v 0.8 1.4 0.2
v 0.8 1.6 0.2
v 1 0.8 0.2
v 1 1 0.2
v 1 1.2 0.2
v 1 1.4 0.2
v 1.2 1 0.2
v 1.2 1.2 0.2
v 1.6 0.6 0.2
v 1.6 2.6 0.2
v -1.8 0.6 -0.2
v -1.8 2.6 -0.2
v -0.2 -1 -0.2
v -0.2 0.6 -0.2
v -1.19209e-07 -1 -0.2
v -1.19209e-07 0.6 -0.2
v 1.6 0.6 -0.2
v 1.6 2.6 -0.2
v -0.2 -1 0.2
v -1.19209e-07 -1 0.2
v -0.2 -1 -0.2
v -1.19209e-07 -1 -0.2
v -1.8 0.6 0.2
v -0.2 0.6 0.2
v -1.19209e-07 0.6 0.2
v 1.6 0.6 0.2
v -1.8 0.6 0.1
v -0.2 0.6 0.1
v -1.19209e-07 0.6 0.1
v 1.6 0.6 0.1
v -1.8 0.6 -0.2
v -0.2 0.6 -0.2
v -1.19209e-07 0.6 -0.2
v 1.6 0.6 -0.2
v -1.8 2.6 0.2
v 1.6 2.6 0.2
v -1.8 2.6 0.1
v 1.6 2.6 0.1
v -1.8 2.6 -0.2
v 1.6 2.6 -0.2

# faces
f 4/1/1 2/1/1 1/1/1
f 5/4/1 3/4/1 2/4/1
f 5/1/1 2/1/1 4/1/1
f 6/4/1 3/4/1 5/4/1
f 9/3/1 8/3/1 7/3/1
f 10/3/1 8/3/1 9/3/1
f 11/3/1 8/3/1 10/3/1
f 12/3/2 13/3/2 14/3/2
f 14/3/2 13/3/2 15/3/2
f 15/3/2 13/3/2 16/3/2
f 17/1/2 18/1/2 20/1/2
f 18/4/2 19/4/2 21/4/2
f 20/1/2 18/1/2 21/1/2
f 21/4/2 19/4/2 22/4/2
f 25/1/3 24/1/3 23/1/3
f 26/1/3 24/1/3 25/1/3
f 27/1/3 25/1/3 23/1/3
f 28/2/3 26/2/3 25/2/3
f 28/1/3 25/1/3 27/1/3
f 29/1/3 24/1/3 26/1/3
f 29/2/3 26/2/3 28/2/3
f 30/1/3 24/1/3 29/1/3
f 31/1/3 29/1/3 28/1/3
f 31/2/3 30/2/3 29/2/3
f 32/1/3 24/1/3 30/1/3
f 32/2/3 30/2/3 31/2/3
f 33/1/3 24/1/3 32/1/3
f 34/1/3 32/1/3 31/1/3
f 34/2/3 33/2/3 32/2/3
f 35/1/3 24/1/3 33/1/3
f 35/2/3 33/2/3 34/2/3
f 36/1/3 24/1/3 35/1/3
f 37/1/3 35/1/3 34/1/3
f 37/2/3 36/2/3 35/2/3
f 38/1/3 24/1/3 36/1/3
f 38/2/3 36/2/3 37/2/3
f 39/1/3 24/1/3 38/1/3
f 40/1/3 38/1/3 37/1/3
f 40/2/3 39/2/3 38/2/3
f 41/1/3 24/1/3 39/1/3
f 41/2/3 39/2/3 40/2/3
f 42/1/3 24/1/3 41/1/3
f 44/1/3 27/1/3 23/1/3
f 45/1/3 31/1/3 28/1/3
f 45/1/3 34/1/3 31/1/3
f 45/1/3 37/1/3 34/1/3
f 45/1/3 40/1/3 37/1/3
f 45/1/3 41/1/3 40/1/3
f 46/1/3 41/1/3 45/1/3
f 47/1/3 41/1/3 46/1/3
f 48/1/3 41/1/3 47/1/3
f 49/2/3 42/2/3 41/2/3
f 49/1/3 41/1/3 48/1/3
f 50/1/3 24/1/3 42/1/3
f 50/2/3 42/2/3 49/2/3
f 51/1/3 24/1/3 50/1/3
f 52/3/3 44/3/3 43/3/3
f 53/1/3 27/1/3 44/1/3
f 53/3/3 44/3/3 52/3/3
f 54/1/3 45/1/3 28/1/3
f 54/2/3 46/2/3 45/2/3
f 55/1/3 47/1/3 46/1/3
f 55/2/3 46/2/3 54/2/3
f 56/2/3 48/2/3 47/2/3
f 56/1/3 47/1/3 55/1/3
f 57/1/3 49/1/3 48/1/3
f 57/2/3 48/2/3 56/2/3
f 57/1/3 50/1/3 49/1/3
f 58/1/3 50/1/3 57/1/3
f 59/2/3 51/2/3 50/2/3
f 59/1/3 50/1/3 58/1/3
f 60/1/3 24/1/3 51/1/3
f 60/2/3 51/2/3 59/2/3
f 61/1/3 56/1/3 55/1/3
f 61/1/3 55/1/3 54/1/3
f 61/1/3 57/1/3 56/1/3
f 61/1/3 58/1/3 57/1/3
f 62/2/3 59/2/3 58/2/3
f 62/1/3 58/1/3 61/1/3
f 63/1/3 60/1/3 59/1/3
f 63/2/3 59/2/3 62/2/3
f 64/1/3 61/1/3 54/1/3
f 65/2/3 62/2/3 61/2/3
f 65/1/3 61/1/3 64/1/3
f 66/1/3 63/1/3 62/1/3
f 66/2/3 62/2/3 65/2/3
f 67/1/3 64/1/3 54/1/3
f 68/2/3 65/2/3 64/2/3
f 68/1/3 64/1/3 67/1/3
f 69/1/3 66/1/3 65/1/3
f 69/2/3 65/2/3 68/2/3
f 70/1/3 67/1/3 54/1/3
f 71/2/3 68/2/3 67/2/3
f 71/1/3 67/1/3 70/1/3
f 72/1/3 69/1/3 68/1/3
f 72/2/3 68/2/3 71/2/3
f 73/2/3 28/2/3 27/2/3
f 73/1/3 27/1/3 53/1/3
f 74/1/3 54/1/3 28/1/3
f 74/2/3 28/2/3 73/2/3
f 74/1/3 70/1/3 54/1/3
f 75/2/3 71/2/3 70/2/3
f 75/1/3 70/1/3 74/1/3
f 76/1/3 72/1/3 71/1/3
f 76/2/3 71/2/3 75/2/3
f 77/2/3 75/2/3 74/2/3
f 77/1/3 74/1/3 73/1/3
f 78/1/3 76/1/3 75/1/3
f 78/2/3 75/2/3 77/2/3
f 79/1/3 73/1/3 53/1/3
f 79/1/3 77/1/3 73/1/3
f 79/1/3 78/1/3 77/1/3
f 80/1/3 69/1/3 72/1/3
f 80/1/3 78/1/3 79/1/3
f 80/1/3 24/1/3 60/1/3
f 80/1/3 66/1/3 69/1/3
f 80/1/3 76/1/3 78/1/3
f 80/1/3 72/1/3 76/1/3
f 80/1/3 63/1/3 66/1/3
f 80/1/3 60/1/3 63/1/3
f 81/4/4 82/4/4 84/4/4
f 83/3/4 84/3/4 85/3/4
f 84/4/4 82/4/4 86/4/4
f 85/3/4 84/3/4 86/3/4
f 86/4/4 82/4/4 87/4/4
f 87/4/4 82/4/4 88/4/4
f 91/3/5 90/3/5 89/3/5
f 92/3/5 90/3/5 91/3/5
f 97/1/5 94/1/5 93/1/5
f 98/1/5 94/1/5 97/1/5
f 99/1/5 96/1/5 95/1/5
f 100/1/5 96/1/5 99/1/5
f 101/4/5 98/4/5 97/4/5
f 102/4/5 98/4/5 101/4/5
f 103/4/5 100/4/5 99/4/5
f 104/4/5 100/4/5 103/4/5
f 105/1/6 106/1/6 107/1/6
f 107/1/6 106/1/6 108/1/6
f 107/4/6 108/4/6 109/4/6
f 109/4/6 108/4/6 110/4/6
