# MagicaVoxel @ Ephtracy

# group
o 

# material
mtllib fuse.mtl
usemtl palette

# normals
vn -1 0 0
vn 1 0 0
vn 0 0 1
vn 0 0 -1
vn 0 -1 0
vn 0 1 0

# texcoords
vt 0.982422 0.5
vt 0.986328 0.5
vt 0.990234 0.5
vt 0.994141 0.5

# verts
v -2 0.1 0.5
v -2 0.1 -0.5
v -2 4.1 0.5
v -2 4.1 -0.5
v -1.4 1 0.1
v -1.4 1 -0.1
v -1.4 1.6 0.1
v -1.4 1.6 -0.1
v -1.4 2.7 0.1
v -1.4 2.7 -0.1
v -1.4 3.3 0.1
v -1.4 3.3 -0.1
v -1.2 0.8 0.1
v -1.2 0.8 -0.1
v -1.2 1 0.1
v -1.2 1 -0.1
v -1.2 1.1 0.3
v -1.2 1.1 0.1
v -1.2 1.5 0.3
v -1.2 1.5 0.1
v -1.2 1.6 0.1
v -1.2 1.6 -0.1
v -1.2 1.8 0.1
v -1.2 1.8 -0.1
v -1.2 2.5 0.1
v -1.2 2.5 -0.1
v -1.2 2.7 0.1
v -1.2 2.7 -0.1
v -1.2 2.8 0.3
v -1.2 2.8 0.1
v -1.2 3.2 0.3
v -1.2 3.2 0.1
v -1.2 3.3 0.1
v -1.2 3.3 -0.1
v -1.2 3.5 0.1
v -1.2 3.5 -0.1
v -1.1 1 0.3
v -1.1 1 0.1
v -1.1 1 -0.1
v -1.1 1.1 0.3
v -1.1 1.1 -0.1
v -1.1 1.5 0.3
v -1.1 1.5 -0.1
v -1.1 1.6 0.3
v -1.1 1.6 0.1
v -1.1 1.6 -0.1
v -1.1 2.7 0.3
v -1.1 2.7 0.1
v -1.1 2.7 -0.1
v -1.1 2.8 0.3
v -1.1 2.8 -0.1
v -1.1 3.2 0.3
v -1.1 3.2 -0.1
v -1.1 3.3 0.3
v -1.1 3.3 0.1
v -1.1 3.3 -0.1
v -0.6 1 0.1
v -0.6 1 -0.1
v -0.6 1.1 0.1
v -0.6 1.1 -0.1
v -0.6 1.5 0.1
v -0.6 1.5 -0.1
v -0.6 1.6 0.1
v -0.6 1.6 -0.1
v -0.6 2.7 0.1
v -0.6 2.7 -0.1
v -0.6 2.8 0.1
v -0.6 2.8 -0.1
v -0.6 3.2 0.1
v -0.6 3.2 -0.1
v -0.6 3.3 0.1
v -0.6 3.3 -0.1
v 0.4 1.3 0.1
v 0.4 1.3 -0.1
v 0.4 1.4 0.2
v 0.4 1.4 0.1
v 0.4 1.4 0
v 0.4 1.4 -0.1
v 0.4 1.5 0.3
v 0.4 1.5 0.2
v 0.4 1.5 0.1
v 0.4 1.5 0
v 0.4 1.6 0.2
v 0.4 1.6 0.1
v 0.4 1.7 0.3
v 0.4 1.7 0.2
v 1 1.3 0.1
v 1 1.3 -0.1
v 1 1.4 0.2
v 1 1.4 0.1
v 1 1.4 0
v 1 1.4 -0.1
v 1 1.5 0.2
v 1 1.5 0.1
v 1 1.5 0
v 1 1.6 0.2
v 1 1.6 0.1
v 1.2 0.8 -0.1
v 1.2 0.8 -0.2
v 1.2 1.1 -0.1
v 1.2 1.1 -0.2
v 1.6 0.5 0.5
v 1.6 0.5 -0.1
v 1.6 3.7 0.5
v 1.6 3.7 -0.1
v -1.6 0.5 0.5
v -1.6 0.5 -0.1
v -1.6 3.7 0.5
v -1.6 3.7 -0.1
v -1.2 1 0.1
v -1.2 1 -0.1
v -1.2 1.1 0.1
v -1.2 1.1 -0.1
v -1.2 1.5 0.1
v -1.2 1.5 -0.1
v -1.2 1.6 0.1
v -1.2 1.6 -0.1
v -1.2 2.7 0.1
v -1.2 2.7 -0.1
v -1.2 2.8 0.1
v -1.2 2.8 -0.1
v -1.2 3.2 0.1
v -1.2 3.2 -0.1
v -1.2 3.3 0.1
v -1.2 3.3 -0.1
v -0.7 1 0.3
v -0.7 1 0.1
v -0.7 1 -0.1
v -0.7 1.1 0.3
v -0.7 1.1 -0.1
v -0.7 1.5 0.3
v -0.7 1.5 -0.1
v -0.7 1.6 0.3
v -0.7 1.6 0.1
v -0.7 1.6 -0.1
v -0.7 2.7 0.3
v -0.7 2.7 0.1
v -0.7 2.7 -0.1
v -0.7 2.8 0.3
v -0.7 2.8 -0.1
v -0.7 3.2 0.3
v -0.7 3.2 -0.1
v -0.7 3.3 0.3
v -0.7 3.3 0.1
v -0.7 3.3 -0.1
v -0.6 0.8 0.1
v -0.6 0.8 -0.1
v -0.6 1 0.1
v -0.6 1 -0.1
v -0.6 1.1 0.3
v -0.6 1.1 0.1
v -0.6 1.5 0.3
v -0.6 1.5 0.1
v -0.6 1.6 0.1
v -0.6 1.6 -0.1
v -0.6 1.8 0.1
v -0.6 1.8 -0.1
v -0.6 2.5 0.1
v -0.6 2.5 -0.1
v -0.6 2.7 0.1
v -0.6 2.7 -0.1
v -0.6 2.8 0.3
v -0.6 2.8 0.1
v -0.6 3.2 0.3
v -0.6 3.2 0.1
v -0.6 3.3 0.1
v -0.6 3.3 -0.1
v -0.6 3.5 0.1
v -0.6 3.5 -0.1
v -0.4 1 0.1
v -0.4 1 -0.1
v -0.4 1.6 0.1
v -0.4 1.6 -0.1
v -0.4 2.7 0.1
v -0.4 2.7 -0.1
v -0.4 3.3 0.1
v -0.4 3.3 -0.1
v 0.4 0.8 -0.1
v 0.4 0.8 -0.2
v 0.4 1.1 -0.1
v 0.4 1.1 -0.2
v 0.6 1.3 0.1
v 0.6 1.3 -0.1
v 0.6 1.4 0.2
v 0.6 1.4 0.1
v 0.6 1.4 0
v 0.6 1.4 -0.1
v 0.6 1.5 0.2
v 0.6 1.5 0.1
v 0.6 1.5 0
v 0.6 1.6 0.2
v 0.6 1.6 0.1
v 1.2 1.3 0.1
v 1.2 1.3 -0.1
v 1.2 1.4 0.2
v 1.2 1.4 0.1
v 1.2 1.4 0
v 1.2 1.4 -0.1
v 1.2 1.5 0.3
v 1.2 1.5 0.2
v 1.2 1.5 0.1
v 1.2 1.5 0
v 1.2 1.6 0.2
v 1.2 1.6 0.1
v 1.2 1.7 0.3
v 1.2 1.7 0.2
v 2 0.1 0.5
v 2 0.1 -0.5
v 2 4.1 0.5
v 2 4.1 -0.5
v -2 0.1 0.5
v -2 4.1 0.5
v -1.6 0.5 0.5
v -1.6 3.7 0.5
v 1.6 0.5 0.5
v 1.6 3.7 0.5
v 2 0.1 0.5
v 2 4.1 0.5
v -1.2 1.1 0.3
v -1.2 1.5 0.3
v -1.2 2.8 0.3
v -1.2 3.2 0.3
v -1.1 1 0.3
v -1.1 1.1 0.3
v -1.1 1.5 0.3
v -1.1 1.6 0.3
v -1.1 2.7 0.3
v -1.1 2.8 0.3
v -1.1 3.2 0.3
v -1.1 3.3 0.3
v -0.7 1 0.3
v -0.7 1.1 0.3
v -0.7 1.5 0.3
v -0.7 1.6 0.3
v -0.7 2.7 0.3
v -0.7 2.8 0.3
v -0.7 3.2 0.3
v -0.7 3.3 0.3
v -0.6 1.1 0.3
v -0.6 1.5 0.3
v -0.6 2.8 0.3
v -0.6 3.2 0.3
v 0.4 1.5 0.3
v 0.4 1.7 0.3
v 1.2 1.5 0.3
v 1.2 1.7 0.3
v 0.4 1.4 0.2
v 0.4 1.5 0.2
v 0.6 1.4 0.2
v 0.6 1.5 0.2
v 1 1.4 0.2
v 1 1.5 0.2
v 1.2 1.4 0.2
v 1.2 1.5 0.2
v -1.4 1 0.1
v -1.4 1.6 0.1
v -1.4 2.7 0.1
v -1.4 3.3 0.1
v -1.2 0.8 0.1
v -1.2 1 0.1
v -1.2 1.1 0.1
v -1.2 1.5 0.1
v -1.2 1.6 0.1
v -1.2 1.8 0.1
v -1.2 2.5 0.1
v -1.2 2.7 0.1
v -1.2 2.8 0.1
v -1.2 3.2 0.1
v -1.2 3.3 0.1
v -1.2 3.5 0.1
v -1.1 1 0.1
v -1.1 1.6 0.1
v -1.1 2.7 0.1
v -1.1 3.3 0.1
v -0.7 1 0.1
v -0.7 1.6 0.1
v -0.7 2.7 0.1
v -0.7 3.3 0.1
v -0.6 0.8 0.1
v -0.6 1 0.1
v -0.6 1.1 0.1
v -0.6 1.5 0.1
v -0.6 1.6 0.1
v -0.6 1.8 0.1
v -0.6 2.5 0.1
v -0.6 2.7 0.1
v -0.6 2.8 0.1
v -0.6 3.2 0.1
v -0.6 3.3 0.1
v -0.6 3.5 0.1
v -0.4 1 0.1
v -0.4 1.6 0.1
v -0.4 2.7 0.1
v -0.4 3.3 0.1
v 0.4 1.3 0.1
v 0.4 1.4 0.1
v 0.6 1.3 0.1
v 0.6 1.4 0.1
v 1 1.3 0.1
v 1 1.4 0.1
v 1.2 1.3 0.1
v 1.2 1.4 0.1
v -1.6 0.5 -0.1
v -1.6 3.7 -0.1
v -1.4 1 -0.1
v -1.4 1.6 -0.1
v -1.4 2.7 -0.1
v -1.4 3.3 -0.1
v -1.2 0.8 -0.1
v -1.2 1 -0.1
v -1.2 1.1 -0.1
v -1.2 1.5 -0.1
v -1.2 1.6 -0.1
v -1.2 1.8 -0.1
v -1.2 2.5 -0.1
v -1.2 2.7 -0.1
v -1.2 2.8 -0.1
v -1.2 3.2 -0.1
v -1.2 3.3 -0.1
v -1.2 3.5 -0.1
v -1.1 1 -0.1
v -1.1 1.1 -0.1
v -1.1 1.5 -0.1
v -1.1 1.6 -0.1
v -1.1 2.7 -0.1
v -1.1 2.8 -0.1
v -1.1 3.2 -0.1
v -1.1 3.3 -0.1
v -0.7 1 -0.1
v -0.7 1.1 -0.1
v -0.7 1.5 -0.1
v -0.7 1.6 -0.1
v -0.7 2.7 -0.1
v -0.7 2.8 -0.1
v -0.7 3.2 -0.1
v -0.7 3.3 -0.1
v -0.6 0.8 -0.1
v -0.6 1 -0.1
v -0.6 1.1 -0.1
v -0.6 1.5 -0.1
v -0.6 1.6 -0.1
v -0.6 1.8 -0.1
v -0.6 2.5 -0.1
v -0.6 2.7 -0.1
v -0.6 2.8 -0.1
v -0.6 3.2 -0.1
v -0.6 3.3 -0.1
v -0.6 3.5 -0.1
v -0.4 1 -0.1
v -0.4 1.6 -0.1
v -0.4 2.7 -0.1
v -0.4 3.3 -0.1
v 0.4 0.8 -0.1
v 0.4 1.1 -0.1
v 0.4 1.3 -0.1
v 0.4 1.4 -0.1
v 0.6 1.3 -0.1
v 0.6 1.4 -0.1
v 1 1.3 -0.1
v 1 1.4 -0.1
v 1.2 0.8 -0.1
v 1.2 1.1 -0.1
v 1.2 1.3 -0.1
v 1.2 1.4 -0.1
v 1.6 0.5 -0.1
v 1.6 3.7 -0.1
v 0.4 0.8 -0.2
v 0.4 1.1 -0.2
v 1.2 0.8 -0.2
v 1.2 1.1 -0.2
v 0.4 1.6 0.2
v 0.4 1.7 0.2
v 0.6 1.5 0.2
v 0.6 1.6 0.2
v 1 1.5 0.2
v 1 1.6 0.2
v 1.2 1.6 0.2
v 1.2 1.7 0.2
v 0.4 1.5 0.1
v 0.4 1.6 0.1
v 0.6 1.5 0.1
v 0.6 1.6 0.1
v 1 1.5 0.1
v 1 1.6 0.1
v 1.2 1.5 0.1
v 1.2 1.6 0.1
v 0.4 1.4 0
v 0.4 1.5 0
v 0.6 1.4 0
v 0.6 1.5 0
v 1 1.4 0
v 1 1.5 0
v 1.2 1.4 0
v 1.2 1.5 0
v -2 0.1 -0.5
v -2 4.1 -0.5
v 2 0.1 -0.5
v 2 4.1 -0.5
v -2 0.1 0.5
v 2 0.1 0.5
v -2 0.1 -0.5
v 2 0.1 -0.5
v -1.2 0.8 0.1
v -0.6 0.8 0.1
v -1.2 0.8 -0.1
v -0.6 0.8 -0.1
v -1.1 1 0.3
v -0.7 1 0.3
v -1.4 1 0.1
v -1.2 1 0.1
v -1.1 1 0.1
v -0.7 1 0.1
v -0.6 1 0.1
v -0.4 1 0.1
v -1.4 1 -0.1
v -1.2 1 -0.1
v -0.6 1 -0.1
v -0.4 1 -0.1
v -1.2 1.1 0.3
v -1.1 1.1 0.3
v -0.7 1.1 0.3
v -0.6 1.1 0.3
v -1.2 1.1 0.1
v -0.6 1.1 0.1
v -1.2 1.1 -0.1
v -1.1 1.1 -0.1
v -0.7 1.1 -0.1
v -0.6 1.1 -0.1
v 0.4 1.1 -0.1
v 1.2 1.1 -0.1
v 0.4 1.1 -0.2
v 1.2 1.1 -0.2
v 0.4 1.3 0.1
v 0.6 1.3 0.1
v 1 1.3 0.1
v 1.2 1.3 0.1
v 0.4 1.3 -0.1
v 0.6 1.3 -0.1
v 1 1.3 -0.1
v 1.2 1.3 -0.1
v 0.4 1.4 0.2
v 0.6 1.4 0.2
v 1 1.4 0.2
v 1.2 1.4 0.2
v 0.4 1.4 0.1
v 0.6 1.4 0.1
v 1 1.4 0.1
v 1.2 1.4 0.1
v 0.4 1.5 0.3
v 1.2 1.5 0.3
v 0.4 1.5 0.2
v 0.6 1.5 0.2
v 1 1.5 0.2
v 1.2 1.5 0.2
v -1.2 1.6 0.1
v -1.1 1.6 0.1
v -0.7 1.6 0.1
v -0.6 1.6 0.1
v -1.2 1.6 -0.1
v -1.1 1.6 -0.1
v -0.7 1.6 -0.1
v -0.6 1.6 -0.1
v -1.2 2.5 0.1
v -0.6 2.5 0.1
v -1.2 2.5 -0.1
v -0.6 2.5 -0.1
v -1.1 2.7 0.3
v -0.7 2.7 0.3
v -1.4 2.7 0.1
v -1.2 2.7 0.1
v -1.1 2.7 0.1
v -0.7 2.7 0.1
v -0.6 2.7 0.1
v -0.4 2.7 0.1
v -1.4 2.7 -0.1
v -1.2 2.7 -0.1
v -0.6 2.7 -0.1
v -0.4 2.7 -0.1
v -1.2 2.8 0.3
v -1.1 2.8 0.3
v -0.7 2.8 0.3
v -0.6 2.8 0.3
v -1.2 2.8 0.1
v -0.6 2.8 0.1
v -1.2 2.8 -0.1
v -1.1 2.8 -0.1
v -0.7 2.8 -0.1
v -0.6 2.8 -0.1
v -1.2 3.3 0.1
v -1.1 3.3 0.1
v -0.7 3.3 0.1
v -0.6 3.3 0.1
v -1.2 3.3 -0.1
v -1.1 3.3 -0.1
v -0.7 3.3 -0.1
v -0.6 3.3 -0.1
v -1.6 3.7 0.5
v 1.6 3.7 0.5
v -1.6 3.7 -0.1
v 1.6 3.7 -0.1
v -1.6 0.5 0.5
v 1.6 0.5 0.5
v -1.6 0.5 -0.1
v 1.6 0.5 -0.1
v 0.4 0.8 -0.1
v 1.2 0.8 -0.1
v 0.4 0.8 -0.2
v 1.2 0.8 -0.2
v -1.2 1 0.1
v -1.1 1 0.1
v -0.7 1 0.1
v -0.6 1 0.1
v -1.2 1 -0.1
v -1.1 1 -0.1
v -0.7 1 -0.1
v -0.6 1 -0.1
v 0.4 1.4 0
v 0.6 1.4 0
v 1 1.4 0
v 1.2 1.4 0
v 0.4 1.4 -0.1
v 0.6 1.4 -0.1
v 1 1.4 -0.1
v 1.2 1.4 -0.1
v -1.2 1.5 0.3
v -1.1 1.5 0.3
v -0.7 1.5 0.3
v -0.6 1.5 0.3
v -1.2 1.5 0.1
v -0.6 1.5 0.1
v 0.4 1.5 0.1
v 0.6 1.5 0.1
v 1 1.5 0.1
v 1.2 1.5 0.1
v 0.4 1.5 0
v 0.6 1.5 0
v 1 1.5 0
v 1.2 1.5 0
v -1.2 1.5 -0.1
v -1.1 1.5 -0.1
v -0.7 1.5 -0.1
v -0.6 1.5 -0.1
v -1.1 1.6 0.3
v -0.7 1.6 0.3
v 0.4 1.6 0.2
v 0.6 1.6 0.2
v 1 1.6 0.2
v 1.2 1.6 0.2
v -1.4 1.6 0.1
v -1.2 1.6 0.1
v -1.1 1.6 0.1
v -0.7 1.6 0.1
v -0.6 1.6 0.1
v -0.4 1.6 0.1
v 0.4 1.6 0.1
v 0.6 1.6 0.1
v 1 1.6 0.1
v 1.2 1.6 0.1
v -1.4 1.6 -0.1
v -1.2 1.6 -0.1
v -0.6 1.6 -0.1
v -0.4 1.6 -0.1
v 0.4 1.7 0.3
v 1.2 1.7 0.3
v 0.4 1.7 0.2
v 1.2 1.7 0.2
v -1.2 1.8 0.1
v -0.6 1.8 0.1
v -1.2 1.8 -0.1
v -0.6 1.8 -0.1
v -1.2 2.7 0.1
v -1.1 2.7 0.1
v -0.7 2.7 0.1
v -0.6 2.7 0.1
v -1.2 2.7 -0.1
v -1.1 2.7 -0.1
v -0.7 2.7 -0.1
v -0.6 2.7 -0.1
v -1.2 3.2 0.3
v -1.1 3.2 0.3
v -0.7 3.2 0.3
v -0.6 3.2 0.3
v -1.2 3.2 0.1
v -0.6 3.2 0.1
v -1.2 3.2 -0.1
v -1.1 3.2 -0.1
v -0.7 3.2 -0.1
v -0.6 3.2 -0.1
v -1.1 3.3 0.3
v -0.7 3.3 0.3
v -1.4 3.3 0.1
v -1.2 3.3 0.1
v -1.1 3.3 0.1
v -0.7 3.3 0.1
v -0.6 3.3 0.1
v -0.4 3.3 0.1
v -1.4 3.3 -0.1
v -1.2 3.3 -0.1
v -0.6 3.3 -0.1
v -0.4 3.3 -0.1
v -1.2 3.5 0.1
v -0.6 3.5 0.1
v -1.2 3.5 -0.1
v -0.6 3.5 -0.1
v -2 4.1 0.5
v 2 4.1 0.5
v -2 4.1 -0.5
v 2 4.1 -0.5

# faces
f 3/1/1 2/1/1 1/1/1
f 4/1/1 2/1/1 3/1/1
f 7/2/1 6/2/1 5/2/1
f 8/2/1 6/2/1 7/2/1
f 11/2/1 10/2/1 9/2/1
f 12/2/1 10/2/1 11/2/1
f 15/2/1 14/2/1 13/2/1
f 16/2/1 14/2/1 15/2/1
f 19/4/1 18/4/1 17/4/1
f 20/4/1 18/4/1 19/4/1
f 23/2/1 22/2/1 21/2/1
f 24/2/1 22/2/1 23/2/1
f 27/2/1 26/2/1 25/2/1
f 28/2/1 26/2/1 27/2/1
f 31/4/1 30/4/1 29/4/1
f 32/4/1 30/4/1 31/4/1
f 35/2/1 34/2/1 33/2/1
f 36/2/1 34/2/1 35/2/1
f 40/4/1 38/4/1 37/4/1
f 40/4/1 39/4/1 38/4/1
f 41/4/1 39/4/1 40/4/1
f 44/4/1 43/4/1 42/4/1
f 45/4/1 43/4/1 44/4/1
f 46/4/1 43/4/1 45/4/1
f 50/4/1 48/4/1 47/4/1
f 50/4/1 49/4/1 48/4/1
f 51/4/1 49/4/1 50/4/1
f 54/4/1 53/4/1 52/4/1
f 55/4/1 53/4/1 54/4/1
f 56/4/1 53/4/1 55/4/1
f 59/2/1 58/2/1 57/2/1
f 60/2/1 58/2/1 59/2/1
f 63/2/1 62/2/1 61/2/1
f 64/2/1 62/2/1 63/2/1
f 67/2/1 66/2/1 65/2/1
f 68/2/1 66/2/1 67/2/1
f 71/2/1 70/2/1 69/2/1
f 72/2/1 70/2/1 71/2/1
f 76/2/1 74/2/1 73/2/1
f 77/2/1 74/2/1 76/2/1
f 78/2/1 74/2/1 77/2/1
f 80/2/1 76/2/1 75/2/1
f 80/2/1 77/2/1 76/2/1
f 81/2/1 77/2/1 80/2/1
f 82/2/1 77/2/1 81/2/1
f 83/3/1 80/3/1 79/3/1
f 83/2/1 81/2/1 80/2/1
f 84/2/1 81/2/1 83/2/1
f 85/3/1 83/3/1 79/3/1
f 86/3/1 83/3/1 85/3/1
f 90/2/1 88/2/1 87/2/1
f 91/2/1 88/2/1 90/2/1
f 92/2/1 88/2/1 91/2/1
f 93/2/1 90/2/1 89/2/1
f 93/2/1 91/2/1 90/2/1
f 94/2/1 91/2/1 93/2/1
f 95/2/1 91/2/1 94/2/1
f 96/2/1 94/2/1 93/2/1
f 97/2/1 94/2/1 96/2/1
f 100/1/1 99/1/1 98/1/1
f 101/1/1 99/1/1 100/1/1
f 104/1/1 103/1/1 102/1/1
f 105/1/1 103/1/1 104/1/1
f 106/1/2 107/1/2 108/1/2
f 108/1/2 107/1/2 109/1/2
f 110/2/2 111/2/2 112/2/2
f 112/2/2 111/2/2 113/2/2
f 114/2/2 115/2/2 116/2/2
f 116/2/2 115/2/2 117/2/2
f 118/2/2 119/2/2 120/2/2
f 120/2/2 119/2/2 121/2/2
f 122/2/2 123/2/2 124/2/2
f 124/2/2 123/2/2 125/2/2
f 126/4/2 127/4/2 129/4/2
f 127/4/2 128/4/2 129/4/2
f 129/4/2 128/4/2 130/4/2
f 131/4/2 132/4/2 133/4/2
f 133/4/2 132/4/2 134/4/2
f 134/4/2 132/4/2 135/4/2
f 136/4/2 137/4/2 139/4/2
f 137/4/2 138/4/2 139/4/2
f 139/4/2 138/4/2 140/4/2
f 141/4/2 142/4/2 143/4/2
f 143/4/2 142/4/2 144/4/2
f 144/4/2 142/4/2 145/4/2
f 146/2/2 147/2/2 148/2/2
f 148/2/2 147/2/2 149/2/2
f 150/4/2 151/4/2 152/4/2
f 152/4/2 151/4/2 153/4/2
f 154/2/2 155/2/2 156/2/2
f 156/2/2 155/2/2 157/2/2
f 158/2/2 159/2/2 160/2/2
f 160/2/2 159/2/2 161/2/2
f 162/4/2 163/4/2 164/4/2
f 164/4/2 163/4/2 165/4/2
f 166/2/2 167/2/2 168/2/2
f 168/2/2 167/2/2 169/2/2
f 170/2/2 171/2/2 172/2/2
f 172/2/2 171/2/2 173/2/2
f 174/2/2 175/2/2 176/2/2
f 176/2/2 175/2/2 177/2/2
f 178/1/2 179/1/2 180/1/2
f 180/1/2 179/1/2 181/1/2
f 182/2/2 183/2/2 185/2/2
f 185/2/2 183/2/2 186/2/2
f 186/2/2 183/2/2 187/2/2
f 184/2/2 185/2/2 188/2/2
f 185/2/2 186/2/2 188/2/2
f 188/2/2 186/2/2 189/2/2
f 189/2/2 186/2/2 190/2/2
f 188/2/2 189/2/2 191/2/2
f 191/2/2 189/2/2 192/2/2
f 193/2/2 194/2/2 196/2/2
f 196/2/2 194/2/2 197/2/2
f 197/2/2 194/2/2 198/2/2
f 195/2/2 196/2/2 200/2/2
f 196/2/2 197/2/2 200/2/2
f 200/2/2 197/2/2 201/2/2
f 201/2/2 197/2/2 202/2/2
f 199/3/2 200/3/2 203/3/2
f 200/2/2 201/2/2 203/2/2
f 203/2/2 201/2/2 204/2/2
f 199/3/2 203/3/2 205/3/2
f 205/3/2 203/3/2 206/3/2
f 207/1/2 208/1/2 209/1/2
f 209/1/2 208/1/2 210/1/2
f 213/1/3 212/1/3 211/1/3
f 214/1/3 212/1/3 213/1/3
f 215/1/3 213/1/3 211/1/3
f 216/1/3 212/1/3 214/1/3
f 217/1/3 215/1/3 211/1/3
f 217/1/3 216/1/3 215/1/3
f 218/1/3 212/1/3 216/1/3
f 218/1/3 216/1/3 217/1/3
f 224/4/3 220/4/3 219/4/3
f 225/4/3 220/4/3 224/4/3
f 228/4/3 222/4/3 221/4/3
f 229/4/3 222/4/3 228/4/3
f 231/4/3 226/4/3 225/4/3
f 231/4/3 224/4/3 223/4/3
f 231/4/3 225/4/3 224/4/3
f 232/4/3 226/4/3 231/4/3
f 233/4/3 226/4/3 232/4/3
f 234/4/3 226/4/3 233/4/3
f 235/4/3 230/4/3 229/4/3
f 235/4/3 229/4/3 228/4/3
f 235/4/3 228/4/3 227/4/3
f 236/4/3 230/4/3 235/4/3
f 237/4/3 230/4/3 236/4/3
f 238/4/3 230/4/3 237/4/3
f 239/4/3 233/4/3 232/4/3
f 240/4/3 233/4/3 239/4/3
f 241/4/3 237/4/3 236/4/3
f 242/4/3 237/4/3 241/4/3
f 245/3/3 244/3/3 243/3/3
f 246/3/3 244/3/3 245/3/3
f 249/2/3 248/2/3 247/2/3
f 250/2/3 248/2/3 249/2/3
f 253/2/3 252/2/3 251/2/3
f 254/2/3 252/2/3 253/2/3
f 260/2/3 256/2/3 255/2/3
f 261/2/3 256/2/3 260/2/3
f 262/2/3 256/2/3 261/2/3
f 263/2/3 256/2/3 262/2/3
f 266/2/3 258/2/3 257/2/3
f 267/2/3 258/2/3 266/2/3
f 268/2/3 258/2/3 267/2/3
f 269/2/3 258/2/3 268/2/3
f 271/2/3 260/2/3 259/2/3
f 272/2/3 264/2/3 263/2/3
f 273/2/3 266/2/3 265/2/3
f 274/2/3 270/2/3 269/2/3
f 275/2/3 271/2/3 259/2/3
f 276/2/3 264/2/3 272/2/3
f 277/2/3 273/2/3 265/2/3
f 278/2/3 270/2/3 274/2/3
f 279/2/3 275/2/3 259/2/3
f 280/2/3 275/2/3 279/2/3
f 283/2/3 264/2/3 276/2/3
f 284/2/3 264/2/3 283/2/3
f 285/2/3 277/2/3 265/2/3
f 286/2/3 277/2/3 285/2/3
f 289/2/3 270/2/3 278/2/3
f 290/2/3 270/2/3 289/2/3
f 291/2/3 282/2/3 281/2/3
f 291/2/3 281/2/3 280/2/3
f 291/2/3 283/2/3 282/2/3
f 292/2/3 283/2/3 291/2/3
f 293/2/3 289/2/3 288/2/3
f 293/2/3 288/2/3 287/2/3
f 293/2/3 287/2/3 286/2/3
f 294/2/3 289/2/3 293/2/3
f 297/2/3 296/2/3 295/2/3
f 298/2/3 296/2/3 297/2/3
f 301/2/3 300/2/3 299/2/3
f 302/2/3 300/2/3 301/2/3
f 305/1/3 304/1/3 303/1/3
f 306/1/3 304/1/3 305/1/3
f 307/1/3 304/1/3 306/1/3
f 308/1/3 304/1/3 307/1/3
f 309/1/3 305/1/3 303/1/3
f 310/1/3 305/1/3 309/1/3
f 313/1/3 307/1/3 306/1/3
f 314/1/3 307/1/3 313/1/3
f 315/1/3 307/1/3 314/1/3
f 316/1/3 307/1/3 315/1/3
f 319/1/3 304/1/3 308/1/3
f 320/1/3 304/1/3 319/1/3
f 321/1/3 311/1/3 310/1/3
f 322/1/3 311/1/3 321/1/3
f 323/1/3 313/1/3 312/1/3
f 324/1/3 313/1/3 323/1/3
f 325/1/3 317/1/3 316/1/3
f 326/1/3 317/1/3 325/1/3
f 327/1/3 319/1/3 318/1/3
f 328/1/3 319/1/3 327/1/3
f 337/1/3 309/1/3 303/1/3
f 338/1/3 330/1/3 329/1/3
f 339/1/3 330/1/3 338/1/3
f 340/1/3 332/1/3 331/1/3
f 341/1/3 332/1/3 340/1/3
f 342/1/3 315/1/3 314/1/3
f 343/1/3 315/1/3 342/1/3
f 344/1/3 334/1/3 333/1/3
f 345/1/3 334/1/3 344/1/3
f 346/1/3 336/1/3 335/1/3
f 347/1/3 336/1/3 346/1/3
f 348/1/3 304/1/3 320/1/3
f 349/1/3 338/1/3 337/1/3
f 350/1/3 344/1/3 343/1/3
f 350/1/3 343/1/3 342/1/3
f 350/1/3 342/1/3 341/1/3
f 351/1/3 344/1/3 350/1/3
f 352/1/3 348/1/3 347/1/3
f 353/1/3 351/1/3 350/1/3
f 353/1/3 352/1/3 351/1/3
f 353/1/3 337/1/3 303/1/3
f 353/1/3 349/1/3 337/1/3
f 353/1/3 350/1/3 349/1/3
f 354/1/3 352/1/3 353/1/3
f 355/1/3 352/1/3 354/1/3
f 356/1/3 352/1/3 355/1/3
f 357/1/3 355/1/3 354/1/3
f 358/1/3 352/1/3 356/1/3
f 359/1/3 357/1/3 354/1/3
f 359/1/3 358/1/3 357/1/3
f 360/1/3 352/1/3 358/1/3
f 360/1/3 358/1/3 359/1/3
f 361/1/3 353/1/3 303/1/3
f 362/1/3 359/1/3 354/1/3
f 363/1/3 359/1/3 362/1/3
f 364/1/3 352/1/3 360/1/3
f 365/1/3 363/1/3 362/1/3
f 365/1/3 364/1/3 363/1/3
f 365/1/3 361/1/3 303/1/3
f 365/1/3 362/1/3 361/1/3
f 366/1/3 348/1/3 352/1/3
f 366/1/3 364/1/3 365/1/3
f 366/1/3 304/1/3 348/1/3
f 366/1/3 352/1/3 364/1/3
f 369/1/3 368/1/3 367/1/3
f 370/1/3 368/1/3 369/1/3
f 371/3/4 372/3/4 374/3/4
f 373/3/4 374/3/4 375/3/4
f 374/3/4 372/3/4 376/3/4
f 375/3/4 374/3/4 376/3/4
f 376/3/4 372/3/4 377/3/4
f 377/3/4 372/3/4 378/3/4
f 379/2/4 380/2/4 381/2/4
f 381/2/4 380/2/4 382/2/4
f 383/2/4 384/2/4 385/2/4
f 385/2/4 384/2/4 386/2/4
f 387/2/4 388/2/4 389/2/4
f 389/2/4 388/2/4 390/2/4
f 391/2/4 392/2/4 393/2/4
f 393/2/4 392/2/4 394/2/4
f 395/1/4 396/1/4 397/1/4
f 397/1/4 396/1/4 398/1/4
f 401/1/5 400/1/5 399/1/5
f 402/1/5 400/1/5 401/1/5
f 405/2/5 404/2/5 403/2/5
f 406/2/5 404/2/5 405/2/5
f 411/4/5 408/4/5 407/4/5
f 412/4/5 408/4/5 411/4/5
f 415/2/5 410/2/5 409/2/5
f 416/2/5 410/2/5 415/2/5
f 417/2/5 414/2/5 413/2/5
f 418/2/5 414/2/5 417/2/5
f 423/4/5 420/4/5 419/4/5
f 424/4/5 422/4/5 421/4/5
f 425/4/5 420/4/5 423/4/5
f 426/4/5 420/4/5 425/4/5
f 427/4/5 424/4/5 421/4/5
f 428/4/5 424/4/5 427/4/5
f 431/1/5 430/1/5 429/1/5
f 432/1/5 430/1/5 431/1/5
f 437/2/5 434/2/5 433/2/5
f 438/2/5 434/2/5 437/2/5
f 439/2/5 436/2/5 435/2/5
f 440/2/5 436/2/5 439/2/5
f 445/2/5 442/2/5 441/2/5
f 446/2/5 442/2/5 445/2/5
f 447/2/5 444/2/5 443/2/5
f 448/2/5 444/2/5 447/2/5
f 451/3/5 450/3/5 449/3/5
f 452/3/5 450/3/5 451/3/5
f 453/3/5 450/3/5 452/3/5
f 454/3/5 450/3/5 453/3/5
f 459/2/5 456/2/5 455/2/5
f 460/2/5 456/2/5 459/2/5
f 461/2/5 458/2/5 457/2/5
f 462/2/5 458/2/5 461/2/5
f 465/2/5 464/2/5 463/2/5
f 466/2/5 464/2/5 465/2/5
f 471/4/5 468/4/5 467/4/5
f 472/4/5 468/4/5 471/4/5
f 475/2/5 470/2/5 469/2/5
f 476/2/5 470/2/5 475/2/5
f 477/2/5 474/2/5 473/2/5
f 478/2/5 474/2/5 477/2/5
f 483/4/5 480/4/5 479/4/5
f 484/4/5 482/4/5 481/4/5
f 485/4/5 480/4/5 483/4/5
f 486/4/5 480/4/5 485/4/5
f 487/4/5 484/4/5 481/4/5
f 488/4/5 484/4/5 487/4/5
f 493/2/5 490/2/5 489/2/5
f 494/2/5 490/2/5 493/2/5
f 495/2/5 492/2/5 491/2/5
f 496/2/5 492/2/5 495/2/5
f 499/1/5 498/1/5 497/1/5
f 500/1/5 498/1/5 499/1/5
f 501/1/6 502/1/6 503/1/6
f 503/1/6 502/1/6 504/1/6
f 505/1/6 506/1/6 507/1/6
f 507/1/6 506/1/6 508/1/6
f 509/2/6 510/2/6 513/2/6
f 513/2/6 510/2/6 514/2/6
f 511/2/6 512/2/6 515/2/6
f 515/2/6 512/2/6 516/2/6
f 517/2/6 518/2/6 521/2/6
f 521/2/6 518/2/6 522/2/6
f 519/2/6 520/2/6 523/2/6
f 523/2/6 520/2/6 524/2/6
f 525/4/6 526/4/6 529/4/6
f 527/4/6 528/4/6 530/4/6
f 531/2/6 532/2/6 535/2/6
f 535/2/6 532/2/6 536/2/6
f 533/2/6 534/2/6 537/2/6
f 537/2/6 534/2/6 538/2/6
f 529/4/6 526/4/6 539/4/6
f 539/4/6 526/4/6 540/4/6
f 527/4/6 530/4/6 541/4/6
f 541/4/6 530/4/6 542/4/6
f 543/4/6 544/4/6 551/4/6
f 551/4/6 544/4/6 552/4/6
f 545/2/6 546/2/6 555/2/6
f 555/2/6 546/2/6 556/2/6
f 547/2/6 548/2/6 557/2/6
f 557/2/6 548/2/6 558/2/6
f 549/2/6 550/2/6 559/2/6
f 559/2/6 550/2/6 560/2/6
f 553/2/6 554/2/6 561/2/6
f 561/2/6 554/2/6 562/2/6
f 563/3/6 564/3/6 565/3/6
f 565/3/6 564/3/6 566/3/6
f 567/2/6 568/2/6 569/2/6
f 569/2/6 568/2/6 570/2/6
f 571/2/6 572/2/6 575/2/6
f 575/2/6 572/2/6 576/2/6
f 573/2/6 574/2/6 577/2/6
f 577/2/6 574/2/6 578/2/6
f 579/4/6 580/4/6 583/4/6
f 581/4/6 582/4/6 584/4/6
f 583/4/6 580/4/6 585/4/6
f 585/4/6 580/4/6 586/4/6
f 581/4/6 584/4/6 587/4/6
f 587/4/6 584/4/6 588/4/6
f 589/4/6 590/4/6 593/4/6
f 593/4/6 590/4/6 594/4/6
f 591/2/6 592/2/6 597/2/6
f 597/2/6 592/2/6 598/2/6
f 595/2/6 596/2/6 599/2/6
f 599/2/6 596/2/6 600/2/6
f 601/2/6 602/2/6 603/2/6
f 603/2/6 602/2/6 604/2/6
f 605/1/6 606/1/6 607/1/6
f 607/1/6 606/1/6 608/1/6
