# MagicaVoxel @ Ephtracy

# group
o 

# material
mtllib ladder.mtl
usemtl palette

# normals
vn -1 0 0
vn 1 0 0
vn 0 0 1
vn 0 0 -1
vn 0 -1 0
vn 0 1 0

# texcoords
vt 0.986328 0.5
vt 0.990234 0.5

# verts
v -0.3 0 0
v -0.3 0 -0.1
v -0.3 1.2 0
v -0.3 1.2 -0.1
v 0.2 0 0
v 0.2 0 -0.1
v 0.2 0.1 0
v 0.2 0.1 -0.1
v 0.2 0.2 0
v 0.2 0.2 -0.1
v 0.2 0.4 0
v 0.2 0.4 -0.1
v 0.2 0.5 0
v 0.2 0.5 -0.1
v 0.2 0.7 0
v 0.2 0.7 -0.1
v 0.2 0.8 0
v 0.2 0.8 -0.1
v 0.2 1 0
v 0.2 1 -0.1
v 0.2 1.1 0
v 0.2 1.1 -0.1
v 0.2 1.2 0
v 0.2 1.2 -0.1
v -0.2 0 0
v -0.2 0 -0.1
v -0.2 0.1 0
v -0.2 0.1 -0.1
v -0.2 0.2 0
v -0.2 0.2 -0.1
v -0.2 0.4 0
v -0.2 0.4 -0.1
v -0.2 0.5 0
v -0.2 0.5 -0.1
v -0.2 0.7 0
v -0.2 0.7 -0.1
v -0.2 0.8 0
v -0.2 0.8 -0.1
v -0.2 1 0
v -0.2 1 -0.1
v -0.2 1.1 0
v -0.2 1.1 -0.1
v -0.2 1.2 0
v -0.2 1.2 -0.1
v 0.3 0 0
v 0.3 0 -0.1
v 0.3 1.2 0
v 0.3 1.2 -0.1
v -0.3 0 0
v -0.3 1.2 0
v -0.2 0 0
v -0.2 0.1 0
v -0.2 0.2 0
v -0.2 0.4 0
v -0.2 0.5 0
v -0.2 0.7 0
v -0.2 0.8 0
v -0.2 1 0
v -0.2 1.1 0
v -0.2 1.2 0
v 0.2 0 0
v 0.2 0.1 0
v 0.2 0.2 0
v 0.2 0.4 0
v 0.2 0.5 0
v 0.2 0.7 0
v 0.2 0.8 0
v 0.2 1 0
v 0.2 1.1 0
v 0.2 1.2 0
v 0.3 0 0
v 0.3 1.2 0
v -0.3 0 -0.1
v -0.3 1.2 -0.1
v -0.2 0 -0.1
v -0.2 0.1 -0.1
v -0.2 0.2 -0.1
v -0.2 0.4 -0.1
v -0.2 0.5 -0.1
v -0.2 0.7 -0.1
v -0.2 0.8 -0.1
v -0.2 1 -0.1
v -0.2 1.1 -0.1
v -0.2 1.2 -0.1
v 0.2 0 -0.1
v 0.2 0.1 -0.1
v 0.2 0.2 -0.1
v 0.2 0.4 -0.1
v 0.2 0.5 -0.1
v 0.2 0.7 -0.1
v 0.2 0.8 -0.1
v 0.2 1 -0.1
v 0.2 1.1 -0.1
v 0.2 1.2 -0.1
v 0.3 0 -0.1
v 0.3 1.2 -0.1
v -0.3 0 0
v -0.2 0 0
v 0.2 0 0
v 0.3 0 0
v -0.3 0 -0.1
v -0.2 0 -0.1
v 0.2 0 -0.1
v 0.3 0 -0.1
v -0.2 0.1 0
v 0.2 0.1 0
v -0.2 0.1 -0.1
v 0.2 0.1 -0.1
v -0.2 0.4 0
v 0.2 0.4 0
v -0.2 0.4 -0.1
v 0.2 0.4 -0.1
v -0.2 0.7 0
v 0.2 0.7 0
v -0.2 0.7 -0.1
v 0.2 0.7 -0.1
v -0.2 1 0
v 0.2 1 0
v -0.2 1 -0.1
v 0.2 1 -0.1
v -0.2 0.2 0
v 0.2 0.2 0
v -0.2 0.2 -0.1
v 0.2 0.2 -0.1
v -0.2 0.5 0
v 0.2 0.5 0
v -0.2 0.5 -0.1
v 0.2 0.5 -0.1
v -0.2 0.8 0
v 0.2 0.8 0
v -0.2 0.8 -0.1
v 0.2 0.8 -0.1
v -0.2 1.1 0
v 0.2 1.1 0
v -0.2 1.1 -0.1
v 0.2 1.1 -0.1
v -0.3 1.2 0
v -0.2 1.2 0
v 0.2 1.2 0
v 0.3 1.2 0
v -0.3 1.2 -0.1
v -0.2 1.2 -0.1
v 0.2 1.2 -0.1
v 0.3 1.2 -0.1

# faces
f 3/1/1 2/1/1 1/1/1
f 4/1/1 2/1/1 3/1/1
f 7/1/1 6/1/1 5/1/1
f 8/1/1 6/1/1 7/1/1
f 11/1/1 10/1/1 9/1/1
f 12/1/1 10/1/1 11/1/1
f 15/1/1 14/1/1 13/1/1
f 16/1/1 14/1/1 15/1/1
f 19/1/1 18/1/1 17/1/1
f 20/1/1 18/1/1 19/1/1
f 23/1/1 22/1/1 21/1/1
f 24/1/1 22/1/1 23/1/1
f 25/1/2 26/1/2 27/1/2
f 27/1/2 26/1/2 28/1/2
f 29/1/2 30/1/2 31/1/2
f 31/1/2 30/1/2 32/1/2
f 33/1/2 34/1/2 35/1/2
f 35/1/2 34/1/2 36/1/2
f 37/1/2 38/1/2 39/1/2
f 39/1/2 38/1/2 40/1/2
f 41/1/2 42/1/2 43/1/2
f 43/1/2 42/1/2 44/1/2
f 45/1/2 46/1/2 47/1/2
f 47/1/2 46/1/2 48/1/2
f 51/1/3 50/1/3 49/1/3
f 52/1/3 50/1/3 51/1/3
f 53/1/3 50/1/3 52/1/3
f 54/1/3 50/1/3 53/1/3
f 55/1/3 50/1/3 54/1/3
f 56/1/3 50/1/3 55/1/3
f 57/1/3 50/1/3 56/1/3
f 58/1/3 50/1/3 57/1/3
f 59/1/3 50/1/3 58/1/3
f 60/1/3 50/1/3 59/1/3
f 62/2/3 53/2/3 52/2/3
f 63/2/3 53/2/3 62/2/3
f 64/2/3 55/2/3 54/2/3
f 65/2/3 55/2/3 64/2/3
f 66/2/3 57/2/3 56/2/3
f 67/2/3 57/2/3 66/2/3
f 68/2/3 59/2/3 58/2/3
f 69/2/3 59/2/3 68/2/3
f 71/1/3 65/1/3 64/1/3
f 71/1/3 70/1/3 69/1/3
f 71/1/3 69/1/3 68/1/3
f 71/1/3 68/1/3 67/1/3
f 71/1/3 67/1/3 66/1/3
f 71/1/3 66/1/3 65/1/3
f 71/1/3 63/1/3 62/1/3
f 71/1/3 64/1/3 63/1/3
f 71/1/3 62/1/3 61/1/3
f 72/1/3 70/1/3 71/1/3
f 73/1/4 74/1/4 75/1/4
f 75/1/4 74/1/4 76/1/4
f 76/1/4 74/1/4 77/1/4
f 77/1/4 74/1/4 78/1/4
f 78/1/4 74/1/4 79/1/4
f 79/1/4 74/1/4 80/1/4
f 80/1/4 74/1/4 81/1/4
f 81/1/4 74/1/4 82/1/4
f 82/1/4 74/1/4 83/1/4
f 83/1/4 74/1/4 84/1/4
f 76/2/4 77/2/4 86/2/4
f 86/2/4 77/2/4 87/2/4
f 78/2/4 79/2/4 88/2/4
f 88/2/4 79/2/4 89/2/4
f 80/2/4 81/2/4 90/2/4
f 90/2/4 81/2/4 91/2/4
f 82/2/4 83/2/4 92/2/4
f 92/2/4 83/2/4 93/2/4
f 88/1/4 89/1/4 95/1/4
f 93/1/4 94/1/4 95/1/4
f 92/1/4 93/1/4 95/1/4
f 91/1/4 92/1/4 95/1/4
f 90/1/4 91/1/4 95/1/4
f 89/1/4 90/1/4 95/1/4
f 86/1/4 87/1/4 95/1/4
f 87/1/4 88/1/4 95/1/4
f 85/1/4 86/1/4 95/1/4
f 95/1/4 94/1/4 96/1/4
f 101/1/5 98/1/5 97/1/5
f 102/1/5 98/1/5 101/1/5
f 103/1/5 100/1/5 99/1/5
f 104/1/5 100/1/5 103/1/5
f 107/2/5 106/2/5 105/2/5
f 108/2/5 106/2/5 107/2/5
f 111/2/5 110/2/5 109/2/5
f 112/2/5 110/2/5 111/2/5
f 115/2/5 114/2/5 113/2/5
f 116/2/5 114/2/5 115/2/5
f 119/2/5 118/2/5 117/2/5
f 120/2/5 118/2/5 119/2/5
f 121/2/6 122/2/6 123/2/6
f 123/2/6 122/2/6 124/2/6
f 125/2/6 126/2/6 127/2/6
f 127/2/6 126/2/6 128/2/6
f 129/2/6 130/2/6 131/2/6
f 131/2/6 130/2/6 132/2/6
f 133/2/6 134/2/6 135/2/6
f 135/2/6 134/2/6 136/2/6
f 137/1/6 138/1/6 141/1/6
f 141/1/6 138/1/6 142/1/6
f 139/1/6 140/1/6 143/1/6
f 143/1/6 140/1/6 144/1/6
