# MagicaVoxel @ Ephtracy

# group
o 

# material
mtllib minigun.mtl
usemtl palette

# normals
vn -1 0 0
vn 1 0 0
vn 0 0 1
vn 0 0 -1
vn 0 -1 0
vn 0 1 0

# texcoords
vt 0.986328 0.5
vt 0.990234 0.5

# verts
v -0.6 0.1 -1
v -0.6 0.1 -3
v -0.6 0.9 -1
v -0.6 0.9 -2.3
v -0.6 0.9 -2.4
v -0.6 0.9 -3
v -0.6 1.7 -2.3
v -0.6 1.7 -2.4
v -0.5 0 -1
v -0.5 0 -3
v -0.5 0.1 -1
v -0.5 0.1 -3
v -0.5 0.3 3
v -0.5 0.3 2.9
v -0.5 0.3 -1
v -0.5 0.7 3
v -0.5 0.7 2.9
v -0.5 0.7 -1
v -0.5 0.9 -1
v -0.5 0.9 -2.3
v -0.5 0.9 -2.4
v -0.5 0.9 -3
v -0.5 1 -1
v -0.5 1 -2.3
v -0.5 1 -2.4
v -0.5 1 -3
v -0.5 1.7 -2.3
v -0.5 1.7 -2.4
v -0.5 1.8 -2.3
v -0.5 1.8 -2.4
v -0.4 0.2 3
v -0.4 0.2 2.9
v -0.4 0.2 -1
v -0.4 0.3 3
v -0.4 0.3 2.9
v -0.4 0.3 -1
v -0.4 0.7 3
v -0.4 0.7 2.9
v -0.4 0.7 -1
v -0.4 0.8 3
v -0.4 0.8 2.9
v -0.4 0.8 -1
v -0.2 0.1 3
v -0.2 0.1 2.9
v -0.2 0.1 -1
v -0.2 0.2 3
v -0.2 0.2 2.9
v -0.2 0.2 -1
v -0.2 0.8 3
v -0.2 0.8 2.9
v -0.2 0.8 -1
v -0.2 0.9 3
v -0.2 0.9 2.9
v -0.2 0.9 -1
v -5.96046e-08 0.2 3
v -5.96046e-08 0.2 2.9
v -5.96046e-08 0.2 -1
v -5.96046e-08 0.3 3
v -5.96046e-08 0.3 2.9
v -5.96046e-08 0.3 -1
v -5.96046e-08 0.7 3
v -5.96046e-08 0.7 2.9
v -5.96046e-08 0.7 -1
v -5.96046e-08 0.8 3
v -5.96046e-08 0.8 2.9
v -5.96046e-08 0.8 -1
v 0.2 0.3 3
v 0.2 0.3 2.9
v 0.2 0.3 -1
v 0.2 0.7 3
v 0.2 0.7 2.9
v 0.2 0.7 -1
v 0.3 1 -2.3
v 0.3 1 -2.4
v 0.3 1.6 -2.3
v 0.3 1.6 -2.4
v -0.5 1 -2.3
v -0.5 1 -2.4
v -0.5 1.6 -2.3
v -0.5 1.6 -2.4
v -0.4 0.3 3
v -0.4 0.3 2.9
v -0.4 0.3 -1
v -0.4 0.7 3
v -0.4 0.7 2.9
v -0.4 0.7 -1
v -0.2 0.2 3
v -0.2 0.2 2.9
v -0.2 0.2 -1
v -0.2 0.3 3
v -0.2 0.3 2.9
v -0.2 0.3 -1
v -0.2 0.7 3
v -0.2 0.7 2.9
v -0.2 0.7 -1
v -0.2 0.8 3
v -0.2 0.8 2.9
v -0.2 0.8 -1
v -5.96046e-08 0.1 3
v -5.96046e-08 0.1 2.9
v -5.96046e-08 0.1 -1
v -5.96046e-08 0.2 3
v -5.96046e-08 0.2 2.9
v -5.96046e-08 0.2 -1
v -5.96046e-08 0.8 3
v -5.96046e-08 0.8 2.9
v -5.96046e-08 0.8 -1
v -5.96046e-08 0.9 3
v -5.96046e-08 0.9 2.9
v -5.96046e-08 0.9 -1
v 0.2 0.2 3
v 0.2 0.2 2.9
v 0.2 0.2 -1
v 0.2 0.3 3
v 0.2 0.3 2.9
v 0.2 0.3 -1
v 0.2 0.7 3
v 0.2 0.7 2.9
v 0.2 0.7 -1
v 0.2 0.8 3
v 0.2 0.8 2.9
v 0.2 0.8 -1
v 0.3 0 -1
v 0.3 0 -3
v 0.3 0.1 -1
v 0.3 0.1 -3
v 0.3 0.3 3
v 0.3 0.3 2.9
v 0.3 0.3 -1
v 0.3 0.7 3
v 0.3 0.7 2.9
v 0.3 0.7 -1
v 0.3 0.9 -1
v 0.3 0.9 -2.3
v 0.3 0.9 -2.4
v 0.3 0.9 -3
v 0.3 1 -1
v 0.3 1 -2.3
v 0.3 1 -2.4
v 0.3 1 -3
v 0.3 1.7 -2.3
v 0.3 1.7 -2.4
v 0.3 1.8 -2.3
v 0.3 1.8 -2.4
v 0.4 0.1 -1
v 0.4 0.1 -3
v 0.4 0.9 -1
v 0.4 0.9 -2.3
v 0.4 0.9 -2.4
v 0.4 0.9 -3
v 0.4 1.7 -2.3
v 0.4 1.7 -2.4
v -0.5 0.3 3
v -0.5 0.7 3
v -0.4 0.2 3
v -0.4 0.3 3
v -0.4 0.7 3
v -0.4 0.8 3
v -0.2 0.1 3
v -0.2 0.2 3
v -0.2 0.3 3
v -0.2 0.7 3
v -0.2 0.8 3
v -0.2 0.9 3
v -5.96046e-08 0.1 3
v -5.96046e-08 0.2 3
v -5.96046e-08 0.3 3
v -5.96046e-08 0.7 3
v -5.96046e-08 0.8 3
v -5.96046e-08 0.9 3
v 0.2 0.2 3
v 0.2 0.3 3
v 0.2 0.7 3
v 0.2 0.8 3
v 0.3 0.3 3
v 0.3 0.7 3
v -0.6 0.1 -1
v -0.6 0.9 -1
v -0.5 0 -1
v -0.5 0.1 -1
v -0.5 0.3 -1
v -0.5 0.7 -1
v -0.5 0.9 -1
v -0.5 1 -1
v -0.4 0.2 -1
v -0.4 0.3 -1
v -0.4 0.7 -1
v -0.4 0.8 -1
v -0.2 0.1 -1
v -0.2 0.2 -1
v -0.2 0.3 -1
v -0.2 0.7 -1
v -0.2 0.8 -1
v -0.2 0.9 -1
v -5.96046e-08 0.1 -1
v -5.96046e-08 0.2 -1
v -5.96046e-08 0.3 -1
v -5.96046e-08 0.7 -1
v -5.96046e-08 0.8 -1
v -5.96046e-08 0.9 -1
v 0.2 0.2 -1
v 0.2 0.3 -1
v 0.2 0.7 -1
v 0.2 0.8 -1
v 0.3 0 -1
v 0.3 0.1 -1
v 0.3 0.3 -1
v 0.3 0.7 -1
v 0.3 0.9 -1
v 0.3 1 -1
v 0.4 0.1 -1
v 0.4 0.9 -1
v -0.6 0.9 -2.3
v -0.6 1.7 -2.3
v -0.5 0.9 -2.3
v -0.5 1 -2.3
v -0.5 1.6 -2.3
v -0.5 1.7 -2.3
v -0.5 1.8 -2.3
v 0.3 0.9 -2.3
v 0.3 1 -2.3
v 0.3 1.6 -2.3
v 0.3 1.7 -2.3
v 0.3 1.8 -2.3
v 0.4 0.9 -2.3
v 0.4 1.7 -2.3
v -0.6 0.9 -2.4
v -0.6 1.7 -2.4
v -0.5 0.9 -2.4
v -0.5 1 -2.4
v -0.5 1.6 -2.4
v -0.5 1.7 -2.4
v -0.5 1.8 -2.4
v 0.3 0.9 -2.4
v 0.3 1 -2.4
v 0.3 1.6 -2.4
v 0.3 1.7 -2.4
v 0.3 1.8 -2.4
v 0.4 0.9 -2.4
v 0.4 1.7 -2.4
v -0.6 0.1 -3
v -0.6 0.9 -3
v -0.5 0 -3
v -0.5 0.1 -3
v -0.5 0.9 -3
v -0.5 1 -3
v 0.3 0 -3
v 0.3 0.1 -3
v 0.3 0.9 -3
v 0.3 1 -3
v 0.4 0.1 -3
v 0.4 0.9 -3
v -0.5 0 -1
v 0.3 0 -1
v -0.5 0 -3
v 0.3 0 -3
v -0.2 0.1 3
v -5.96046e-08 0.1 3
v -0.2 0.1 2.9
v -5.96046e-08 0.1 2.9
v -0.6 0.1 -1
v -0.5 0.1 -1
v -0.2 0.1 -1
v -5.96046e-08 0.1 -1
v 0.3 0.1 -1
v 0.4 0.1 -1
v -0.6 0.1 -3
v -0.5 0.1 -3
v 0.3 0.1 -3
v 0.4 0.1 -3
v -0.4 0.2 3
v -0.2 0.2 3
v -5.96046e-08 0.2 3
v 0.2 0.2 3
v -0.4 0.2 2.9
v -0.2 0.2 2.9
v -5.96046e-08 0.2 2.9
v 0.2 0.2 2.9
v -0.4 0.2 -1
v -0.2 0.2 -1
v -5.96046e-08 0.2 -1
v 0.2 0.2 -1
v -0.5 0.3 3
v -0.4 0.3 3
v 0.2 0.3 3
v 0.3 0.3 3
v -0.5 0.3 2.9
v -0.4 0.3 2.9
v 0.2 0.3 2.9
v 0.3 0.3 2.9
v -0.5 0.3 -1
v -0.4 0.3 -1
v 0.2 0.3 -1
v 0.3 0.3 -1
v -0.4 0.7 3
v -0.2 0.7 3
v -5.96046e-08 0.7 3
v 0.2 0.7 3
v -0.4 0.7 2.9
v -0.2 0.7 2.9
v -5.96046e-08 0.7 2.9
v 0.2 0.7 2.9
v -0.4 0.7 -1
v -0.2 0.7 -1
v -5.96046e-08 0.7 -1
v 0.2 0.7 -1
v -0.2 0.8 3
v -5.96046e-08 0.8 3
v -0.2 0.8 2.9
v -5.96046e-08 0.8 2.9
v -0.2 0.8 -1
v -5.96046e-08 0.8 -1
v -0.5 1.6 -2.3
v 0.3 1.6 -2.3
v -0.5 1.6 -2.4
v 0.3 1.6 -2.4
v -0.2 0.2 3
v -5.96046e-08 0.2 3
v -0.2 0.2 2.9
v -5.96046e-08 0.2 2.9
v -0.2 0.2 -1
v -5.96046e-08 0.2 -1
v -0.4 0.3 3
v -0.2 0.3 3
v -5.96046e-08 0.3 3
v 0.2 0.3 3
v -0.4 0.3 2.9
v -0.2 0.3 2.9
v -5.96046e-08 0.3 2.9
v 0.2 0.3 2.9
v -0.4 0.3 -1
v -0.2 0.3 -1
v -5.96046e-08 0.3 -1
v 0.2 0.3 -1
v -0.5 0.7 3
v -0.4 0.7 3
v 0.2 0.7 3
v 0.3 0.7 3
v -0.5 0.7 2.9
v -0.4 0.7 2.9
v 0.2 0.7 2.9
v 0.3 0.7 2.9
v -0.5 0.7 -1
v -0.4 0.7 -1
v 0.2 0.7 -1
v 0.3 0.7 -1
v -0.4 0.8 3
v -0.2 0.8 3
v -5.96046e-08 0.8 3
v 0.2 0.8 3
v -0.4 0.8 2.9
v -0.2 0.8 2.9
v -5.96046e-08 0.8 2.9
v 0.2 0.8 2.9
v -0.4 0.8 -1
v -0.2 0.8 -1
v -5.96046e-08 0.8 -1
v 0.2 0.8 -1
v -0.2 0.9 3
v -5.96046e-08 0.9 3
v -0.2 0.9 2.9
v -5.96046e-08 0.9 2.9
v -0.6 0.9 -1
v -0.5 0.9 -1
v -0.2 0.9 -1
v -5.96046e-08 0.9 -1
v 0.3 0.9 -1
v 0.4 0.9 -1
v -0.6 0.9 -2.3
v -0.5 0.9 -2.3
v 0.3 0.9 -2.3
v 0.4 0.9 -2.3
v -0.6 0.9 -2.4
v -0.5 0.9 -2.4
v 0.3 0.9 -2.4
v 0.4 0.9 -2.4
v -0.6 0.9 -3
v -0.5 0.9 -3
v 0.3 0.9 -3
v 0.4 0.9 -3
v -0.5 1 -1
v 0.3 1 -1
v -0.5 1 -2.3
v 0.3 1 -2.3
v -0.5 1 -2.4
v 0.3 1 -2.4
v -0.5 1 -3
v 0.3 1 -3
v -0.6 1.7 -2.3
v -0.5 1.7 -2.3
v 0.3 1.7 -2.3
v 0.4 1.7 -2.3
v -0.6 1.7 -2.4
v -0.5 1.7 -2.4
v 0.3 1.7 -2.4
v 0.4 1.7 -2.4
v -0.5 1.8 -2.3
v 0.3 1.8 -2.3
v -0.5 1.8 -2.4
v 0.3 1.8 -2.4

# faces
f 3/1/1 2/1/1 1/1/1
f 4/1/1 2/1/1 3/1/1
f 5/1/1 2/1/1 4/1/1
f 6/1/1 2/1/1 5/1/1
f 7/2/1 5/2/1 4/2/1
f 8/2/1 5/2/1 7/2/1
f 11/1/1 10/1/1 9/1/1
f 12/1/1 10/1/1 11/1/1
f 16/2/1 14/2/1 13/2/1
f 17/1/1 15/1/1 14/1/1
f 17/2/1 14/2/1 16/2/1
f 18/1/1 15/1/1 17/1/1
f 23/1/1 20/1/1 19/1/1
f 24/1/1 20/1/1 23/1/1
f 25/1/1 22/1/1 21/1/1
f 26/1/1 22/1/1 25/1/1
f 29/2/1 28/2/1 27/2/1
f 30/2/1 28/2/1 29/2/1
f 34/2/1 32/2/1 31/2/1
f 35/1/1 33/1/1 32/1/1
f 35/2/1 32/2/1 34/2/1
f 36/1/1 33/1/1 35/1/1
f 40/2/1 38/2/1 37/2/1
f 41/1/1 39/1/1 38/1/1
f 41/2/1 38/2/1 40/2/1
f 42/1/1 39/1/1 41/1/1
f 46/2/1 44/2/1 43/2/1
f 47/1/1 45/1/1 44/1/1
f 47/2/1 44/2/1 46/2/1
f 48/1/1 45/1/1 47/1/1
f 52/2/1 50/2/1 49/2/1
f 53/1/1 51/1/1 50/1/1
f 53/2/1 50/2/1 52/2/1
f 54/1/1 51/1/1 53/1/1
f 58/2/1 56/2/1 55/2/1
f 59/1/1 57/1/1 56/1/1
f 59/2/1 56/2/1 58/2/1
f 60/1/1 57/1/1 59/1/1
f 64/2/1 62/2/1 61/2/1
f 65/1/1 63/1/1 62/1/1
f 65/2/1 62/2/1 64/2/1
f 66/1/1 63/1/1 65/1/1
f 70/2/1 68/2/1 67/2/1
f 71/1/1 69/1/1 68/1/1
f 71/2/1 68/2/1 70/2/1
f 72/1/1 69/1/1 71/1/1
f 75/2/1 74/2/1 73/2/1
f 76/2/1 74/2/1 75/2/1
f 77/2/2 78/2/2 79/2/2
f 79/2/2 78/2/2 80/2/2
f 81/2/2 82/2/2 84/2/2
f 82/1/2 83/1/2 85/1/2
f 84/2/2 82/2/2 85/2/2
f 85/1/2 83/1/2 86/1/2
f 87/2/2 88/2/2 90/2/2
f 88/1/2 89/1/2 91/1/2
f 90/2/2 88/2/2 91/2/2
f 91/1/2 89/1/2 92/1/2
f 93/2/2 94/2/2 96/2/2
f 94/1/2 95/1/2 97/1/2
f 96/2/2 94/2/2 97/2/2
f 97/1/2 95/1/2 98/1/2
f 99/2/2 100/2/2 102/2/2
f 100/1/2 101/1/2 103/1/2
f 102/2/2 100/2/2 103/2/2
f 103/1/2 101/1/2 104/1/2
f 105/2/2 106/2/2 108/2/2
f 106/1/2 107/1/2 109/1/2
f 108/2/2 106/2/2 109/2/2
f 109/1/2 107/1/2 110/1/2
f 111/2/2 112/2/2 114/2/2
f 112/1/2 113/1/2 115/1/2
f 114/2/2 112/2/2 115/2/2
f 115/1/2 113/1/2 116/1/2
f 117/2/2 118/2/2 120/2/2
f 118/1/2 119/1/2 121/1/2
f 120/2/2 118/2/2 121/2/2
f 121/1/2 119/1/2 122/1/2
f 123/1/2 124/1/2 125/1/2
f 125/1/2 124/1/2 126/1/2
f 127/2/2 128/2/2 130/2/2
f 128/1/2 129/1/2 131/1/2
f 130/2/2 128/2/2 131/2/2
f 131/1/2 129/1/2 132/1/2
f 133/1/2 134/1/2 137/1/2
f 137/1/2 134/1/2 138/1/2
f 135/1/2 136/1/2 139/1/2
f 139/1/2 136/1/2 140/1/2
f 141/2/2 142/2/2 143/2/2
f 143/2/2 142/2/2 144/2/2
f 145/1/2 146/1/2 147/1/2
f 147/1/2 146/1/2 148/1/2
f 148/1/2 146/1/2 149/1/2
f 149/1/2 146/1/2 150/1/2
f 148/2/2 149/2/2 151/2/2
f 151/2/2 149/2/2 152/2/2
f 156/2/3 154/2/3 153/2/3
f 157/2/3 154/2/3 156/2/3
f 160/2/3 156/2/3 155/2/3
f 161/2/3 156/2/3 160/2/3
f 162/2/3 158/2/3 157/2/3
f 163/2/3 158/2/3 162/2/3
f 165/2/3 160/2/3 159/2/3
f 166/2/3 160/2/3 165/2/3
f 169/2/3 164/2/3 163/2/3
f 170/2/3 164/2/3 169/2/3
f 171/2/3 167/2/3 166/2/3
f 172/2/3 167/2/3 171/2/3
f 173/2/3 169/2/3 168/2/3
f 174/2/3 169/2/3 173/2/3
f 175/2/3 173/2/3 172/2/3
f 176/2/3 173/2/3 175/2/3
f 180/1/3 178/1/3 177/1/3
f 181/1/3 178/1/3 180/1/3
f 182/1/3 178/1/3 181/1/3
f 183/1/3 178/1/3 182/1/3
f 185/1/3 180/1/3 179/1/3
f 185/1/3 181/1/3 180/1/3
f 186/1/3 181/1/3 185/1/3
f 187/1/3 184/1/3 183/1/3
f 187/1/3 183/1/3 182/1/3
f 188/1/3 184/1/3 187/1/3
f 189/1/3 185/1/3 179/1/3
f 190/1/3 185/1/3 189/1/3
f 191/1/3 187/1/3 186/1/3
f 192/1/3 187/1/3 191/1/3
f 193/1/3 184/1/3 188/1/3
f 194/1/3 184/1/3 193/1/3
f 195/1/3 189/1/3 179/1/3
f 196/1/3 192/1/3 191/1/3
f 196/1/3 193/1/3 192/1/3
f 196/1/3 191/1/3 190/1/3
f 197/1/3 193/1/3 196/1/3
f 198/1/3 193/1/3 197/1/3
f 199/1/3 193/1/3 198/1/3
f 200/1/3 184/1/3 194/1/3
f 201/1/3 196/1/3 195/1/3
f 202/1/3 198/1/3 197/1/3
f 203/1/3 198/1/3 202/1/3
f 204/1/3 200/1/3 199/1/3
f 205/1/3 195/1/3 179/1/3
f 205/1/3 201/1/3 195/1/3
f 205/1/3 202/1/3 201/1/3
f 206/1/3 202/1/3 205/1/3
f 207/1/3 202/1/3 206/1/3
f 208/1/3 204/1/3 203/1/3
f 209/1/3 200/1/3 204/1/3
f 209/1/3 184/1/3 200/1/3
f 209/1/3 204/1/3 208/1/3
f 210/1/3 184/1/3 209/1/3
f 211/1/3 207/1/3 206/1/3
f 211/1/3 208/1/3 207/1/3
f 211/1/3 209/1/3 208/1/3
f 212/1/3 209/1/3 211/1/3
f 215/2/3 214/2/3 213/2/3
f 216/2/3 214/2/3 215/2/3
f 217/2/3 214/2/3 216/2/3
f 218/2/3 214/2/3 217/2/3
f 222/2/3 219/2/3 218/2/3
f 222/2/3 218/2/3 217/2/3
f 223/2/3 219/2/3 222/2/3
f 224/2/3 219/2/3 223/2/3
f 225/2/3 221/2/3 220/2/3
f 225/2/3 222/2/3 221/2/3
f 225/2/3 223/2/3 222/2/3
f 226/2/3 223/2/3 225/2/3
f 227/2/4 228/2/4 229/2/4
f 229/2/4 228/2/4 230/2/4
f 230/2/4 228/2/4 231/2/4
f 231/2/4 228/2/4 232/2/4
f 232/2/4 233/2/4 236/2/4
f 231/2/4 232/2/4 236/2/4
f 236/2/4 233/2/4 237/2/4
f 237/2/4 233/2/4 238/2/4
f 234/2/4 235/2/4 239/2/4
f 235/2/4 236/2/4 239/2/4
f 236/2/4 237/2/4 239/2/4
f 239/2/4 237/2/4 240/2/4
f 241/1/4 242/1/4 244/1/4
f 244/1/4 242/1/4 245/1/4
f 243/1/4 244/1/4 247/1/4
f 245/1/4 246/1/4 247/1/4
f 244/1/4 245/1/4 247/1/4
f 247/1/4 246/1/4 248/1/4
f 248/1/4 246/1/4 249/1/4
f 249/1/4 246/1/4 250/1/4
f 248/1/4 249/1/4 251/1/4
f 251/1/4 249/1/4 252/1/4
f 255/1/5 254/1/5 253/1/5
f 256/1/5 254/1/5 255/1/5
f 259/2/5 258/2/5 257/2/5
f 260/2/5 258/2/5 259/2/5
f 263/1/5 260/1/5 259/1/5
f 264/1/5 260/1/5 263/1/5
f 267/1/5 262/1/5 261/1/5
f 268/1/5 262/1/5 267/1/5
f 269/1/5 266/1/5 265/1/5
f 270/1/5 266/1/5 269/1/5
f 275/2/5 272/2/5 271/2/5
f 276/2/5 272/2/5 275/2/5
f 277/2/5 274/2/5 273/2/5
f 278/2/5 274/2/5 277/2/5
f 279/1/5 276/1/5 275/1/5
f 280/1/5 276/1/5 279/1/5
f 281/1/5 278/1/5 277/1/5
f 282/1/5 278/1/5 281/1/5
f 287/2/5 284/2/5 283/2/5
f 288/2/5 284/2/5 287/2/5
f 289/2/5 286/2/5 285/2/5
f 290/2/5 286/2/5 289/2/5
f 291/1/5 288/1/5 287/1/5
f 292/1/5 288/1/5 291/1/5
f 293/1/5 290/1/5 289/1/5
f 294/1/5 290/1/5 293/1/5
f 299/2/5 296/2/5 295/2/5
f 300/2/5 296/2/5 299/2/5
f 301/2/5 298/2/5 297/2/5
f 302/2/5 298/2/5 301/2/5
f 303/1/5 300/1/5 299/1/5
f 304/1/5 300/1/5 303/1/5
f 305/1/5 302/1/5 301/1/5
f 306/1/5 302/1/5 305/1/5
f 309/2/5 308/2/5 307/2/5
f 310/2/5 308/2/5 309/2/5
f 311/1/5 310/1/5 309/1/5
f 312/1/5 310/1/5 311/1/5
f 315/2/5 314/2/5 313/2/5
f 316/2/5 314/2/5 315/2/5
f 317/2/6 318/2/6 319/2/6
f 319/2/6 318/2/6 320/2/6
f 319/1/6 320/1/6 321/1/6
f 321/1/6 320/1/6 322/1/6
f 323/2/6 324/2/6 327/2/6
f 327/2/6 324/2/6 328/2/6
f 325/2/6 326/2/6 329/2/6
f 329/2/6 326/2/6 330/2/6
f 327/1/6 328/1/6 331/1/6
f 331/1/6 328/1/6 332/1/6
f 329/1/6 330/1/6 333/1/6
f 333/1/6 330/1/6 334/1/6
f 335/2/6 336/2/6 339/2/6
f 339/2/6 336/2/6 340/2/6
f 337/2/6 338/2/6 341/2/6
f 341/2/6 338/2/6 342/2/6
f 339/1/6 340/1/6 343/1/6
f 343/1/6 340/1/6 344/1/6
f 341/1/6 342/1/6 345/1/6
f 345/1/6 342/1/6 346/1/6
f 347/2/6 348/2/6 351/2/6
f 351/2/6 348/2/6 352/2/6
f 349/2/6 350/2/6 353/2/6
f 353/2/6 350/2/6 354/2/6
f 351/1/6 352/1/6 355/1/6
f 355/1/6 352/1/6 356/1/6
f 353/1/6 354/1/6 357/1/6
f 357/1/6 354/1/6 358/1/6
f 359/2/6 360/2/6 361/2/6
f 361/2/6 360/2/6 362/2/6
f 361/1/6 362/1/6 365/1/6
f 365/1/6 362/1/6 366/1/6
f 363/1/6 364/1/6 369/1/6
f 369/1/6 364/1/6 370/1/6
f 367/1/6 368/1/6 371/1/6
f 371/1/6 368/1/6 372/1/6
f 373/1/6 374/1/6 377/1/6
f 377/1/6 374/1/6 378/1/6
f 375/1/6 376/1/6 379/1/6
f 379/1/6 376/1/6 380/1/6
f 381/1/6 382/1/6 383/1/6
f 383/1/6 382/1/6 384/1/6
f 383/1/6 384/1/6 385/1/6
f 385/1/6 384/1/6 386/1/6
f 385/1/6 386/1/6 387/1/6
f 387/1/6 386/1/6 388/1/6
f 389/2/6 390/2/6 393/2/6
f 393/2/6 390/2/6 394/2/6
f 391/2/6 392/2/6 395/2/6
f 395/2/6 392/2/6 396/2/6
f 397/2/6 398/2/6 399/2/6
f 399/2/6 398/2/6 400/2/6
