# MagicaVoxel @ Ephtracy

# group
o 

# material
mtllib pallet.mtl
usemtl palette

# normals
vn -1 0 0
vn 1 0 0
vn 0 0 1
vn 0 0 -1
vn 0 -1 0
vn 0 1 0

# texcoords
vt 0.369141 0.5
vt 0.373047 0.5

# verts
v -2 0 2.7
v -2 0 -2.9
v -2 0.1 1.9
v -2 0.1 0.3
v -2 0.1 -0.5
v -2 0.1 -2.1
v -2 0.2 2.7
v -2 0.2 1.9
v -2 0.2 1.5
v -2 0.2 0.8
v -2 0.2 0.3
v -2 0.2 -0.5
v -2 0.2 -1
v -2 0.2 -1.7
v -2 0.2 -2.1
v -2 0.2 -2.9
v -2 0.4 2.7
v -2 0.4 1.9
v -2 0.4 1.5
v -2 0.4 0.8
v -2 0.4 0.3
v -2 0.4 -0.5
v -2 0.4 -1
v -2 0.4 -1.7
v -2 0.4 -2.1
v -2 0.4 -2.9
v -0.4 0 2.7
v -0.4 0 1.9
v -0.4 0 -2.1
v -0.4 0 -2.9
v -0.4 0.2 2.7
v -0.4 0.2 1.9
v -0.4 0.2 -2.1
v -0.4 0.2 -2.9
v 1.2 0 2.7
v 1.2 0 -2.9
v 1.2 0.1 1.9
v 1.2 0.1 0.3
v 1.2 0.1 -0.5
v 1.2 0.1 -2.1
v 1.2 0.2 2.7
v 1.2 0.2 1.9
v 1.2 0.2 0.3
v 1.2 0.2 -0.5
v 1.2 0.2 -2.1
v 1.2 0.2 -2.9
v -1.2 0 2.7
v -1.2 0 -2.9
v -1.2 0.1 1.9
v -1.2 0.1 0.3
v -1.2 0.1 -0.5
v -1.2 0.1 -2.1
v -1.2 0.2 2.7
v -1.2 0.2 1.9
v -1.2 0.2 0.3
v -1.2 0.2 -0.5
v -1.2 0.2 -2.1
v -1.2 0.2 -2.9
v 0.4 0 2.7
v 0.4 0 1.9
v 0.4 0 -2.1
v 0.4 0 -2.9
v 0.4 0.2 2.7
v 0.4 0.2 1.9
v 0.4 0.2 -2.1
v 0.4 0.2 -2.9
v 2 0 2.7
v 2 0 -2.9
v 2 0.1 1.9
v 2 0.1 0.3
v 2 0.1 -0.5
v 2 0.1 -2.1
v 2 0.2 2.7
v 2 0.2 1.9
v 2 0.2 1.5
v 2 0.2 0.8
v 2 0.2 0.3
v 2 0.2 -0.5
v 2 0.2 -1
v 2 0.2 -1.7
v 2 0.2 -2.1
v 2 0.2 -2.9
v 2 0.4 2.7
v 2 0.4 1.9
v 2 0.4 1.5
v 2 0.4 0.8
v 2 0.4 0.3
v 2 0.4 -0.5
v 2 0.4 -1
v 2 0.4 -1.7
v 2 0.4 -2.1
v 2 0.4 -2.9
v -2 0 2.7
v -2 0.2 2.7
v -2 0.4 2.7
v -1.2 0 2.7
v -1.2 0.2 2.7
v -0.4 0 2.7
v -0.4 0.2 2.7
v 0.4 0 2.7
v 0.4 0.2 2.7
v 1.2 0 2.7
v 1.2 0.2 2.7
v 2 0 2.7
v 2 0.2 2.7
v 2 0.4 2.7
v -2 0.2 1.5
v -2 0.4 1.5
v 2 0.2 1.5
v 2 0.4 1.5
v -2 0.1 0.3
v -2 0.2 0.3
v -2 0.4 0.3
v -1.2 0.1 0.3
v -1.2 0.2 0.3
v 1.2 0.1 0.3
v 1.2 0.2 0.3
v 2 0.1 0.3
v 2 0.2 0.3
v 2 0.4 0.3
v -2 0.2 -1
v -2 0.4 -1
v 2 0.2 -1
v 2 0.4 -1
v -2 0.1 -2.1
v -2 0.2 -2.1
v -2 0.4 -2.1
v -1.2 0.1 -2.1
v -1.2 0.2 -2.1
v -0.4 0 -2.1
v -0.4 0.2 -2.1
v 0.4 0 -2.1
v 0.4 0.2 -2.1
v 1.2 0.1 -2.1
v 1.2 0.2 -2.1
v 2 0.1 -2.1
v 2 0.2 -2.1
v 2 0.4 -2.1
v -2 0.1 1.9
v -2 0.2 1.9
v -2 0.4 1.9
v -1.2 0.1 1.9
v -1.2 0.2 1.9
v -0.4 0 1.9
v -0.4 0.2 1.9
v 0.4 0 1.9
v 0.4 0.2 1.9
v 1.2 0.1 1.9
v 1.2 0.2 1.9
v 2 0.1 1.9
v 2 0.2 1.9
v 2 0.4 1.9
v -2 0.2 0.8
v -2 0.4 0.8
v 2 0.2 0.8
v 2 0.4 0.8
v -2 0.1 -0.5
v -2 0.2 -0.5
v -2 0.4 -0.5
v -1.2 0.1 -0.5
v -1.2 0.2 -0.5
v 1.2 0.1 -0.5
v 1.2 0.2 -0.5
v 2 0.1 -0.5
v 2 0.2 -0.5
v 2 0.4 -0.5
v -2 0.2 -1.7
v -2 0.4 -1.7
v 2 0.2 -1.7
v 2 0.4 -1.7
v -2 0 -2.9
v -2 0.2 -2.9
v -2 0.4 -2.9
v -1.2 0 -2.9
v -1.2 0.2 -2.9
v -0.4 0 -2.9
v -0.4 0.2 -2.9
v 0.4 0 -2.9
v 0.4 0.2 -2.9
v 1.2 0 -2.9
v 1.2 0.2 -2.9
v 2 0 -2.9
v 2 0.2 -2.9
v 2 0.4 -2.9
v -2 0 2.7
v -1.2 0 2.7
v -0.4 0 2.7
v 0.4 0 2.7
v 1.2 0 2.7
v 2 0 2.7
v -0.4 0 1.9
v 0.4 0 1.9
v -0.4 0 -2.1
v 0.4 0 -2.1
v -2 0 -2.9
v -1.2 0 -2.9
v -0.4 0 -2.9
v 0.4 0 -2.9
v 1.2 0 -2.9
v 2 0 -2.9
v -1.2 0.2 2.7
v -0.4 0.2 2.7
v 0.4 0.2 2.7
v 1.2 0.2 2.7
v -1.2 0.2 1.9
v -0.4 0.2 1.9
v 0.4 0.2 1.9
v 1.2 0.2 1.9
v -2 0.2 1.5
v 2 0.2 1.5
v -2 0.2 0.8
v 2 0.2 0.8
v -1.2 0.2 0.3
v 1.2 0.2 0.3
v -1.2 0.2 -0.5
v 1.2 0.2 -0.5
v -2 0.2 -1
v 2 0.2 -1
v -2 0.2 -1.7
v 2 0.2 -1.7
v -1.2 0.2 -2.1
v -0.4 0.2 -2.1
v 0.4 0.2 -2.1
v 1.2 0.2 -2.1
v -1.2 0.2 -2.9
v -0.4 0.2 -2.9
v 0.4 0.2 -2.9
v 1.2 0.2 -2.9
v -2 0.1 1.9
v -1.2 0.1 1.9
v 1.2 0.1 1.9
v 2 0.1 1.9
v -2 0.1 0.3
v -1.2 0.1 0.3
v 1.2 0.1 0.3
v 2 0.1 0.3
v -2 0.1 -0.5
v -1.2 0.1 -0.5
v 1.2 0.1 -0.5
v 2 0.1 -0.5
v -2 0.1 -2.1
v -1.2 0.1 -2.1
v 1.2 0.1 -2.1
v 2 0.1 -2.1
v -2 0.4 2.7
v 2 0.4 2.7
v -2 0.4 1.9
v 2 0.4 1.9
v -2 0.4 1.5
v 2 0.4 1.5
v -2 0.4 0.8
v 2 0.4 0.8
v -2 0.4 0.3
v 2 0.4 0.3
v -2 0.4 -0.5
v 2 0.4 -0.5
v -2 0.4 -1
v 2 0.4 -1
v -2 0.4 -1.7
v 2 0.4 -1.7
v -2 0.4 -2.1
v 2 0.4 -2.1
v -2 0.4 -2.9
v 2 0.4 -2.9

# faces
f 3/1/1 2/1/1 1/1/1
f 4/1/1 2/1/1 3/1/1
f 5/1/1 2/1/1 4/1/1
f 6/1/1 2/1/1 5/1/1
f 7/1/1 3/1/1 1/1/1
f 8/1/1 3/1/1 7/1/1
f 11/1/1 5/1/1 4/1/1
f 12/1/1 5/1/1 11/1/1
f 15/1/1 2/1/1 6/1/1
f 16/1/1 2/1/1 15/1/1
f 17/2/1 8/2/1 7/2/1
f 18/2/1 8/2/1 17/2/1
f 19/2/1 10/2/1 9/2/1
f 20/2/1 10/2/1 19/2/1
f 21/2/1 12/2/1 11/2/1
f 22/2/1 12/2/1 21/2/1
f 23/2/1 14/2/1 13/2/1
f 24/2/1 14/2/1 23/2/1
f 25/2/1 16/2/1 15/2/1
f 26/2/1 16/2/1 25/2/1
f 31/1/1 28/1/1 27/1/1
f 32/1/1 28/1/1 31/1/1
f 33/1/1 30/1/1 29/1/1
f 34/1/1 30/1/1 33/1/1
f 37/1/1 36/1/1 35/1/1
f 38/1/1 36/1/1 37/1/1
f 39/1/1 36/1/1 38/1/1
f 40/1/1 36/1/1 39/1/1
f 41/1/1 37/1/1 35/1/1
f 42/1/1 37/1/1 41/1/1
f 43/1/1 39/1/1 38/1/1
f 44/1/1 39/1/1 43/1/1
f 45/1/1 36/1/1 40/1/1
f 46/1/1 36/1/1 45/1/1
f 47/1/2 48/1/2 49/1/2
f 49/1/2 48/1/2 50/1/2
f 50/1/2 48/1/2 51/1/2
f 51/1/2 48/1/2 52/1/2
f 47/1/2 49/1/2 53/1/2
f 53/1/2 49/1/2 54/1/2
f 50/1/2 51/1/2 55/1/2
f 55/1/2 51/1/2 56/1/2
f 52/1/2 48/1/2 57/1/2
f 57/1/2 48/1/2 58/1/2
f 59/1/2 60/1/2 63/1/2
f 63/1/2 60/1/2 64/1/2
f 61/1/2 62/1/2 65/1/2
f 65/1/2 62/1/2 66/1/2
f 67/1/2 68/1/2 69/1/2
f 69/1/2 68/1/2 70/1/2
f 70/1/2 68/1/2 71/1/2
f 71/1/2 68/1/2 72/1/2
f 67/1/2 69/1/2 73/1/2
f 73/1/2 69/1/2 74/1/2
f 70/1/2 71/1/2 77/1/2
f 77/1/2 71/1/2 78/1/2
f 72/1/2 68/1/2 81/1/2
f 81/1/2 68/1/2 82/1/2
f 73/2/2 74/2/2 83/2/2
f 83/2/2 74/2/2 84/2/2
f 75/2/2 76/2/2 85/2/2
f 85/2/2 76/2/2 86/2/2
f 77/2/2 78/2/2 87/2/2
f 87/2/2 78/2/2 88/2/2
f 79/2/2 80/2/2 89/2/2
f 89/2/2 80/2/2 90/2/2
f 81/2/2 82/2/2 91/2/2
f 91/2/2 82/2/2 92/2/2
f 96/1/3 94/1/3 93/1/3
f 97/2/3 95/2/3 94/2/3
f 97/1/3 94/1/3 96/1/3
f 99/2/3 95/2/3 97/2/3
f 100/1/3 99/1/3 98/1/3
f 101/2/3 95/2/3 99/2/3
f 101/1/3 99/1/3 100/1/3
f 103/2/3 95/2/3 101/2/3
f 104/1/3 103/1/3 102/1/3
f 105/2/3 95/2/3 103/2/3
f 105/1/3 103/1/3 104/1/3
f 106/2/3 95/2/3 105/2/3
f 109/2/3 108/2/3 107/2/3
f 110/2/3 108/2/3 109/2/3
f 114/1/3 112/1/3 111/1/3
f 115/2/3 113/2/3 112/2/3
f 115/1/3 112/1/3 114/1/3
f 117/2/3 113/2/3 115/2/3
f 118/1/3 117/1/3 116/1/3
f 119/2/3 113/2/3 117/2/3
f 119/1/3 117/1/3 118/1/3
f 120/2/3 113/2/3 119/2/3
f 123/2/3 122/2/3 121/2/3
f 124/2/3 122/2/3 123/2/3
f 128/1/3 126/1/3 125/1/3
f 129/2/3 127/2/3 126/2/3
f 129/1/3 126/1/3 128/1/3
f 131/2/3 127/2/3 129/2/3
f 132/1/3 131/1/3 130/1/3
f 133/2/3 127/2/3 131/2/3
f 133/1/3 131/1/3 132/1/3
f 135/2/3 127/2/3 133/2/3
f 136/1/3 135/1/3 134/1/3
f 137/2/3 127/2/3 135/2/3
f 137/1/3 135/1/3 136/1/3
f 138/2/3 127/2/3 137/2/3
f 139/1/4 140/1/4 142/1/4
f 140/2/4 141/2/4 143/2/4
f 142/1/4 140/1/4 143/1/4
f 143/2/4 141/2/4 145/2/4
f 144/1/4 145/1/4 146/1/4
f 145/2/4 141/2/4 147/2/4
f 146/1/4 145/1/4 147/1/4
f 147/2/4 141/2/4 149/2/4
f 148/1/4 149/1/4 150/1/4
f 149/2/4 141/2/4 151/2/4
f 150/1/4 149/1/4 151/1/4
f 151/2/4 141/2/4 152/2/4
f 153/2/4 154/2/4 155/2/4
f 155/2/4 154/2/4 156/2/4
f 157/1/4 158/1/4 160/1/4
f 158/2/4 159/2/4 161/2/4
f 160/1/4 158/1/4 161/1/4
f 161/2/4 159/2/4 163/2/4
f 162/1/4 163/1/4 164/1/4
f 163/2/4 159/2/4 165/2/4
f 164/1/4 163/1/4 165/1/4
f 165/2/4 159/2/4 166/2/4
f 167/2/4 168/2/4 169/2/4
f 169/2/4 168/2/4 170/2/4
f 171/1/4 172/1/4 174/1/4
f 172/2/4 173/2/4 175/2/4
f 174/1/4 172/1/4 175/1/4
f 175/2/4 173/2/4 177/2/4
f 176/1/4 177/1/4 178/1/4
f 177/2/4 173/2/4 179/2/4
f 178/1/4 177/1/4 179/1/4
f 179/2/4 173/2/4 181/2/4
f 180/1/4 181/1/4 182/1/4
f 181/2/4 173/2/4 183/2/4
f 182/1/4 181/1/4 183/1/4
f 183/2/4 173/2/4 184/2/4
f 191/1/5 188/1/5 187/1/5
f 192/1/5 188/1/5 191/1/5
f 195/1/5 186/1/5 185/1/5
f 196/1/5 186/1/5 195/1/5
f 197/1/5 194/1/5 193/1/5
f 198/1/5 194/1/5 197/1/5
f 199/1/5 190/1/5 189/1/5
f 200/1/5 190/1/5 199/1/5
f 205/2/5 202/2/5 201/2/5
f 206/2/5 202/2/5 205/2/5
f 207/2/5 204/2/5 203/2/5
f 208/2/5 204/2/5 207/2/5
f 211/2/5 210/2/5 209/2/5
f 212/2/5 210/2/5 211/2/5
f 215/2/5 214/2/5 213/2/5
f 216/2/5 214/2/5 215/2/5
f 219/2/5 218/2/5 217/2/5
f 220/2/5 218/2/5 219/2/5
f 225/2/5 222/2/5 221/2/5
f 226/2/5 222/2/5 225/2/5
f 227/2/5 224/2/5 223/2/5
f 228/2/5 224/2/5 227/2/5
f 229/1/6 230/1/6 233/1/6
f 233/1/6 230/1/6 234/1/6
f 231/1/6 232/1/6 235/1/6
f 235/1/6 232/1/6 236/1/6
f 237/1/6 238/1/6 241/1/6
f 241/1/6 238/1/6 242/1/6
f 239/1/6 240/1/6 243/1/6
f 243/1/6 240/1/6 244/1/6
f 245/2/6 246/2/6 247/2/6
f 247/2/6 246/2/6 248/2/6
f 249/2/6 250/2/6 251/2/6
f 251/2/6 250/2/6 252/2/6
f 253/2/6 254/2/6 255/2/6
f 255/2/6 254/2/6 256/2/6
f 257/2/6 258/2/6 259/2/6
f 259/2/6 258/2/6 260/2/6
f 261/2/6 262/2/6 263/2/6
f 263/2/6 262/2/6 264/2/6
