# MagicaVoxel @ Ephtracy

# group
o 

# material
mtllib sign.mtl
usemtl palette

# normals
vn -1 0 0
vn 1 0 0
vn 0 0 1
vn 0 0 -1
vn 0 -1 0
vn 0 1 0

# texcoords
vt 0.857422 0.5
vt 0.978516 0.5
vt 0.982422 0.5
vt 0.990234 0.5

# verts
v -1.7 1.6 0.2
v -1.7 1.6 0.1
v -1.7 1.6 -0.2
v -1.7 3.6 0.2
v -1.7 3.6 0.1
v -1.7 3.6 -0.2
v -0.1 0 0.2
v -0.1 0 -0.2
v -0.1 1.6 0.2
v -0.1 1.6 0.1
v -0.1 1.6 -0.2
v 0.0999999 0 0.2
v 0.0999999 0 -0.2
v 0.0999999 1.6 0.2
v 0.0999999 1.6 0.1
v 0.0999999 1.6 -0.2
v 1.7 1.6 0.2
v 1.7 1.6 0.1
v 1.7 1.6 -0.2
v 1.7 3.6 0.2
v 1.7 3.6 0.1
v 1.7 3.6 -0.2
v -1.7 1.6 0.2
v -1.7 3.6 0.2
v -0.1 0 0.2
v -0.1 1.6 0.2
v 0.0999999 0 0.2
v 0.0999999 1.6 0.2
v 1.7 1.6 0.2
v 1.7 3.6 0.2
v -1.7 1.6 -0.2
v -1.7 3.6 -0.2
v -0.1 0 -0.2
v -0.1 1.6 -0.2
v 0.0999999 0 -0.2
v 0.0999999 1.6 -0.2
v 1.7 1.6 -0.2
v 1.7 3.6 -0.2
v -0.1 0 0.2
v 0.0999999 0 0.2
v -0.1 0 -0.2
v 0.0999999 0 -0.2
v -1.7 1.6 0.2
v -0.1 1.6 0.2
v 0.0999999 1.6 0.2
v 1.7 1.6 0.2
v -1.7 1.6 0.1
v -0.1 1.6 0.1
v 0.0999999 1.6 0.1
v 1.7 1.6 0.1
v -1.7 1.6 -0.2
v -0.1 1.6 -0.2
v 0.0999999 1.6 -0.2
v 1.7 1.6 -0.2
v -1.7 3.6 0.2
v 1.7 3.6 0.2
v -1.7 3.6 0.1
v 1.7 3.6 0.1
v -1.7 3.6 -0.2
v 1.7 3.6 -0.2

# faces
f 4/2/1 2/2/1 1/2/1
f 5/4/1 3/4/1 2/4/1
f 5/2/1 2/2/1 4/2/1
f 6/4/1 3/4/1 5/4/1
f 9/3/1 8/3/1 7/3/1
f 10/3/1 8/3/1 9/3/1
f 11/3/1 8/3/1 10/3/1
f 12/3/2 13/3/2 14/3/2
f 14/3/2 13/3/2 15/3/2
f 15/3/2 13/3/2 16/3/2
f 17/2/2 18/2/2 20/2/2
f 18/4/2 19/4/2 21/4/2
f 20/2/2 18/2/2 21/2/2
f 21/4/2 19/4/2 22/4/2
f 26/2/3 24/2/3 23/2/3
f 27/3/3 26/3/3 25/3/3
f 28/2/3 24/2/3 26/2/3
f 28/3/3 26/3/3 27/3/3
f 29/2/3 24/2/3 28/2/3
f 30/2/3 24/2/3 29/2/3
f 31/4/4 32/4/4 34/4/4
f 33/3/4 34/3/4 35/3/4
f 34/4/4 32/4/4 36/4/4
f 35/3/4 34/3/4 36/3/4
f 36/4/4 32/4/4 37/4/4
f 37/4/4 32/4/4 38/4/4
f 41/3/5 40/3/5 39/3/5
f 42/3/5 40/3/5 41/3/5
f 47/2/5 44/2/5 43/2/5
f 48/2/5 44/2/5 47/2/5
f 49/2/5 46/2/5 45/2/5
f 50/2/5 46/2/5 49/2/5
f 51/4/5 48/4/5 47/4/5
f 52/4/5 48/4/5 51/4/5
f 53/4/5 50/4/5 49/4/5
f 54/4/5 50/4/5 53/4/5
f 55/2/6 56/2/6 57/2/6
f 57/2/6 56/2/6 58/2/6
f 57/4/6 58/4/6 59/4/6
f 59/4/6 58/4/6 60/4/6
