# MagicaVoxel @ Ephtracy

# group
o 

# material
mtllib trashBin.mtl
usemtl palette

# normals
vn -1 0 0
vn 1 0 0
vn 0 0 1
vn 0 0 -1
vn 0 -1 0
vn 0 1 0

# texcoords
vt 0.818359 0.5
vt 0.986328 0.5
vt 0.990234 0.5

# verts
v -2 0 1.3
v -2 0 -0.6
v -2 2.5 1.4
v -2 2.5 1.3
v -2 2.5 -0.2
v -2 2.5 -0.6
v -2 2.6 -0.2
v -2 2.6 -0.5
v -2 2.7 1.5
v -2 2.7 1.4
v -2 2.7 -0.5
v -2 2.7 -0.7
v -2 2.9 1.5
v -2 2.9 1.3
v -2 2.9 -0.6
v -2 2.9 -0.7
v -2 3 1.3
v -2 3 1
v -2 3.1 1
v -2 3.1 0.8
v -2 3.1 -0.5
v -2 3.1 -0.6
v -2 3.2 0.8
v -2 3.2 0.6
v -2 3.3 1.5
v -2 3.3 1
v -2 3.3 0.6
v -2 3.3 0.4
v -2 3.3 -0.4
v -2 3.3 -0.5
v -2 3.4 1
v -2 3.4 0.6
v -2 3.4 0.4
v -2 3.4 0.2
v -2 3.5 0.6
v -2 3.5 0.2
v -2 3.5 0
v -2 3.6 0
v -2 3.6 -0.2
v -2 3.6 -0.3
v -2 3.6 -0.4
v -2 3.7 0.2
v -2 3.7 0
v -2 3.7 -0.2
v -2 3.7 -0.3
v -2 3.8 0
v -2 3.8 -0.3
v -1.9 2.3 -0.6
v -1.9 2.3 -0.8
v -1.9 2.5 -0.2
v -1.9 2.5 -0.6
v -1.9 2.6 -0.2
v -1.9 2.6 -0.5
v -1.9 2.7 -0.5
v -1.9 2.7 -0.7
v -1.9 2.8 -0.7
v -1.9 2.8 -0.8
v -0.8 2.9 1.6
v -0.8 2.9 1.5
v -0.8 3.3 1.6
v -0.8 3.3 1.5
v -0.8 3.3 1
v -0.8 3.4 1.5
v -0.8 3.4 1
v -0.8 3.4 0.6
v -0.8 3.5 1
v -0.8 3.5 0.6
v -0.8 3.5 0.2
v -0.8 3.6 0.6
v -0.8 3.6 0.3
v -0.8 3.7 0.2
v -0.8 3.7 0
v -0.8 3.8 0.3
v -0.8 3.8 0
v -0.8 3.8 -0.3
v -0.8 3.9 0
v -0.8 3.9 -0.3
v 0.7 2.9 1.6
v 0.7 2.9 1.5
v 0.7 3.3 1.6
v 0.7 3.3 1.5
v 0.7 3.3 1
v 0.7 3.4 1.5
v 0.7 3.4 1
v 0.7 3.4 0.6
v 0.7 3.5 1
v 0.7 3.5 0.6
v 0.7 3.5 0.2
v 0.7 3.6 0.6
v 0.7 3.6 0.3
v 0.7 3.7 0.3
v 0.7 3.7 0.2
v 0.7 3.7 0
v 0.7 3.8 0.2
v 0.7 3.8 0.1
v 0.7 3.8 0
v 0.7 3.8 -0.3
v 0.7 3.9 0.1
v 0.7 3.9 -0.3
v -0.5 2.9 1.6
v -0.5 2.9 1.5
v -0.5 3.3 1.6
v -0.5 3.3 1.5
v -0.5 3.3 1
v -0.5 3.4 1.5
v -0.5 3.4 1
v -0.5 3.4 0.6
v -0.5 3.5 1
v -0.5 3.5 0.6
v -0.5 3.5 0.2
v -0.5 3.6 0.6
v -0.5 3.6 0.3
v -0.5 3.7 0.2
v -0.5 3.7 0
v -0.5 3.8 0.3
v -0.5 3.8 0
v -0.5 3.8 -0.3
v -0.5 3.9 0
v -0.5 3.9 -0.3
v 1 2.9 1.6
v 1 2.9 1.5
v 1 3.3 1.6
v 1 3.3 1.5
v 1 3.3 1
v 1 3.4 1.5
v 1 3.4 1
v 1 3.4 0.6
v 1 3.5 1
v 1 3.5 0.6
v 1 3.5 0.2
v 1 3.6 0.6
v 1 3.6 0.3
v 1 3.7 0.3
v 1 3.7 0.2
v 1 3.7 0
v 1 3.8 0.2
v 1 3.8 0.1
v 1 3.8 0
v 1 3.8 -0.3
v 1 3.9 0.1
v 1 3.9 -0.3
v 2.2 0 1.3
v 2.2 0 -0.6
v 2.2 2.3 -0.6
v 2.2 2.3 -0.8
v 2.2 2.5 1.4
v 2.2 2.5 1.3
v 2.2 2.7 1.5
v 2.2 2.7 1.4
v 2.2 2.8 -0.7
v 2.2 2.8 -0.8
v 2.2 2.9 1.5
v 2.2 2.9 1.3
v 2.2 2.9 -0.6
v 2.2 2.9 -0.7
v 2.2 3 1.3
v 2.2 3 1
v 2.2 3.1 1
v 2.2 3.1 0.8
v 2.2 3.1 -0.5
v 2.2 3.1 -0.6
v 2.2 3.2 0.8
v 2.2 3.2 0.6
v 2.2 3.3 1.5
v 2.2 3.3 1
v 2.2 3.3 0.6
v 2.2 3.3 0.4
v 2.2 3.3 -0.4
v 2.2 3.3 -0.5
v 2.2 3.4 1
v 2.2 3.4 0.6
v 2.2 3.4 0.4
v 2.2 3.4 0.2
v 2.2 3.5 0.6
v 2.2 3.5 0.2
v 2.2 3.5 0
v 2.2 3.6 0
v 2.2 3.6 -0.2
v 2.2 3.6 -0.3
v 2.2 3.6 -0.4
v 2.2 3.7 0.2
v 2.2 3.7 0
v 2.2 3.7 -0.2
v 2.2 3.7 -0.3
v 2.2 3.8 0
v 2.2 3.8 -0.3
v -0.8 2.9 1.6
v -0.8 3.3 1.6
v -0.5 2.9 1.6
v -0.5 3.3 1.6
v 0.7 2.9 1.6
v 0.7 3.3 1.6
v 1 2.9 1.6
v 1 3.3 1.6
v -2 2.7 1.5
v -2 2.9 1.5
v -2 3.3 1.5
v -0.8 2.9 1.5
v -0.8 3.3 1.5
v -0.8 3.4 1.5
v -0.5 2.9 1.5
v -0.5 3.3 1.5
v -0.5 3.4 1.5
v 0.7 2.9 1.5
v 0.7 3.3 1.5
v 0.7 3.4 1.5
v 1 2.9 1.5
v 1 3.3 1.5
v 1 3.4 1.5
v 2.2 2.7 1.5
v 2.2 2.9 1.5
v 2.2 3.3 1.5
v -2 2.5 1.4
v -2 2.7 1.4
v 2.2 2.5 1.4
v 2.2 2.7 1.4
v -2 0 1.3
v -2 2.5 1.3
v 2.2 0 1.3
v 2.2 2.5 1.3
v -2 3.3 1
v -2 3.4 1
v -0.8 3.3 1
v -0.8 3.4 1
v -0.8 3.5 1
v -0.5 3.3 1
v -0.5 3.4 1
v -0.5 3.5 1
v 0.7 3.3 1
v 0.7 3.4 1
v 0.7 3.5 1
v 1 3.3 1
v 1 3.4 1
v 1 3.5 1
v 2.2 3.3 1
v 2.2 3.4 1
v -2 3.4 0.6
v -2 3.5 0.6
v -0.8 3.4 0.6
v -0.8 3.5 0.6
v -0.8 3.6 0.6
v -0.5 3.4 0.6
v -0.5 3.5 0.6
v -0.5 3.6 0.6
v 0.7 3.4 0.6
v 0.7 3.5 0.6
v 0.7 3.6 0.6
v 1 3.4 0.6
v 1 3.5 0.6
v 1 3.6 0.6
v 2.2 3.4 0.6
v 2.2 3.5 0.6
v -0.8 3.6 0.3
v -0.8 3.8 0.3
v -0.5 3.6 0.3
v -0.5 3.8 0.3
v 0.7 3.6 0.3
v 0.7 3.7 0.3
v 1 3.6 0.3
v 1 3.7 0.3
v -2 3.5 0.2
v -2 3.7 0.2
v -0.8 3.5 0.2
v -0.8 3.7 0.2
v -0.5 3.5 0.2
v -0.5 3.7 0.2
v 0.7 3.5 0.2
v 0.7 3.7 0.2
v 0.7 3.8 0.2
v 1 3.5 0.2
v 1 3.7 0.2
v 1 3.8 0.2
v 2.2 3.5 0.2
v 2.2 3.7 0.2
v 0.7 3.8 0.1
v 0.7 3.9 0.1
v 1 3.8 0.1
v 1 3.9 0.1
v -2 3.7 0
v -2 3.8 0
v -0.8 3.7 0
v -0.8 3.8 0
v -0.8 3.9 0
v -0.5 3.7 0
v -0.5 3.8 0
v -0.5 3.9 0
v 0.7 3.7 0
v 0.7 3.8 0
v 1 3.7 0
v 1 3.8 0
v 2.2 3.7 0
v 2.2 3.8 0
v -2 2.5 -0.2
v -2 2.6 -0.2
v -1.9 2.5 -0.2
v -1.9 2.6 -0.2
v -2 3.6 -0.3
v -2 3.7 -0.3
v -2 3.8 -0.3
v -0.8 3.8 -0.3
v -0.8 3.9 -0.3
v -0.5 3.8 -0.3
v -0.5 3.9 -0.3
v 0.7 3.8 -0.3
v 0.7 3.9 -0.3
v 1 3.8 -0.3
v 1 3.9 -0.3
v 2.2 3.6 -0.3
v 2.2 3.7 -0.3
v 2.2 3.8 -0.3
v -2 3.3 -0.4
v -2 3.6 -0.4
v 2.2 3.3 -0.4
v 2.2 3.6 -0.4
v -2 2.6 -0.5
v -2 2.7 -0.5
v -2 3.1 -0.5
v -2 3.3 -0.5
v -1.9 2.6 -0.5
v -1.9 2.7 -0.5
v 2.2 3.1 -0.5
v 2.2 3.3 -0.5
v -2 0 -0.6
v -2 2.5 -0.6
v -2 2.9 -0.6
v -2 3.1 -0.6
v -1.9 2.3 -0.6
v -1.9 2.5 -0.6
v 2.2 0 -0.6
v 2.2 2.3 -0.6
v 2.2 2.9 -0.6
v 2.2 3.1 -0.6
v -2 2.7 -0.7
v -2 2.9 -0.7
v -1.9 2.7 -0.7
v -1.9 2.8 -0.7
v 2.2 2.8 -0.7
v 2.2 2.9 -0.7
v -1.9 2.3 -0.8
v -1.9 2.8 -0.8
v 2.2 2.3 -0.8
v 2.2 2.8 -0.8
v -2 0 1.3
v 2.2 0 1.3
v -2 0 -0.6
v 2.2 0 -0.6
v -1.9 2.3 -0.6
v 2.2 2.3 -0.6
v -1.9 2.3 -0.8
v 2.2 2.3 -0.8
v -2 2.5 1.4
v 2.2 2.5 1.4
v -2 2.5 1.3
v 2.2 2.5 1.3
v -2 2.6 -0.2
v -1.9 2.6 -0.2
v -2 2.6 -0.5
v -1.9 2.6 -0.5
v -2 2.7 1.5
v 2.2 2.7 1.5
v -2 2.7 1.4
v 2.2 2.7 1.4
v -2 2.7 -0.5
v -1.9 2.7 -0.5
v -2 2.7 -0.7
v -1.9 2.7 -0.7
v -0.8 2.9 1.6
v -0.5 2.9 1.6
v 0.7 2.9 1.6
v 1 2.9 1.6
v -0.8 2.9 1.5
v -0.5 2.9 1.5
v 0.7 2.9 1.5
v 1 2.9 1.5
v -2 2.5 -0.2
v -1.9 2.5 -0.2
v -2 2.5 -0.6
v -1.9 2.5 -0.6
v -1.9 2.8 -0.7
v 2.2 2.8 -0.7
v -1.9 2.8 -0.8
v 2.2 2.8 -0.8
v -2 2.9 -0.6
v 2.2 2.9 -0.6
v -2 2.9 -0.7
v 2.2 2.9 -0.7
v -2 3.1 -0.5
v 2.2 3.1 -0.5
v -2 3.1 -0.6
v 2.2 3.1 -0.6
v -0.8 3.3 1.6
v -0.5 3.3 1.6
v 0.7 3.3 1.6
v 1 3.3 1.6
v -2 3.3 1.5
v -0.8 3.3 1.5
v -0.5 3.3 1.5
v 0.7 3.3 1.5
v 1 3.3 1.5
v 2.2 3.3 1.5
v -2 3.3 1
v -0.8 3.3 1
v -0.5 3.3 1
v 0.7 3.3 1
v 1 3.3 1
v 2.2 3.3 1
v -2 3.3 -0.4
v 2.2 3.3 -0.4
v -2 3.3 -0.5
v 2.2 3.3 -0.5
v -0.8 3.4 1.5
v -0.5 3.4 1.5
v 0.7 3.4 1.5
v 1 3.4 1.5
v -2 3.4 1
v -0.8 3.4 1
v -0.5 3.4 1
v 0.7 3.4 1
v 1 3.4 1
v 2.2 3.4 1
v -2 3.4 0.6
v -0.8 3.4 0.6
v -0.5 3.4 0.6
v 0.7 3.4 0.6
v 1 3.4 0.6
v 2.2 3.4 0.6
v -0.8 3.5 1
v -0.5 3.5 1
v 0.7 3.5 1
v 1 3.5 1
v -2 3.5 0.6
v -0.8 3.5 0.6
v -0.5 3.5 0.6
v 0.7 3.5 0.6
v 1 3.5 0.6
v 2.2 3.5 0.6
v -2 3.5 0.2
v -0.8 3.5 0.2
v -0.5 3.5 0.2
v 0.7 3.5 0.2
v 1 3.5 0.2
v 2.2 3.5 0.2
v -0.8 3.6 0.6
v -0.5 3.6 0.6
v 0.7 3.6 0.6
v 1 3.6 0.6
v -0.8 3.6 0.3
v -0.5 3.6 0.3
v 0.7 3.6 0.3
v 1 3.6 0.3
v -2 3.6 -0.3
v 2.2 3.6 -0.3
v -2 3.6 -0.4
v 2.2 3.6 -0.4
v 0.7 3.7 0.3
v 1 3.7 0.3
v -2 3.7 0.2
v -0.8 3.7 0.2
v -0.5 3.7 0.2
v 0.7 3.7 0.2
v 1 3.7 0.2
v 2.2 3.7 0.2
v -2 3.7 0
v -0.8 3.7 0
v -0.5 3.7 0
v 0.7 3.7 0
v 1 3.7 0
v 2.2 3.7 0
v -0.8 3.8 0.3
v -0.5 3.8 0.3
v 0.7 3.8 0.2
v 1 3.8 0.2
v 0.7 3.8 0.1
v 1 3.8 0.1
v -2 3.8 0
v -0.8 3.8 0
v -0.5 3.8 0
v 0.7 3.8 0
v 1 3.8 0
v 2.2 3.8 0
v -2 3.8 -0.3
v -0.8 3.8 -0.3
v -0.5 3.8 -0.3
v 0.7 3.8 -0.3
v 1 3.8 -0.3
v 2.2 3.8 -0.3
v 0.7 3.9 0.1
v 1 3.9 0.1
v -0.8 3.9 0
v -0.5 3.9 0
v -0.8 3.9 -0.3
v -0.5 3.9 -0.3
v 0.7 3.9 -0.3
v 1 3.9 -0.3

# faces
f 4/1/1 2/1/1 1/1/1
f 5/1/1 2/1/1 4/1/1
f 6/1/1 2/1/1 5/1/1
f 7/1/1 4/1/1 3/1/1
f 7/1/1 5/1/1 4/1/1
f 10/1/1 7/1/1 3/1/1
f 10/1/1 8/1/1 7/1/1
f 11/1/1 8/1/1 10/1/1
f 13/1/1 11/1/1 10/1/1
f 13/1/1 12/1/1 11/1/1
f 13/1/1 10/1/1 9/1/1
f 14/1/1 12/1/1 13/1/1
f 15/1/1 12/1/1 14/1/1
f 16/1/1 12/1/1 15/1/1
f 17/2/1 14/2/1 13/2/1
f 17/1/1 15/1/1 14/1/1
f 18/1/1 15/1/1 17/1/1
f 19/2/1 18/2/1 17/2/1
f 19/1/1 15/1/1 18/1/1
f 20/1/1 15/1/1 19/1/1
f 21/1/1 15/1/1 20/1/1
f 22/1/1 15/1/1 21/1/1
f 23/2/1 20/2/1 19/2/1
f 23/1/1 21/1/1 20/1/1
f 24/1/1 21/1/1 23/1/1
f 25/2/1 17/2/1 13/2/1
f 25/2/1 19/2/1 17/2/1
f 25/2/1 24/2/1 23/2/1
f 25/2/1 23/2/1 19/2/1
f 26/2/1 24/2/1 25/2/1
f 27/1/1 21/1/1 24/1/1
f 27/2/1 24/2/1 26/2/1
f 28/1/1 21/1/1 27/1/1
f 29/1/1 21/1/1 28/1/1
f 30/1/1 21/1/1 29/1/1
f 31/2/1 27/2/1 26/2/1
f 31/2/1 28/2/1 27/2/1
f 32/2/1 28/2/1 31/2/1
f 33/1/1 29/1/1 28/1/1
f 33/2/1 28/2/1 32/2/1
f 34/1/1 29/1/1 33/1/1
f 35/2/1 33/2/1 32/2/1
f 35/2/1 34/2/1 33/2/1
f 36/1/1 29/1/1 34/1/1
f 36/2/1 34/2/1 35/2/1
f 37/1/1 29/1/1 36/1/1
f 38/1/1 29/1/1 37/1/1
f 38/2/1 37/2/1 36/2/1
f 39/1/1 29/1/1 38/1/1
f 40/1/1 29/1/1 39/1/1
f 41/1/1 29/1/1 40/1/1
f 42/2/1 38/2/1 36/2/1
f 42/2/1 39/2/1 38/2/1
f 43/2/1 39/2/1 42/2/1
f 44/1/1 40/1/1 39/1/1
f 44/2/1 39/2/1 43/2/1
f 45/1/1 40/1/1 44/1/1
f 46/2/1 44/2/1 43/2/1
f 46/2/1 45/2/1 44/2/1
f 47/2/1 45/2/1 46/2/1
f 51/1/1 49/1/1 48/1/1
f 52/1/1 51/1/1 50/1/1
f 53/1/1 51/1/1 52/1/1
f 54/1/1 51/1/1 53/1/1
f 55/1/1 49/1/1 51/1/1
f 55/1/1 51/1/1 54/1/1
f 56/1/1 49/1/1 55/1/1
f 57/1/1 49/1/1 56/1/1
f 60/3/1 59/3/1 58/3/1
f 61/3/1 59/3/1 60/3/1
f 63/3/1 62/3/1 61/3/1
f 64/3/1 62/3/1 63/3/1
f 66/3/1 65/3/1 64/3/1
f 67/3/1 65/3/1 66/3/1
f 69/3/1 68/3/1 67/3/1
f 70/3/1 68/3/1 69/3/1
f 71/3/1 68/3/1 70/3/1
f 73/3/1 71/3/1 70/3/1
f 73/3/1 72/3/1 71/3/1
f 74/3/1 72/3/1 73/3/1
f 76/3/1 75/3/1 74/3/1
f 77/3/1 75/3/1 76/3/1
f 80/3/1 79/3/1 78/3/1
f 81/3/1 79/3/1 80/3/1
f 83/3/1 82/3/1 81/3/1
f 84/3/1 82/3/1 83/3/1
f 86/3/1 85/3/1 84/3/1
f 87/3/1 85/3/1 86/3/1
f 89/3/1 88/3/1 87/3/1
f 90/3/1 88/3/1 89/3/1
f 91/3/1 88/3/1 90/3/1
f 92/3/1 88/3/1 91/3/1
f 94/3/1 93/3/1 92/3/1
f 95/3/1 93/3/1 94/3/1
f 96/3/1 93/3/1 95/3/1
f 98/3/1 97/3/1 96/3/1
f 98/3/1 96/3/1 95/3/1
f 99/3/1 97/3/1 98/3/1
f 100/3/2 101/3/2 102/3/2
f 102/3/2 101/3/2 103/3/2
f 103/3/2 104/3/2 105/3/2
f 105/3/2 104/3/2 106/3/2
f 106/3/2 107/3/2 108/3/2
f 108/3/2 107/3/2 109/3/2
f 109/3/2 110/3/2 111/3/2
f 111/3/2 110/3/2 112/3/2
f 112/3/2 110/3/2 113/3/2
f 112/3/2 113/3/2 115/3/2
f 113/3/2 114/3/2 115/3/2
f 115/3/2 114/3/2 116/3/2
f 116/3/2 117/3/2 118/3/2
f 118/3/2 117/3/2 119/3/2
f 120/3/2 121/3/2 122/3/2
f 122/3/2 121/3/2 123/3/2
f 123/3/2 124/3/2 125/3/2
f 125/3/2 124/3/2 126/3/2
f 126/3/2 127/3/2 128/3/2
f 128/3/2 127/3/2 129/3/2
f 129/3/2 130/3/2 131/3/2
f 131/3/2 130/3/2 132/3/2
f 132/3/2 130/3/2 133/3/2
f 133/3/2 130/3/2 134/3/2
f 134/3/2 135/3/2 136/3/2
f 136/3/2 135/3/2 137/3/2
f 137/3/2 135/3/2 138/3/2
f 138/3/2 139/3/2 140/3/2
f 137/3/2 138/3/2 140/3/2
f 140/3/2 139/3/2 141/3/2
f 142/1/2 143/1/2 144/1/2
f 142/1/2 144/1/2 147/1/2
f 144/1/2 145/1/2 147/1/2
f 146/1/2 147/1/2 149/1/2
f 147/1/2 145/1/2 150/1/2
f 148/1/2 149/1/2 150/1/2
f 149/1/2 147/1/2 150/1/2
f 150/1/2 145/1/2 151/1/2
f 148/1/2 150/1/2 152/1/2
f 152/1/2 150/1/2 153/1/2
f 153/1/2 150/1/2 154/1/2
f 154/1/2 150/1/2 155/1/2
f 152/2/2 153/2/2 156/2/2
f 153/1/2 154/1/2 156/1/2
f 156/1/2 154/1/2 157/1/2
f 156/2/2 157/2/2 158/2/2
f 157/1/2 154/1/2 158/1/2
f 158/1/2 154/1/2 159/1/2
f 159/1/2 154/1/2 160/1/2
f 160/1/2 154/1/2 161/1/2
f 158/2/2 159/2/2 162/2/2
f 159/1/2 160/1/2 162/1/2
f 162/1/2 160/1/2 163/1/2
f 152/2/2 156/2/2 164/2/2
f 156/2/2 158/2/2 164/2/2
f 162/2/2 163/2/2 164/2/2
f 158/2/2 162/2/2 164/2/2
f 164/2/2 163/2/2 165/2/2
f 163/1/2 160/1/2 166/1/2
f 165/2/2 163/2/2 166/2/2
f 166/1/2 160/1/2 167/1/2
f 167/1/2 160/1/2 168/1/2
f 168/1/2 160/1/2 169/1/2
f 165/2/2 166/2/2 170/2/2
f 166/2/2 167/2/2 170/2/2
f 170/2/2 167/2/2 171/2/2
f 167/1/2 168/1/2 172/1/2
f 171/2/2 167/2/2 172/2/2
f 172/1/2 168/1/2 173/1/2
f 171/2/2 172/2/2 174/2/2
f 172/2/2 173/2/2 174/2/2
f 173/1/2 168/1/2 175/1/2
f 174/2/2 173/2/2 175/2/2
f 175/1/2 168/1/2 176/1/2
f 176/1/2 168/1/2 177/1/2
f 175/2/2 176/2/2 177/2/2
f 177/1/2 168/1/2 178/1/2
f 178/1/2 168/1/2 179/1/2
f 179/1/2 168/1/2 180/1/2
f 175/2/2 177/2/2 181/2/2
f 177/2/2 178/2/2 181/2/2
f 181/2/2 178/2/2 182/2/2
f 178/1/2 179/1/2 183/1/2
f 182/2/2 178/2/2 183/2/2
f 183/1/2 179/1/2 184/1/2
f 182/2/2 183/2/2 185/2/2
f 183/2/2 184/2/2 185/2/2
f 185/2/2 184/2/2 186/2/2
f 189/3/3 188/3/3 187/3/3
f 190/3/3 188/3/3 189/3/3
f 193/3/3 192/3/3 191/3/3
f 194/3/3 192/3/3 193/3/3
f 198/1/3 196/1/3 195/1/3
f 198/2/3 197/2/3 196/2/3
f 199/2/3 197/2/3 198/2/3
f 201/1/3 198/1/3 195/1/3
f 202/3/3 200/3/3 199/3/3
f 203/3/3 200/3/3 202/3/3
f 204/1/3 201/1/3 195/1/3
f 204/2/3 202/2/3 201/2/3
f 205/2/3 202/2/3 204/2/3
f 207/1/3 204/1/3 195/1/3
f 208/3/3 206/3/3 205/3/3
f 209/3/3 206/3/3 208/3/3
f 210/1/3 207/1/3 195/1/3
f 211/2/3 208/2/3 207/2/3
f 211/1/3 207/1/3 210/1/3
f 212/2/3 208/2/3 211/2/3
f 215/1/3 214/1/3 213/1/3
f 216/1/3 214/1/3 215/1/3
f 219/1/3 218/1/3 217/1/3
f 220/1/3 218/1/3 219/1/3
f 223/2/3 222/2/3 221/2/3
f 224/2/3 222/2/3 223/2/3
f 227/3/3 225/3/3 224/3/3
f 228/3/3 225/3/3 227/3/3
f 229/2/3 227/2/3 226/2/3
f 230/2/3 227/2/3 229/2/3
f 233/3/3 231/3/3 230/3/3
f 234/3/3 231/3/3 233/3/3
f 235/2/3 233/2/3 232/2/3
f 236/2/3 233/2/3 235/2/3
f 239/2/3 238/2/3 237/2/3
f 240/2/3 238/2/3 239/2/3
f 243/3/3 241/3/3 240/3/3
f 244/3/3 241/3/3 243/3/3
f 245/2/3 243/2/3 242/2/3
f 246/2/3 243/2/3 245/2/3
f 249/3/3 247/3/3 246/3/3
f 250/3/3 247/3/3 249/3/3
f 251/2/3 249/2/3 248/2/3
f 252/2/3 249/2/3 251/2/3
f 255/3/3 254/3/3 253/3/3
f 256/3/3 254/3/3 255/3/3
f 259/3/3 258/3/3 257/3/3
f 260/3/3 258/3/3 259/3/3
f 263/2/3 262/2/3 261/2/3
f 264/2/3 262/2/3 263/2/3
f 267/2/3 266/2/3 265/2/3
f 268/2/3 266/2/3 267/2/3
f 271/3/3 269/3/3 268/3/3
f 272/3/3 269/3/3 271/3/3
f 273/2/3 271/2/3 270/2/3
f 274/2/3 271/2/3 273/2/3
f 277/3/3 276/3/3 275/3/3
f 278/3/3 276/3/3 277/3/3
f 281/2/3 280/2/3 279/2/3
f 282/2/3 280/2/3 281/2/3
f 285/3/3 283/3/3 282/3/3
f 286/3/3 283/3/3 285/3/3
f 287/2/3 285/2/3 284/2/3
f 288/2/3 285/2/3 287/2/3
f 291/2/3 290/2/3 289/2/3
f 292/2/3 290/2/3 291/2/3
f 293/1/4 294/1/4 295/1/4
f 295/1/4 294/1/4 296/1/4
f 298/2/4 299/2/4 300/2/4
f 298/2/4 300/2/4 302/2/4
f 300/3/4 301/3/4 302/3/4
f 302/3/4 301/3/4 303/3/4
f 298/2/4 302/2/4 304/2/4
f 298/2/4 304/2/4 306/2/4
f 304/3/4 305/3/4 306/3/4
f 306/3/4 305/3/4 307/3/4
f 297/1/4 298/1/4 308/1/4
f 298/2/4 306/2/4 309/2/4
f 308/1/4 298/1/4 309/1/4
f 309/2/4 306/2/4 310/2/4
f 311/1/4 312/1/4 313/1/4
f 313/1/4 312/1/4 314/1/4
f 315/1/4 316/1/4 319/1/4
f 319/1/4 316/1/4 320/1/4
f 317/1/4 318/1/4 321/1/4
f 321/1/4 318/1/4 322/1/4
f 323/1/4 324/1/4 327/1/4
f 327/1/4 324/1/4 328/1/4
f 323/1/4 327/1/4 329/1/4
f 329/1/4 327/1/4 330/1/4
f 325/1/4 326/1/4 331/1/4
f 331/1/4 326/1/4 332/1/4
f 333/1/4 334/1/4 335/1/4
f 335/1/4 334/1/4 336/1/4
f 336/1/4 334/1/4 337/1/4
f 337/1/4 334/1/4 338/1/4
f 339/1/4 340/1/4 341/1/4
f 341/1/4 340/1/4 342/1/4
f 345/1/5 344/1/5 343/1/5
f 346/1/5 344/1/5 345/1/5
f 349/1/5 348/1/5 347/1/5
f 350/1/5 348/1/5 349/1/5
f 353/1/5 352/1/5 351/1/5
f 354/1/5 352/1/5 353/1/5
f 357/1/5 356/1/5 355/1/5
f 358/1/5 356/1/5 357/1/5
f 361/1/5 360/1/5 359/1/5
f 362/1/5 360/1/5 361/1/5
f 365/1/5 364/1/5 363/1/5
f 366/1/5 364/1/5 365/1/5
f 371/3/5 368/3/5 367/3/5
f 372/3/5 368/3/5 371/3/5
f 373/3/5 370/3/5 369/3/5
f 374/3/5 370/3/5 373/3/5
f 375/1/6 376/1/6 377/1/6
f 377/1/6 376/1/6 378/1/6
f 379/1/6 380/1/6 381/1/6
f 381/1/6 380/1/6 382/1/6
f 383/1/6 384/1/6 385/1/6
f 385/1/6 384/1/6 386/1/6
f 387/1/6 388/1/6 389/1/6
f 389/1/6 388/1/6 390/1/6
f 391/3/6 392/3/6 396/3/6
f 396/3/6 392/3/6 397/3/6
f 393/3/6 394/3/6 398/3/6
f 398/3/6 394/3/6 399/3/6
f 395/2/6 396/2/6 401/2/6
f 401/2/6 396/2/6 402/2/6
f 397/2/6 398/2/6 403/2/6
f 403/2/6 398/2/6 404/2/6
f 399/2/6 400/2/6 405/2/6
f 405/2/6 400/2/6 406/2/6
f 407/1/6 408/1/6 409/1/6
f 409/1/6 408/1/6 410/1/6
f 411/3/6 412/3/6 416/3/6
f 416/3/6 412/3/6 417/3/6
f 413/3/6 414/3/6 418/3/6
f 418/3/6 414/3/6 419/3/6
f 415/2/6 416/2/6 421/2/6
f 421/2/6 416/2/6 422/2/6
f 417/2/6 418/2/6 423/2/6
f 423/2/6 418/2/6 424/2/6
f 419/2/6 420/2/6 425/2/6
f 425/2/6 420/2/6 426/2/6
f 427/3/6 428/3/6 432/3/6
f 432/3/6 428/3/6 433/3/6
f 429/3/6 430/3/6 434/3/6
f 434/3/6 430/3/6 435/3/6
f 431/2/6 432/2/6 437/2/6
f 437/2/6 432/2/6 438/2/6
f 433/2/6 434/2/6 439/2/6
f 439/2/6 434/2/6 440/2/6
f 435/2/6 436/2/6 441/2/6
f 441/2/6 436/2/6 442/2/6
f 443/3/6 444/3/6 447/3/6
f 447/3/6 444/3/6 448/3/6
f 445/3/6 446/3/6 449/3/6
f 449/3/6 446/3/6 450/3/6
f 451/1/6 452/1/6 453/1/6
f 453/1/6 452/1/6 454/1/6
f 455/3/6 456/3/6 460/3/6
f 460/3/6 456/3/6 461/3/6
f 457/2/6 458/2/6 463/2/6
f 463/2/6 458/2/6 464/2/6
f 459/2/6 460/2/6 465/2/6
f 465/2/6 460/2/6 466/2/6
f 461/2/6 462/2/6 467/2/6
f 467/2/6 462/2/6 468/2/6
f 471/3/6 472/3/6 473/3/6
f 473/3/6 472/3/6 474/3/6
f 469/3/6 470/3/6 476/3/6
f 476/3/6 470/3/6 477/3/6
f 475/2/6 476/2/6 481/2/6
f 481/2/6 476/2/6 482/2/6
f 477/2/6 478/2/6 483/2/6
f 483/2/6 478/2/6 484/2/6
f 479/2/6 480/2/6 485/2/6
f 485/2/6 480/2/6 486/2/6
f 489/3/6 490/3/6 491/3/6
f 491/3/6 490/3/6 492/3/6
f 487/3/6 488/3/6 493/3/6
f 493/3/6 488/3/6 494/3/6
